<?xml version="1.0" encoding="utf-8"?>
<!-- Generator: Adobe Illustrator 23.0.2, SVG Export Plug-In . SVG Version: 6.00 Build 0)  -->
<svg version="1.1" id="Layer_1" xmlns="http://www.w3.org/2000/svg" xmlns:xlink="http://www.w3.org/1999/xlink" x="0px" y="0px"
	 viewBox="0 0 1024 748" style="enable-background:new 0 0 1024 748;" xml:space="preserve">
<style type="text/css">
	.st0{fill:#C2F2F2;}
	.st1{fill:#93C9C7;}
	.st2{display:none;fill:none;stroke:#FFFFFF;stroke-miterlimit:10;}
	.st3{fill:#68C1C1;}
	.st4{fill:#487C85;}
	.st5{fill:#408BA2;}
	.st6{fill:#3894BB;}
	.st7{fill:#3999BA;}
	.st8{fill:#3A9EB9;}
	.st9{fill:#3BA3B8;}
	.st10{fill:#3CA8B7;}
	.st11{fill:#3DADB6;}
	.st12{fill:#3EB2B5;}
	
		.st13{opacity:0.5;fill:none;stroke:#FFFFFF;stroke-width:0.2698;stroke-linecap:round;stroke-miterlimit:10;enable-background:new    ;}
	
		.st14{opacity:0.5;fill:none;stroke:#FFFFFF;stroke-width:0.5261;stroke-linecap:round;stroke-miterlimit:10;enable-background:new    ;}
	
		.st15{opacity:0.5;fill:none;stroke:#FFFFFF;stroke-width:0.9043;stroke-linecap:round;stroke-miterlimit:10;enable-background:new    ;}
	.st16{fill:#6AC9CD;}
	.st17{fill:#8FD5CD;}
	.st18{opacity:0.33;fill:#FFFFFF;enable-background:new    ;}
	.st19{fill:#E0D0BD;}
	.st20{fill:#D3EFE9;}
	.st21{fill:#EDDDC3;}
	.st22{fill:#FFECCB;}
	.st23{fill:#DACAB2;}
	.st24{fill:#E86348;}
	.st25{fill:#BC453C;}
	.st26{fill:none;stroke:#E86348;stroke-width:3.6679;stroke-linecap:round;stroke-miterlimit:10;}
	.st27{fill:none;stroke:#E86348;stroke-width:3.4027;stroke-linecap:round;stroke-miterlimit:10;}
	.st28{fill:#FFFFFF;stroke:#FFFFFF;stroke-width:0.3057;stroke-miterlimit:10;}
	.st29{fill:#4D4E4E;}
	.st30{fill:none;stroke:#FFFFFF;stroke-width:0.3057;stroke-linecap:round;stroke-miterlimit:10;}
</style>
<g id="bg">
	<rect id="sky" class="st0" width="1024" height="748"/>
	<g id="birds">
		<path class="st1" d="M401.9,90h-1c-0.7,0-1.4,0.1-2.1,0.2c-0.3,0.1-0.7,0.2-1,0.2l-1,0.3l-1,0.4c-0.3,0.2-0.7,0.3-1,0.5
			s-0.7,0.3-1,0.5s-0.7,0.4-1,0.6s-0.6,0.4-0.9,0.7c-0.3,0.2-0.6,0.5-0.9,0.7c-0.3,0.3-0.6,0.5-0.9,0.8s-0.5,0.5-0.8,0.8l-0.7,0.8
			l-0.7-0.8c-0.2-0.3-0.5-0.6-0.8-0.8s-0.5-0.5-0.9-0.8c-0.3-0.3-0.6-0.5-0.9-0.7c-0.3-0.3-0.6-0.4-0.9-0.7s-0.6-0.4-1-0.6
			c-0.3-0.2-0.7-0.4-1-0.5c-0.3-0.2-0.7-0.3-1-0.5l-1-0.4l-1-0.3c-0.3-0.1-0.7-0.2-1-0.2c-0.7-0.1-1.4-0.2-2.1-0.2h-1
			c-0.4,0-0.7,0-1,0l1,0.3l1,0.3l1,0.3l1,0.4l0.9,0.4l0.9,0.4l0.9,0.5c0.3,0.2,0.6,0.3,0.9,0.6l0.8,0.6c0.3,0.2,0.5,0.4,0.8,0.6
			s0.6,0.4,0.8,0.7c0.3,0.2,0.5,0.4,0.7,0.7c0.2,0.2,0.5,0.5,0.7,0.8s0.5,0.5,0.7,0.8l0.7,0.8l0.7,0.9l0.6,0.8l0,0l0,0l0,0l0,0l0,0
			l0,0l0.6-0.8l0.7-0.9l0.7-0.8c0.2-0.3,0.5-0.5,0.7-0.8s0.5-0.5,0.7-0.8c0.2-0.2,0.5-0.5,0.7-0.7s0.5-0.4,0.8-0.7s0.5-0.4,0.8-0.6
			s0.5-0.4,0.8-0.6s0.6-0.4,0.9-0.6l0.9-0.5l0.9-0.4c0.3-0.1,0.6-0.3,0.9-0.4l1-0.4l1-0.3l1-0.3c0.4-0.1,0.6-0.2,1-0.3
			C402.6,90,402.3,90,401.9,90z"/>
		<path class="st1" d="M409.4,103H409c-0.3,0-0.5,0-0.8,0.1c-0.1,0-0.2,0.1-0.4,0.1l-0.4,0.1l-0.4,0.1l-0.4,0.2
			c-0.1,0.1-0.2,0.1-0.4,0.2l-0.4,0.2c-0.1,0.1-0.2,0.2-0.3,0.3s-0.2,0.2-0.3,0.3s-0.2,0.2-0.3,0.3c-0.1,0.1-0.2,0.2-0.3,0.3
			l-0.2,0.3l-0.2-0.3c-0.1-0.1-0.2-0.2-0.3-0.3s-0.2-0.2-0.3-0.3s-0.2-0.2-0.3-0.3s-0.2-0.2-0.3-0.3l-0.4-0.2
			c-0.1-0.1-0.2-0.1-0.4-0.2l-0.4-0.2l-0.4-0.1l-0.4-0.1l-0.4-0.1c-0.3,0-0.5-0.1-0.8-0.1h-0.4H399l0.4,0.1l0.4,0.1l0.4,0.1l0.4,0.1
			l0.3,0.2l0.3,0.2l0.3,0.2c0.1,0.1,0.2,0.1,0.3,0.2l0.3,0.2c0.1,0.1,0.2,0.2,0.3,0.2l0.3,0.3c0.1,0.1,0.2,0.2,0.3,0.3
			s0.2,0.2,0.3,0.3s0.2,0.2,0.3,0.3l0.3,0.3l0.2,0.3l0.2,0.3l0,0l0,0l0,0l0.2-0.3l0.2-0.3l0.3-0.3c0.1-0.1,0.2-0.2,0.3-0.3
			s0.2-0.2,0.3-0.3s0.2-0.2,0.3-0.3c0.1-0.1,0.2-0.2,0.3-0.3c0.1-0.1,0.2-0.2,0.3-0.2l0.3-0.2c0.1-0.1,0.2-0.2,0.3-0.2l0.3-0.2
			l0.3-0.2l0.3-0.2l0.4-0.1l0.4-0.1l0.4-0.1l0.4-0.1H409.4z"/>
		<path class="st1" d="M421.5,98.8h-0.4c-0.3,0-0.5,0-0.8,0.1L420,99l-0.4,0.1l-0.4,0.1l-0.4,0.2c-0.1,0.1-0.2,0.1-0.4,0.2l-0.4,0.2
			c-0.1,0.1-0.2,0.2-0.3,0.3s-0.2,0.2-0.3,0.3s-0.2,0.2-0.3,0.3s-0.2,0.2-0.3,0.3l-0.2,0.3l-0.2-0.3c-0.1-0.1-0.2-0.2-0.3-0.3
			c-0.1-0.1-0.2-0.2-0.3-0.3c-0.1-0.1-0.2-0.2-0.3-0.3l-0.3-0.3c-0.1-0.1-0.2-0.2-0.4-0.2c-0.1-0.1-0.2-0.1-0.4-0.2l-0.4-0.2
			l-0.4-0.1l-0.4-0.1c-0.1,0-0.2-0.1-0.4-0.1c-0.3,0-0.5-0.1-0.8-0.1h-0.4h-0.4l0.4,0.1L412,99l0.4,0.1l0.4,0.2l0.3,0.2l0.3,0.2
			l0.3,0.2c0.1,0.1,0.2,0.1,0.3,0.2l0.3,0.2l0.3,0.2c0.1,0.1,0.2,0.2,0.3,0.3c0.1,0.1,0.2,0.2,0.3,0.3l0.3,0.3
			c0.1,0.1,0.2,0.2,0.3,0.3l0.2,0.3l0.2,0.3l0.2,0.3l0,0l0,0l0,0l0.2-0.3l0.2-0.3l0.3-0.3l0.3-0.3c0.1-0.1,0.2-0.2,0.3-0.3
			s0.2-0.2,0.3-0.3l0.3-0.3l0.3-0.2l0.3-0.2c0.1-0.1,0.2-0.1,0.3-0.2l0.3-0.2l0.3-0.2l0.3-0.2l0.4-0.2l0.4-0.1l0.4-0.1l0.4-0.1
			H421.5z"/>
	</g>
	<g id="birds-2">
		<path class="st1" d="M909.2,372h0.8c0.5,0,1.1,0.1,1.6,0.2c0.2,0,0.5,0.1,0.8,0.2l0.8,0.2l0.8,0.3l0.8,0.4
			c0.2,0.1,0.5,0.2,0.7,0.4c0.3,0.1,0.5,0.3,0.7,0.5s0.5,0.3,0.7,0.5s0.5,0.4,0.7,0.6s0.4,0.4,0.6,0.6c0.2,0.2,0.4,0.4,0.6,0.6
			l0.5,0.6l0.5-0.6c0.2-0.2,0.4-0.4,0.6-0.6c0.2-0.2,0.4-0.4,0.6-0.6c0.2-0.2,0.4-0.4,0.7-0.6s0.5-0.3,0.7-0.5s0.5-0.3,0.7-0.5
			c0.2-0.1,0.5-0.3,0.7-0.4l0.8-0.4l0.8-0.3l0.8-0.2c0.2,0,0.5-0.1,0.8-0.2c0.5-0.1,1.1-0.2,1.6-0.2h0.8c0.3,0,0.5,0,0.8,0l-0.8,0.2
			l-0.8,0.2l-0.7,0.3L927,373l-0.7,0.3l-0.7,0.3l-0.7,0.4c-0.2,0.1-0.4,0.3-0.7,0.4c-0.2,0.2-0.4,0.3-0.6,0.4s-0.4,0.3-0.6,0.5
			s-0.4,0.3-0.6,0.5c-0.2,0.2-0.4,0.3-0.6,0.5c-0.2,0.2-0.4,0.4-0.5,0.6s-0.4,0.4-0.6,0.6l-0.5,0.6l-0.5,0.6l-0.5,0.6v0.1l0,0l0,0
			v-0.1l-0.5-0.6l-0.5-0.6l-0.5-0.6c-0.2-0.2-0.4-0.4-0.6-0.6s-0.4-0.4-0.5-0.6c-0.2-0.2-0.4-0.4-0.6-0.5c-0.2-0.2-0.4-0.3-0.6-0.5
			s-0.4-0.3-0.6-0.5s-0.4-0.3-0.6-0.4c-0.2-0.2-0.4-0.3-0.7-0.4l-0.7-0.4l-0.7-0.3l-0.7-0.3l-0.7-0.3l-0.7-0.3l-0.8-0.2l-0.8-0.2
			C908.7,372,908.9,372,909.2,372z"/>
		<path class="st1" d="M903.5,381.9h0.3c0.2,0,0.4,0,0.6,0.1l0.3,0.1l0.3,0.1l0.3,0.1l0.3,0.1l0.3,0.1l0.3,0.2
			c0.1,0.1,0.2,0.1,0.2,0.2c0.1,0.1,0.2,0.1,0.2,0.2c0.1,0.1,0.2,0.1,0.2,0.2l0.2,0.2l0.2,0.2l0.2-0.2c0.1-0.1,0.1-0.1,0.2-0.2
			l0.2-0.2l0.2-0.2l0.2-0.2c0.1-0.1,0.2-0.1,0.3-0.2s0.2-0.1,0.3-0.1l0.3-0.1l0.3-0.1l0.3-0.1l0.3-0.1c0.2,0,0.4-0.1,0.6-0.1h0.6
			l-0.3,0.1l-0.3,0.1l-0.3,0.1l-0.3,0.1l-0.3,0.1l-0.3,0.1l-0.2,0.1l-0.2,0.2l-0.2,0.2c-0.1,0.1-0.2,0.1-0.2,0.2
			c-0.1,0.1-0.2,0.1-0.2,0.2c-0.1,0.1-0.1,0.1-0.2,0.2c-0.1,0.1-0.1,0.1-0.2,0.2s-0.1,0.1-0.2,0.2l-0.2,0.2l-0.2,0.2l-0.2,0.2l0,0
			l0,0l0,0l-0.2-0.2l-0.2-0.2l-0.2-0.2c-0.1-0.1-0.1-0.1-0.2-0.2c-0.1-0.1-0.1-0.1-0.2-0.2l-0.2-0.2l-0.2-0.2
			c-0.1-0.1-0.1-0.1-0.2-0.2l-0.2-0.2l-0.2-0.2l-0.2-0.1l-0.3-0.1l-0.3-0.1l-0.3-0.1l-0.3-0.1l-0.3-0.1l-0.3-0.1H903.5z"/>
		<path class="st1" d="M894.3,378.7h0.3c0.2,0,0.4,0,0.6,0.1l0.3,0.1l0.3,0.1l0.3,0.1l0.3,0.1l0.3,0.1l0.3,0.2l0.2,0.2
			c0.1,0.1,0.2,0.1,0.2,0.2l0.2,0.2l0.2,0.2l0.2,0.2l0.2-0.2c0.1-0.1,0.1-0.2,0.2-0.2l0.2-0.2c0.1-0.1,0.2-0.1,0.2-0.2
			c0.1-0.1,0.2-0.1,0.2-0.2l0.3-0.2l0.3-0.1l0.3-0.1l0.3-0.1l0.3-0.1l0.3-0.1c0.2,0,0.4-0.1,0.6-0.1h0.3h0.3l-0.3,0.1l-0.3,0.1
			l-0.3,0.1l-0.3,0.1l-0.3,0.1l-0.3,0.1l-0.2,0.1l-0.2,0.2c-0.1,0.1-0.2,0.1-0.2,0.2c-0.1,0.1-0.2,0.1-0.2,0.2
			c-0.1,0.1-0.2,0.1-0.2,0.2c-0.1,0.1-0.1,0.1-0.2,0.2c-0.1,0.1-0.1,0.1-0.2,0.2l-0.2,0.2l-0.2,0.2l-0.2,0.2l-0.2,0.2l0,0l-0.2-0.2
			l-0.2-0.2l-0.2-0.2c-0.1-0.1-0.1-0.1-0.2-0.2l-0.2-0.2l-0.2-0.2l-0.2-0.2l-0.2-0.2c-0.1-0.1-0.2-0.1-0.2-0.2l-0.2-0.2l-0.2-0.1
			l-0.3-0.1l-0.3-0.1l-0.3-0.1l-0.3-0.1L894.3,378.7H894H894.3z"/>
	</g>
	<line id="promptLine" class="st2" x1="260.5" y1="247.5" x2="855.5" y2="247.5"/>
</g>
<g id="bg-2">
	<g>
		<g id="oceanBg_2_">
			<rect id="frontColor_2_" y="471" class="st3" width="1024" height="68"/>
			<g id="lowtide_2_">
				<rect y="411" class="st4" width="1024" height="5"/>
				<rect y="413.9" class="st5" width="1024" height="12.1"/>
			</g>
			<g id="lerp_2_">
				<rect y="415.6" class="st6" width="1024" height="11.2"/>
				<rect y="423.4" class="st7" width="1024" height="11.2"/>
				<rect y="431.2" class="st8" width="1024" height="11.2"/>
				<rect y="439" class="st9" width="1024" height="11.2"/>
				<rect y="446.8" class="st10" width="1024" height="11.2"/>
				<rect y="454.6" class="st11" width="1024" height="11.2"/>
				<rect y="462.4" class="st12" width="1024" height="11.2"/>
			</g>
			<g id="highlights_2_">
				<line class="st13" x1="919.7" y1="426" x2="1014" y2="426"/>
				<line class="st14" x1="915" y1="427.5" x2="1004.7" y2="427.5"/>
				<line class="st15" x1="943" y1="430.5" x2="1008.2" y2="430.5"/>
			</g>
		</g>
		<rect id="frontColor-2_2_" y="471" class="st3" width="1024" height="68"/>
		<rect id="mid-ocean" y="483" class="st16" width="1024" height="75"/>
		<rect id="front-ocean" y="496" class="st17" width="1024" height="62"/>
		<path id="foam" class="st18" d="M943.8,483.6c17.9,2.8,60.6,0.4,80.2-0.9v2.4c-13.2,0.6-26,1.2-37.5,1.9
			c-46.9,2.7-51.3,8.7-46.3,10.7c4.1,1.7,38.6,1.7,83.9,1.3v2.6h-6.6c-37.1,0-116.1-1.4-121.1,0.7s78.4,2,64.8,4.5
			s-30.3,4.5,15.4,4.4c12.4,0,29.4-0.1,47.4-0.2v1.5c-32.4,0.9-71.9,0.6-83.7-0.7c-9.1-1-4.9-2.5,7.3-3.9c15.4-1.8-4.4-1.2-39.4-2.2
			c-30.7-0.8-24.1-0.1-24.1-3c0-6.5-75.2,4.6-91,5.5c-51.6,2.8-137,2-161.9,2.3c-18.8,0.2-37.6-0.6-56.3-2.3
			c-13.9-1.2-88.5,3.3-109,4.5c-20.5,1.2-101.4-2.4-121.9-3.8c-20.5-1.5-25.4-4.2-112.6-1.3c-28.2,0.9-49.2,0.1-78-0.1
			c-20.2-0.1-39.9-1-65.7-2.4c-4,0.8-18.8,0.5-42,0.5c-26.8,0.1-7.6,0.8-1.2,3.8c5,2.3-29.4,0.9-44.4,0.2v-2.2l12.8,0.6
			c21.2,1.1,17.6,0.4,7.4-2.3s6-1.4,26.1-1.6c7.1,0,12.2-0.3,15.8-0.6L51,502.9c-23.2-1.4-40-2.9-51-3.9v-2.3
			c24.3,2.2,52.6,3.7,52.6,3.7s57.4,5.7,148.2,4.8c90.8-0.8,144.5-1.6,88.9-3.4s-106.9,0.3-58.7-2.8c48.2-3.1,100.1-3.7,22.9-5.9
			s-105-11.2-177.3-3.2c-25.4,2.9-51.1,3.6-76.7,2.2V489c21.5,0.4,53,0.4,86.1-2c28.1-2-53.7-4-86.1-4.6V469h1024v6
			C989.3,479.6,915.7,479.2,943.8,483.6z M646.6,475.4c-25.5,3,209.6,8.6,272.5,5.5c47-2.3-7-3.7-78.7-7
			C770.4,470.7,646.6,475.4,646.6,475.4L646.6,475.4z M726.7,486.4c-32.9-5.2-125.4-12.8-198.6-10c-44.3,1.7-141.2,11.5-137.5,15.3
			c2.7,2.7,77.1,5.2,119,6.4c18.5,0.5,37.2,0.5,55.7-0.1c53.6-1.7,132.6-4.6,165.1-4.7C768.4,493.2,759.6,491.6,726.7,486.4
			L726.7,486.4z M595,499.9c-15.6,1.5,38.5,2.6,65.8,2.6c17.6-0.1,35.2-1.5,52.7-4.2C761.3,490.5,610.6,498.5,595,499.9z M452.5,498
			c-4.2,0-5.9,1.2-2.3,1.8c8.5,1.2,25.7,2.4,59.3,1.1C530.1,500,497.6,498.3,452.5,498z M433.3,478.7c57.9-1.2,2.4-4.1-11.7-4
			C407.5,474.8,433.3,478.7,433.3,478.7z M184.3,485.2c-6.2-1.8-19.4-2.3-17.2-4.1c0,0-71.3,2.4-60.3,3S190.5,487,184.3,485.2z
			 M291.1,486.5c15.1,0.5,106.7-2.1,133.3-2.9c26.6-0.8-25.1-12.9-158.2-10c-30.9,0.6-79.6,6.4-77,9
			C191.8,485.2,291.1,486.5,291.1,486.5z M306.5,493c34.7,0.3,70.6-2.1,81.5-4.6s-38.5-0.2-75,0.9c-36.2,1.1-72-1.9-100.9-1.7
			C183.2,487.9,306.5,493,306.5,493z M270.1,498.4c-48.6,1.9,163,4.3,166.3,1.4s-58.8-4.2-96.4-4.7
			C316.7,494.9,293.3,496,270.1,498.4L270.1,498.4z M545.4,500.7c0,0-33.4,1.3-79.7,2.5c-46.3,1.3-117.3-2.3-137.7-0.2
			s85.8,9,142.6,7C527.5,508.1,633.1,500.7,545.4,500.7z M898.7,498.9c51.5-1.1,25.1-3.3,5.4-5.6c-11.9-1.4-64.6,0.6-97-0.1
			s-54.2,1.8-91.3,7.5c-31.5,4.9-96.2,3.8-114.8,3.3c-4-0.2-8,0.1-11.9,0.8c-26.9,5.6,194.3,3.4,219.5-0.5
			C851.3,497.6,846.8,499.9,898.7,498.9L898.7,498.9z M930.4,493.1c3.8-2,17-5.4-2.5-8.3c-8.8-1.2-17.7-1.6-26.6-1.1
			c-10.7,0.5-30.1,1.2-56.5,1.2c-41.4,0-122.8-4.8-111.7-2.1c11.2,2.7,32.7,8.3,52.2,7.9s54.1,1,81.4-0.8S926.3,495.1,930.4,493.1
			L930.4,493.1z"/>
		<g id="beach_2_">
			<g id="beachBg_2_">
				<g>
					<path class="st19" d="M1021,568.5v-54.3c-65.8,3.8-126.7,5.6-180.9,5.6c-34.6,0-67.3-0.8-97.2-2.3l-3.2-0.2
						c-16.7-0.9-55.7-2.9-107.3-2.9c-6.1,0-12.2,0-18.2,0.1c-44.5,0.4-76.2,2.2-99.3,3.5l-9.6,0.5c-25.8,1.4-48.4,2-71.4,2
						c-31.6,0-61.4-1.2-99.1-2.8c-39.6-1.6-89-3.6-159.2-5c-45.4-0.9-92-1.3-138.3-1.3c-11.3,0-22.8,0-34.1,0.1v57H1021z"/>
					<path class="st20" d="M37.1,508.4v6c-10.3,0-20.7,0.1-31.1,0.1v51h1012v-48.1c-64.7,3.6-124.5,5.5-177.9,5.5
						c-34.7,0-67.5-0.8-97.4-2.3l-3.2-0.2c-16.7-0.9-55.6-2.9-107.2-2.9c-6,0-12.2,0-18.2,0.1c-44.5,0.5-76.1,2.2-99.2,3.5l-9.6,0.5
						c-25.8,1.4-48.6,2-71.6,2c-31.6,0-61.5-1.2-99.3-2.8c-39.6-1.6-89-3.6-159.1-5c-45.4-0.9-91.9-1.3-138.2-1.3L37.1,508.4
						 M37.1,508.4c57.4,0,104.7,0.7,138.4,1.3c137,2.7,193.6,7.8,258.3,7.8c21.7,0,44.4-0.6,71.3-2c22.6-1.2,57.6-3.5,109-4
						c6.3-0.1,12.4-0.1,18.3-0.1c55.2,0,95.4,2.3,110.7,3.1c25.8,1.3,57.7,2.3,97.1,2.3c48.9,0,109.4-1.5,183.9-5.8v60.5H0v-63
						C12.8,508.5,25.2,508.4,37.1,508.4L37.1,508.4z"/>
				</g>
				<path class="st21" d="M0,505c26.8-0.8,69.5-1.6,122,0c73.1,2.2,77.4,6.4,165,10c84.1,3.5,101.1,0.5,156.9,5.5
					c9.7,0.9,34.6,3.2,68.6,4.5c97.2,3.5,127.8-5.1,255.2-9.4c59-2,147.1-3.3,256.2,1.4v142H0V505z"/>
			</g>
			<g id="beachFg_2_">
				<path class="st22" d="M1024,560.8V748H0V636h0.1L0,566.5l0,0V509c68.3,9.7,137.1,15.2,206,16.5c26,0.5,43.1,0.5,63.3,1.6
					c0,0,15,0.9,28.8,2.3c26.4,2.6,70.8,11.9,125.2,27.6c20.6-0.4,43.3-0.8,68.5-1.4c190.6-3.9,180-15.6,259.5-7.3
					c44.9,4.7,89.7,12.8,167.8,14.5C963.5,563.8,999.9,562.3,1024,560.8z"/>
			</g>
		</g>
		<ellipse id="shadow" class="st23" cx="858.5" cy="546" rx="21.5" ry="5"/>
		<g id="crab">
			<g>
				<path class="st24" d="M878.3,539.9c-1.5,0.8-3,1-6,1.3c-2.8,0.4-5.7,0.4-8.5,0c-2.8-0.5-5.5-1.3-8.1-2.4c-3-1.1-4.5-1.7-5.5-2.7
					c-1.8-2-2.6-4.6-2.3-7.2c2.1-8.5,10-14.4,18.8-13.9c9.3,0.7,16.9,9.1,16.6,19.1C882.5,536.5,880.7,538.6,878.3,539.9z"/>
				<path class="st25" d="M878.8,539.5c-1.9,1.2-3.6,1.5-6.8,1.9c-2.8,0.4-5.5,0.5-8.3,0.4c-3.1-0.6-5.7-1.3-7.6-1.9
					c-3.8-1.2-4.8-1.8-5.5-2.6c-1.3-1.4-2.7-4-1.8-6c0.1-0.1,0.1-0.3,0.2-0.4c1.7-2.3,5.8-2.7,7.4-2.8c3.8-0.1,4.3,0.6,8.7,0.9
					c5.1,0.3,5.3-0.6,9.9,0c1.7,0.2,6.5,1.1,8,3.8c0.1,0.1,0.1,0.2,0.1,0.4C883.7,535.5,880.7,538.3,878.8,539.5z"/>
			</g>
			<path class="st26" d="M880.8,545.5c0.4-2.4,0.3-4.9-0.4-7.2c-0.5-1.7-1.3-3.3-2.3-4.7"/>
			<path class="st26" d="M847.6,543.9c0.7-1.6,1.5-3.2,2.4-4.9c1.3-2.4,2.5-4.6,3.8-6.6"/>
			<path class="st27" d="M870.9,546c0.7-1.1,1.1-2.4,1.1-3.8c0-0.7-0.2-1.5-0.5-2.2"/>
			<path class="st27" d="M854.9,542.6l2.3-4.3"/>
			<g>
				<circle class="st28" cx="861.7" cy="515" r="2.5"/>
				<circle class="st29" cx="861.8" cy="513.9" r="1.2"/>
				
					<ellipse transform="matrix(5.703963e-02 -0.9984 0.9984 5.703963e-02 295.8896 1348.0859)" class="st24" cx="861.6" cy="517.4" rx="1.2" ry="2.8"/>
				<path id="L_brow_2_" class="st30" d="M863.2,510.8c-0.6-0.3-1.3-0.4-2-0.3c-0.7,0-1.4,0.3-2,0.7"/>
			</g>
			<g>
				<path id="L_brow-2_2_" class="st30" d="M873.4,512.3c0.7-0.1,1.4,0,2,0.2c0.7,0.2,1.3,0.7,1.7,1.2"/>
				<circle class="st28" cx="873.8" cy="516.7" r="2.5"/>
				<circle class="st29" cx="873.9" cy="515.7" r="1.2"/>
				
					<ellipse transform="matrix(0.229 -0.9734 0.9734 0.229 167.8011 1250.1411)" class="st24" cx="873.1" cy="519.1" rx="1.2" ry="2.8"/>
			</g>
			<g id="mouth_2_">
				<path class="st29" d="M869.6,520.8c-1.8,0.9-3.9,0.6-5.3-0.9l0,0l0,0l0,0c0.2,1.2,1.2,2.1,2.4,2.3c0.6,0.1,1.2,0,1.7-0.2
					c0.6-0.2,1-0.6,1.3-1.1 M869.6,520.8L869.6,520.8z"/>
			</g>
			<g>
				<path class="st24" d="M886.3,517.9c0.2,3.8,5.5,6.9,9.9,6.4c2.8-0.4,5.3-2.1,6.6-4.6c1.2-2.4,0.8-5.3,0.3-5.4s-0.5,2-2.2,3.1
					c-2,1.4-5.6,0.9-6.2-0.5c-0.4-1,0.7-2.7,1.9-3.5c1.6-1.1,3.3-0.7,3.4-1.2c0.1-0.5-1.1-1.3-2.2-1.6c-0.8-0.2-1.7-0.2-2.5-0.1
					C890.1,510.7,886,514,886.3,517.9z"/>
				<path class="st27" d="M889.2,520.7c-2.4,1.1-4.7,2.3-7,3.6c-2.2,1.3-4.3,2.6-6,3.9"/>
			</g>
		</g>
	</g>
</g>
</svg>
