<svg xmlns="http://www.w3.org/2000/svg" viewBox="0 0 1024 748"><path fill="#487c85" d="M0 411h1024v5H0z"/><path fill="#408ba2" d="M0 413.94h1024V426H0z"/><path fill="#3894bb" d="M0 415.65h1024v11.16H0z"/><path fill="#3999ba" d="M0 423.44h1024v11.16H0z"/><path fill="#3a9eb9" d="M0 431.24h1024v11.16H0z"/><path fill="#3ba3b8" d="M0 439.03h1024v11.16H0z"/><path fill="#3ca8b7" d="M0 446.82h1024v11.16H0z"/><path fill="#3dadb6" d="M0 454.61h1024v11.16H0z"/><path fill="#3eb2b5" d="M0 462.4h1024v11.16H0z"/><g fill="none" stroke="#fff" stroke-linecap="round" stroke-miterlimit="10"><path stroke-width=".27" d="M1013 426h-94.34" opacity=".5"/><path stroke-width=".526" d="M1003.68 427.5H914" opacity=".5"/><path stroke-width=".904" d="M1007.18 430.46h-65.23" opacity=".5"/></g><g fill="#93c9c7"><g data-name="birds"><path d="M401.92 90h-1a19 19 0 0 0-2.08.25c-.33.06-.68.16-1 .22l-1 .31-1 .37c-.32.15-.67.3-1 .46a10.11 10.11 0 0 0-1 .51c-.33.2-.66.4-1 .61s-.59.43-.89.69a10.48 10.48 0 0 0-.87.73c-.31.26-.58.52-.85.79s-.54.54-.78.82l-.67.78-.68-.78c-.23-.28-.5-.55-.77-.82s-.54-.53-.85-.79a10.48 10.48 0 0 0-.87-.73c-.31-.26-.59-.43-.9-.69s-.62-.41-.95-.61a10.11 10.11 0 0 0-1-.51c-.32-.16-.68-.31-1-.46l-1-.37-1-.31c-.34-.06-.68-.16-1-.22a19.3 19.3 0 0 0-2.08-.25h-2l1 .32 1 .33 1 .33 1 .38.94.39.91.45.88.5c.29.17.57.34.87.55l.82.57c.26.23.54.4.8.62s.56.44.78.68a9.87 9.87 0 0 1 .74.69c.22.24.48.47.72.75s.49.51.72.79l.7.8.66.86.65.8.65-.8.67-.86.69-.8c.24-.28.49-.51.73-.79s.49-.51.72-.75a9.87 9.87 0 0 1 .74-.69c.22-.24.51-.45.77-.68s.55-.39.8-.62.54-.36.83-.57.58-.38.86-.55l.89-.5.91-.45c.31-.12.63-.27.93-.39l1-.38 1-.33 1-.33c.35-.1.65-.21 1-.32h-1.14zM409.41 103h-.38a6.56 6.56 0 0 0-.76.09c-.13 0-.25.06-.38.09l-.38.11-.37.14-.36.18a3.24 3.24 0 0 0-.36.2l-.35.23c-.12.1-.22.16-.33.26s-.22.18-.32.28-.22.2-.32.3a4 4 0 0 0-.28.32l-.25.3-.25-.3c-.09-.11-.19-.21-.29-.32s-.19-.2-.31-.3-.21-.18-.32-.28-.22-.16-.33-.26l-.35-.23a3.24 3.24 0 0 0-.36-.2l-.37-.18-.37-.14-.38-.11-.37-.09a7.12 7.12 0 0 0-.76-.09h-.76l.37.13.36.12.36.13.36.14.34.15.34.17.32.19a3.05 3.05 0 0 1 .32.22l.31.21c.09.09.2.15.29.24l.29.26c.09.09.19.17.27.26s.18.18.26.29.19.19.27.3l.26.31.24.32.24.31.23-.31.25-.32.26-.31c.08-.11.18-.19.26-.3s.19-.19.27-.29.18-.17.27-.26a3.79 3.79 0 0 1 .29-.26c.09-.09.2-.15.29-.24l.31-.21c.11-.09.21-.15.31-.22l.33-.19.34-.17.34-.15.36-.14.35-.13.37-.12.37-.13zM421.49 98.76h-.38a7 7 0 0 0-.77.09L420 99l-.38.12-.37.14-.37.17a3.24 3.24 0 0 0-.36.2l-.35.23c-.11.1-.22.17-.33.26s-.22.18-.32.29-.21.2-.31.3-.2.2-.29.31l-.25.3-.25-.3a2.7 2.7 0 0 0-.28-.31c-.1-.1-.2-.21-.31-.3a3.11 3.11 0 0 0-.33-.29l-.33-.26c-.1-.08-.23-.15-.35-.23a3.24 3.24 0 0 0-.36-.2l-.36-.17-.37-.14-.38-.12c-.13 0-.25-.06-.38-.09a6.56 6.56 0 0 0-.76-.09h-.76l.37.12.37.12.35.13.36.15.34.15.34.17.33.19a2.82 2.82 0 0 1 .31.21l.31.22.29.23a3.79 3.79 0 0 1 .29.26 3.44 3.44 0 0 1 .27.27l.27.28a3.85 3.85 0 0 0 .27.3l.25.31.25.33.24.31.24-.31.24-.33.26-.31.27-.3c.08-.1.18-.19.26-.28s.18-.18.27-.27l.29-.26.3-.23.3-.22a2.92 2.92 0 0 1 .32-.21l.32-.19.34-.17.34-.15.36-.15.36-.13.36-.12.37-.12z"/></g><g data-name="birds"><path d="M909.19 372h.79a12.69 12.69 0 0 1 1.59.18c.25.05.51.13.76.17l.79.24.77.28.76.35c.24.12.48.24.73.39a6.54 6.54 0 0 1 .73.47c.24.19.45.32.69.52s.45.35.66.56a7.31 7.31 0 0 1 .64.6c.21.2.42.41.6.62l.51.6.51-.6c.18-.21.39-.42.6-.62a7.31 7.31 0 0 1 .64-.6c.21-.21.43-.37.66-.56s.45-.33.69-.52a6.54 6.54 0 0 1 .73-.47c.25-.15.49-.27.73-.39l.76-.35.77-.28.79-.24c.25 0 .51-.12.76-.17a12.69 12.69 0 0 1 1.59-.18H930l-.76.25-.76.24-.73.26-.74.28-.71.3-.7.34-.67.38a7.37 7.37 0 0 0-.66.43c-.22.16-.44.29-.63.43s-.41.3-.61.47-.42.34-.59.52a7.11 7.11 0 0 0-.56.53c-.17.18-.37.35-.55.57s-.38.38-.56.6l-.52.61-.51.65-.5.62v.06-.06l-.5-.62-.51-.65-.52-.61c-.18-.22-.38-.39-.56-.6s-.38-.39-.55-.57a7.11 7.11 0 0 0-.56-.53c-.17-.18-.39-.34-.59-.52s-.42-.3-.61-.47-.41-.27-.63-.43a7.37 7.37 0 0 0-.66-.43l-.67-.38-.7-.34-.71-.3-.74-.28-.73-.26-.76-.24-.76-.25h.71zM903.48 381.91h.3c.19 0 .38 0 .58.07l.28.07.29.09.29.1.27.14.28.15.27.17a2.43 2.43 0 0 0 .25.2c.08.08.17.14.24.22a2.61 2.61 0 0 1 .24.23l.22.23.19.23.19-.23c.06-.08.14-.15.21-.23l.24-.23.25-.22.25-.2a1.78 1.78 0 0 1 .27-.17 1.82 1.82 0 0 1 .27-.15l.28-.14.28-.1.29-.09.29-.05c.2 0 .4-.06.59-.07h.57l-.28.1-.28.09-.27.1-.27.11-.26.11-.26.13-.25.15-.24.16-.23.17c-.07.06-.15.11-.22.18a1.42 1.42 0 0 0-.22.2 1.34 1.34 0 0 0-.21.2c-.06.07-.14.13-.2.21s-.14.15-.21.23l-.19.24-.19.25-.18.23-.18-.23-.19-.25-.19-.24a2.2 2.2 0 0 1-.2-.23c-.07-.08-.14-.14-.21-.21l-.2-.2-.22-.2a2 2 0 0 0-.23-.18l-.23-.17-.24-.16-.25-.15-.26-.13-.26-.11-.27-.11-.27-.1-.28-.09-.28-.1zM894.28 378.67h.3c.19 0 .38 0 .58.07l.28.07.29.09.29.11.27.13.28.15.27.18.25.2a2.41 2.41 0 0 1 .24.21l.24.23.22.24.19.23.19-.23c.06-.08.14-.16.21-.24l.24-.23a2.52 2.52 0 0 1 .25-.21 2.43 2.43 0 0 1 .25-.2l.27-.18.27-.15.28-.13.28-.11.29-.09.28-.07c.2 0 .4-.06.59-.07H901.95l-.28.09-.28.1-.27.09-.27.11-.26.12-.26.13-.25.14-.24.16a2.68 2.68 0 0 1-.23.17c-.07.07-.15.12-.22.18a2.19 2.19 0 0 0-.22.2 2 2 0 0 0-.21.2c-.06.07-.14.14-.2.22l-.21.23-.19.23-.19.25-.18.24-.18-.24-.19-.25-.19-.23c-.07-.08-.14-.15-.2-.23l-.21-.22-.2-.2-.22-.2-.23-.18a2.68 2.68 0 0 1-.23-.17l-.24-.16-.25-.14-.26-.13-.26-.12-.27-.11-.27-.09-.28-.1-.28-.09z"/></g></g><g><path fill="#68c1c1" d="M0 471h1024v87H0z" data-name="3rd"/><path fill="#6ac9cd" d="M0 483h1024v75H0z"/><path fill="#8fd5cd" d="M0 496h1024v62H0z" opacity=".75"/><path fill="#83ccd2" d="M1024 511c-134.59 7.74-223.27 6.46-281 3.5-17-.87-64.4-3.59-129-3-51.37.47-86.39 2.78-109 4-106.95 5.71-146.55-2.19-329.56-5.75C134.79 509 74.3 508.12 0 508.5v62.91h1024z"/></g></svg>