<svg xmlns="http://www.w3.org/2000/svg" xmlns:xlink="http://www.w3.org/1999/xlink" viewBox="0 0 1024 748"><defs><symbol id="post_2" data-name="post 2" viewBox="0 0 95.31 282.43"><ellipse cx="54.81" cy="270.5" rx="40.5" ry="4.5" fill="#ecddc3"/><ellipse cx="41.31" cy="269.5" rx="35" ry="2.5" fill="#998675"/><path fill="#998675" d="M20.31 0h52v270h-52z"/><path fill="#ad9984" d="M20.31 0h27v270h-27z"/><path d="M20.31 0h15v120a6 6 0 0 1-6 6h-3a6 6 0 0 1-6-6V0z" fill="#c7b299"/><path d="M62.31 92h3a6 6 0 0 1 6 6v171h-15V98a6 6 0 0 1 6-6z" fill="#847263"/><path d="M4.78 255c1-1.14 4.11-4.9 8.53-5s5.56 3.62 12 8c2.6 1.77 9.27 4.06 22.59 8.64 1.71.59 5.28 1.93 10.35 3.63 1.91.64 4.3 1.5 7.56 2.79 14 5.54 13.73 6.85 13.4 7.28-.45.61-2.4 1.41-11 1.21-8.29-.11-15.69 0-22.06.08s-11.87.25-16.21.4c-15.32.51-20.83 1.08-25.39-2.1C-2 275.34-1 261.89 4.78 255z" fill="#ffeccb"/><path d="M72.32 110.7l-53-10.3a5 5 0 0 1-4-5.86 5 5 0 0 1 5.87-4l53 10.31a5 5 0 0 1 4 5.86 5 5 0 0 1-5.87 3.99z" fill="#e3d5ba"/><path d="M46.79 105.74l-27.48-5.34a5 5 0 0 1-4-5.86 5 5 0 0 1 5.87-4l27.52 5.39a5 5 0 0 1 4 5.86 5 5 0 0 1-5.91 3.95z" fill="#f3e7cd"/><path d="M71.4 99.15L18.89 86.57a5 5 0 0 1-3.7-6 5 5 0 0 1 6-3.7l52.54 12.56a5 5 0 0 1 3.7 6 5 5 0 0 1-6.03 3.72z" fill="#e3d5ba"/><path d="M46.12 93.1l-27.23-6.53a5 5 0 0 1-3.7-6 5 5 0 0 1 6-3.7l27.23 6.52a5 5 0 0 1 3.7 6 5 5 0 0 1-6 3.71z" fill="#f3e7cd"/></symbol><symbol id="kite1" data-name="kite1" viewBox="0 0 188.63 208.4"><path fill="#fffaf4" stroke="#87786e" stroke-miterlimit="10" stroke-width="2.675" d="M.43 82.87l187.76-64.53"/><path fill="#fffaf4" stroke="#87786e" stroke-miterlimit="10" stroke-width="2.555" d="M79.89.42l70.49 205.1"/><path fill="#c5f3ff" opacity=".8" d="M150.64 205.79l26.13-183.52-92.66-10.04-.17-.48-.43.42-.6-.06.17.48-66.91 64.88L149.6 206.15l.69 2.01.18-1.19.86.83-.69-2.01z"/><path fill="#018b9d" d="M29.01 65.02L16.17 77.47l25.6 24.68-12.76-37.13z"/><path fill="#0fabc1" d="M60.65 120.36L84.13 143 50.25 44.42 38.48 55.84l22.17 64.52z"/><path fill="#53c8e9" d="M71.49 23.83L59.72 35.24l43.29 125.97 23.48 22.64-55-160.02z"/><path fill="#018b9d" stroke="#018b9d" stroke-width="1.525" d="M88.92 12.75l-4.81-.52-.17-.48-.43.42-.6-.06.17.48-2.13 2.06 64.41 187.41 4.24 4.09.69 2.01.18-1.19.86.83-.69-2.01 1.36-9.52L88.92 12.75z"/><path fill="#53c8e9" d="M155.69 170.31l4.6-32.29-41.96-122.08-16.3-1.77 53.66 156.14z"/><path fill="#0fabc1" d="M147.75 19.12l-16.31-1.76 32.55 94.69 4.6-32.29-20.84-60.64z"/><path fill="#018b9d" d="M160.86 20.55l11.42 33.24 4.49-31.52-15.91-1.72z"/></symbol></defs><g id="qtNoBF"><g id="sky" fill="#93c9c7"><g id="birds-3" data-name="birds"><path d="M401.92 90h-1a19 19 0 0 0-2.08.25c-.33.06-.68.16-1 .22l-1 .31-1 .37c-.32.15-.67.3-1 .46a10.11 10.11 0 0 0-1 .51c-.33.2-.66.4-1 .61s-.59.43-.89.69a10.48 10.48 0 0 0-.87.73c-.31.26-.58.52-.85.79s-.54.54-.78.82l-.67.78-.68-.78c-.23-.28-.5-.55-.77-.82s-.54-.53-.85-.79a10.48 10.48 0 0 0-.87-.73c-.31-.26-.59-.43-.9-.69s-.62-.41-.95-.61a10.11 10.11 0 0 0-1-.51c-.32-.16-.68-.31-1-.46l-1-.37-1-.31c-.34-.06-.68-.16-1-.22a19.3 19.3 0 0 0-2.08-.25h-2l1 .32 1 .33 1 .33 1 .38.94.39.91.45.88.5c.29.17.57.34.87.55l.82.57c.26.23.54.4.8.62s.56.44.78.68a9.87 9.87 0 0 1 .74.69c.22.24.48.47.72.75s.49.51.72.79l.7.8.66.86.65.8.65-.8.67-.86.69-.8c.24-.28.49-.51.73-.79s.49-.51.72-.75a9.87 9.87 0 0 1 .74-.69c.22-.24.51-.45.77-.68s.55-.39.8-.62.54-.36.83-.57.58-.38.86-.55l.89-.5.91-.45c.31-.12.63-.27.93-.39l1-.38 1-.33 1-.33c.35-.1.65-.21 1-.32h-1.14zM409.41 103h-.38a6.56 6.56 0 0 0-.76.09c-.13 0-.25.06-.38.09l-.38.11-.37.14-.36.18a3.24 3.24 0 0 0-.36.2l-.35.23c-.12.1-.22.16-.33.26s-.22.18-.32.28-.22.2-.32.3a4 4 0 0 0-.28.32l-.25.3-.25-.3c-.09-.11-.19-.21-.29-.32s-.19-.2-.31-.3-.21-.18-.32-.28-.22-.16-.33-.26l-.35-.23a3.24 3.24 0 0 0-.36-.2l-.37-.18-.37-.14-.38-.11-.37-.09a7.12 7.12 0 0 0-.76-.09h-.76l.37.13.36.12.36.13.36.14.34.15.34.17.32.19a3.05 3.05 0 0 1 .32.22l.31.21c.09.09.2.15.29.24l.29.26c.09.09.19.17.27.26s.18.18.26.29.19.19.27.3l.26.31.24.32.24.31.23-.31.25-.32.26-.31c.08-.11.18-.19.26-.3s.19-.19.27-.29.18-.17.27-.26a3.79 3.79 0 0 1 .29-.26c.09-.09.2-.15.29-.24l.31-.21c.11-.09.21-.15.31-.22l.33-.19.34-.17.34-.15.36-.14.35-.13.37-.12.37-.13zM421.49 98.76h-.38a7 7 0 0 0-.77.09L420 99l-.38.12-.37.14-.37.17a3.24 3.24 0 0 0-.36.2l-.35.23c-.11.1-.22.17-.33.26s-.22.18-.32.29-.21.2-.31.3-.2.2-.29.31l-.25.3-.25-.3a2.7 2.7 0 0 0-.28-.31c-.1-.1-.2-.21-.31-.3a3.11 3.11 0 0 0-.33-.29l-.33-.26c-.1-.08-.23-.15-.35-.23a3.24 3.24 0 0 0-.36-.2l-.36-.17-.37-.14-.38-.12c-.13 0-.25-.06-.38-.09a6.56 6.56 0 0 0-.76-.09h-.76l.37.12.37.12.35.13.36.15.34.15.34.17.33.19a2.82 2.82 0 0 1 .31.21l.31.22.29.23a3.79 3.79 0 0 1 .29.26 3.44 3.44 0 0 1 .27.27l.27.28a3.85 3.85 0 0 0 .27.3l.25.31.25.33.24.31.24-.31.24-.33.26-.31.27-.3c.08-.1.18-.19.26-.28s.18-.18.27-.27l.29-.26.3-.23.3-.22a2.92 2.92 0 0 1 .32-.21l.32-.19.34-.17.34-.15.36-.15.36-.13.36-.12.37-.12z"/></g><g id="birds-4" data-name="birds"><path d="M909.19 372h.79a12.69 12.69 0 0 1 1.59.18c.25.05.51.13.76.17l.79.24.77.28.76.35c.24.12.48.24.73.39a6.54 6.54 0 0 1 .73.47c.24.19.45.32.69.52s.45.35.66.56a7.31 7.31 0 0 1 .64.6c.21.2.42.41.6.62l.51.6.51-.6c.18-.21.39-.42.6-.62a7.31 7.31 0 0 1 .64-.6c.21-.21.43-.37.66-.56s.45-.33.69-.52a6.54 6.54 0 0 1 .73-.47c.25-.15.49-.27.73-.39l.76-.35.77-.28.79-.24c.25 0 .51-.12.76-.17a12.69 12.69 0 0 1 1.59-.18H930l-.76.25-.76.24-.73.26-.74.28-.71.3-.7.34-.67.38a7.37 7.37 0 0 0-.66.43c-.22.16-.44.29-.63.43s-.41.3-.61.47-.42.34-.59.52a7.11 7.11 0 0 0-.56.53c-.17.18-.37.35-.55.57s-.38.38-.56.6l-.52.61-.51.65-.5.62v.06-.06l-.5-.62-.51-.65-.52-.61c-.18-.22-.38-.39-.56-.6s-.38-.39-.55-.57a7.11 7.11 0 0 0-.56-.53c-.17-.18-.39-.34-.59-.52s-.42-.3-.61-.47-.41-.27-.63-.43a7.37 7.37 0 0 0-.66-.43l-.67-.38-.7-.34-.71-.3-.74-.28-.73-.26-.76-.24-.76-.25h.71zM903.48 381.91h.3c.19 0 .38 0 .58.07l.28.07.29.09.29.1.27.14.28.15.27.17a2.43 2.43 0 0 0 .25.2c.08.08.17.14.24.22a2.61 2.61 0 0 1 .24.23l.22.23.19.23.19-.23c.06-.08.14-.15.21-.23l.24-.23.25-.22.25-.2a1.78 1.78 0 0 1 .27-.17 1.82 1.82 0 0 1 .27-.15l.28-.14.28-.1.29-.09.29-.05c.2 0 .4-.06.59-.07h.57l-.28.1-.28.09-.27.1-.27.11-.26.11-.26.13-.25.15-.24.16-.23.17c-.07.06-.15.11-.22.18a1.42 1.42 0 0 0-.22.2 1.34 1.34 0 0 0-.21.2c-.06.07-.14.13-.2.21s-.14.15-.21.23l-.19.24-.19.25-.18.23-.18-.23-.19-.25-.19-.24a2.2 2.2 0 0 1-.2-.23c-.07-.08-.14-.14-.21-.21l-.2-.2-.22-.2a2 2 0 0 0-.23-.18l-.23-.17-.24-.16-.25-.15-.26-.13-.26-.11-.27-.11-.27-.1-.28-.09-.28-.1zM894.28 378.67h.3c.19 0 .38 0 .58.07l.28.07.29.09.29.11.27.13.28.15.27.18.25.2a2.41 2.41 0 0 1 .24.21l.24.23.22.24.19.23.19-.23c.06-.08.14-.16.21-.24l.24-.23a2.52 2.52 0 0 1 .25-.21 2.43 2.43 0 0 1 .25-.2l.27-.18.27-.15.28-.13.28-.11.29-.09.28-.07c.2 0 .4-.06.59-.07H901.95l-.28.09-.28.1-.27.09-.27.11-.26.12-.26.13-.25.14-.24.16a2.68 2.68 0 0 1-.23.17c-.07.07-.15.12-.22.18a2.19 2.19 0 0 0-.22.2 2 2 0 0 0-.21.2c-.06.07-.14.14-.2.22l-.21.23-.19.23-.19.25-.18.24-.18-.24-.19-.25-.19-.23c-.07-.08-.14-.15-.2-.23l-.21-.22-.2-.2-.22-.2-.23-.18a2.68 2.68 0 0 1-.23-.17l-.24-.16-.25-.14-.26-.13-.26-.12-.27-.11-.27-.09-.28-.1-.28-.09z"/></g></g><g id="ocean-2" data-name="ocean"><path fill="#1b828f" d="M0 411h1024v4H0z"/><path fill="#4395a8" d="M0 415.12h1024V419H0z"/><path fill="#3fa1c4" d="M0 417.71h1024v7H0z"/></g><g id="lowTide-sand"><path fill="#e0d0bd" d="M0 486h1024v41H0z"/><path fill="#93c9c7" d="M0 421.5h1024v12H0z"/><path fill="#9baaa8" d="M0 428.5h1024v16H0z"/><path d="M1024 470.49H0v-28c56.58-1.33 142.17-2.73 247-2 87.73.6 96.69 2.06 185 3 136.45 1.45 181.24-1.32 342-2 58.39-.25 144.42-.28 250 1z" fill="#b7b7b7" fill-rule="evenodd"/><path d="M1024 473.49H0v-22c52.92 2.68 134.61 5.91 235 6 104.16.09 123.8-3.3 264-5 97.37-1.18 117.91.09 286 0 103.53-.06 187-.59 239-1z" fill="#bfbbb6" fill-rule="evenodd"/><path d="M793.23 463.76c-27.49 2.16-66.57 4.28-119.62 4.34 14.87 4.46 32.57.94 48 1.77 17.89 1 36.19.9 54.24 1.76 22.36 1.07 44.43-4.16 66.48-3.49 12 .37 23.94 2.8 36 3.66 7 .5 24.53 2.81 30.09-2.58-3.36-.73-8.34-1.76-14.4-2.8-44.67-7.68-78.68-4.42-100.79-2.66z" fill="#baddd9" fill-rule="evenodd"/><path d="M339.49 472.33c-58.16-2.13-63.56-2.64-95.51-3.43-37.73-.94-81.53-1.57-132-1.61 28.29-5.18 61.95-1.09 91.24-2.05 34-1.12 68.82-1.06 103.13-2.06 42.53-1.24 84.5 4.84 126.43 4.06 35.48-.66 34.77-3 68.4-4.25 82.09-3.12 157.11 6.68 156.8 10.5-.28 3.41-60.48 3.74-107 4-22.51.13-67.7.11-211.49-5.16z" fill="#9fccc9" fill-rule="evenodd"/><path d="M1024 494.49c-29.19 1-73.69 2.13-128 2-91-.22-108.79-3.78-211-6-67.24-1.46-143.24-3.11-241 0-44.32 1.41-78.61 3.34-138 3-51.86-.29-73.72-2-115-3-44.5-1-109.65-1.14-191 4v-24c29.46-2.45 77.09-5.65 136-6 83.66-.48 103.73 5.31 213 8 30.3.75 97.39 2.32 184 0 77-2.05 81.88-4.84 134-4 51.46.83 76 4 132 2 38-1.36 44.17-3.46 77-5a942.93 942.93 0 0 1 148 5z" fill="#d1c8bf" fill-rule="evenodd"/></g><g id="beach"><path d="M3 568.5v-57c11.33-.06 22.78-.08 34.08-.08 46.33 0 92.86.44 138.3 1.33 70.23 1.37 119.57 3.39 159.22 5 37.75 1.54 67.57 2.76 99.14 2.76 23 0 45.67-.64 71.42-2l9.57-.53c23.11-1.29 54.75-3.06 99.3-3.47 6.05-.06 12.19-.08 18.25-.08 51.64 0 90.68 2 107.34 2.91l3.23.17c29.89 1.53 62.61 2.31 97.23 2.31 54.22 0 115.07-1.89 180.92-5.64v54.32z" fill="#e0d0bd"/><path d="M37.08 508.41v6c46.3 0 92.81.44 138.25 1.33 70.19 1.37 119.52 3.39 159.15 5 37.78 1.54 67.63 2.76 99.26 2.76 23 0 45.77-.64 71.58-2l9.58-.53c23.08-1.29 54.68-3.05 99.16-3.46 6-.06 12.17-.08 18.22-.08 51.56 0 90.54 2 107.19 2.9l3.22.17c29.94 1.54 62.71 2.32 97.39 2.32 53.41 0 113.23-1.84 177.92-5.46v48.14H6v-51c10.36 0 20.79-.06 31.08-.06v-6m0 0q-17.89 0-37.08.09v63h1024V511c-74.54 4.29-135 5.81-183.92 5.81-39.41 0-71.32-1-97.08-2.31-15.32-.79-55.5-3.08-110.72-3.08q-8.88 0-18.28.08c-51.37.47-86.39 2.79-109 4-26.89 1.44-49.54 2-71.26 2-64.68 0-121.31-5.1-258.3-7.77-33.66-.65-80.92-1.33-138.36-1.33z" fill="#d3efe9"/><path d="M0 659h1024V517c-109.15-4.76-197.29-3.4-256.25-1.41C640.34 519.9 609.7 528.5 512.5 525c-34-1.23-58.93-3.61-68.59-4.48-55.76-5-72.77-2-156.91-5.52-87.58-3.62-91.92-7.77-165-10-52.53-1.61-95.16-.84-122 0z" fill="#edddc3"/><path d="M919.1 562.75c-78.1-1.75-122.88-9.86-167.76-14.52-79.53-8.25-68.94 3.44-259.52 7.31-25.14.52-47.85 1-68.48 1.35-54.43-15.67-98.79-25-125.2-27.58-13.87-1.34-28.84-2.26-28.84-2.26-20.15-1.15-37.29-1.15-63.28-1.6A1694.69 1694.69 0 0 1 0 509v57.49L.07 636H0v112h1024V560.85c-24.09 1.46-60.53 2.92-104.9 1.9z" fill="#ffeccb"/><ellipse cx="858.5" cy="546" rx="21.5" ry="5" fill="#dacab2"/><path transform="rotate(3 851.82 474.867)" fill="#998675" d="M841.87 402.42h19.79v144.89h-19.79z"/><path transform="rotate(3 847.036 474.61)" fill="#ad9984" d="M841.88 402.17h10.28v144.89h-10.28z"/><path d="M856.37 462.29h1a2.34 2.34 0 0 1 2.34 2.34v82.44H854v-82.43a2.34 2.34 0 0 1 2.37-2.35z" transform="rotate(3 856.805 504.735)" fill="#87786e"/><use id="post_2-3" data-name="post 2" width="95.31" height="282.43" transform="translate(186.69 306)" xlink:href="#post_2"/></g><g id="Layer_12" data-name="Layer 12"><ellipse id="shadow" cx="291.13" cy="577.03" rx="14.5" ry="1" fill="#ecddc3"/><g id="Layer_63" data-name="Layer 63"><path fill="#1b828f" stroke="#29a2a1" stroke-linecap="round" stroke-miterlimit="10" d="M418.13 366.53h18"/><path id="_Path_" data-name="&lt;Path&gt;" d="M333.17 395.88a624 624 0 0 0 93.44-29.08 351.31 351.31 0 0 0-56.48 16.2 213 213 0 0 1-34.13 9.83l-3.25 1.92a.62.62 0 0 0 .42 1.13z" fill="#1b828f"/><path id="_Path_2" data-name="&lt;Path&gt;" d="M361.63 387c.44-2.15 1.25-3 1.94-3.4a2.84 2.84 0 0 0 1.22-1c.26-.46.36-1.25-.09-1.52a23.55 23.55 0 0 0 5.08-3.15 6.38 6.38 0 0 0 1.92-2.25 3 3 0 0 0-.55-3 14.54 14.54 0 0 0 3.25-1.68 4.91 4.91 0 0 0 2-3.05 3.11 3.11 0 0 0-1.73-3.08 11.85 11.85 0 0 0 2.66-1.34 4 4 0 0 0 1.66-2.41 2.22 2.22 0 0 0-.94-2.48l3.83-1.68c.53-.24 1.14-.56 1.26-1.13a1.29 1.29 0 0 0-1.15-1.38 6.64 6.64 0 0 0-2.65-.15 62.15 62.15 0 0 1 23.09-5.91c6.12-.34 12.49.29 17.86 3.25s9.54 8.63 9.42 14.76z" fill="#ffd576"/><path fill="none" stroke="#efb652" stroke-linecap="round" stroke-miterlimit="10" stroke-width=".5" d="M364.85 381.02l52.28-14.49M371.5 372.53l45.56-6.4M375.2 365.16l41.88-2.93M378.13 358.53l37-1"/><path id="_Path_3" data-name="&lt;Path&gt;" d="M414.77 367.61a7.78 7.78 0 0 0 .71-7.44c-2.65-5.25-12.2-6.2-17.26-7-4.17-.7-8.37-1.12-12.58-1.43a62.47 62.47 0 0 1 16.74-3.31c6.12-.34 12.49.29 17.86 3.25s9.54 8.63 9.42 14.76c-6.53 2-13.09 4-19.66 6a17.36 17.36 0 0 0 4.77-4.83z" fill="#29a2a1"/><g id="_Group_" data-name="&lt;Group&gt;"><path id="_Path_4" data-name="&lt;Path&gt;" d="M380.32 354.22a2.22 2.22 0 0 0-1 .08 62.15 62.15 0 0 1 23.09-5.91c6.12-.34 12.49.29 17.86 3.25.31.17.61.35.91.53a117.3 117.3 0 0 0-40.86 2.05z" fill="#1b828f"/></g></g><path d="M785.66 304.28l15.2-4.66a18.17 18.17 0 0 1-9-4.13 18.73 18.73 0 0 1-6.22-12v20.77z" fill="#ffeccb"/><path d="M809.12 336.67c-3.69-5.16-10.23-16.07-9.24-29.87a40.27 40.27 0 0 1 1.15-7l-.09-.09-.08-.09-15.2 4.66z" fill="#ffda91"/><path d="M785.63 304.23l-.39-.54.39.54v-20.77l-.48-.5a40.8 40.8 0 0 1-4.8 18.6 39.74 39.74 0 0 1-6.24 8.61z" fill="#ffc95f"/><path d="M785.66 304.28l-7.57 3.29-4 2.59q3.66 2 7.43 4.34a139.3 139.3 0 0 1 27.79 23l-.18-.82z" fill="#efb652"/><path d="M798 305.79a1.13 1.13 0 0 0 0-2.25 1.13 1.13 0 0 0 0 2.25zM797.33 310.4a1.13 1.13 0 0 0 0-2.25 1.13 1.13 0 0 0 0 2.25zM798.28 315.36a1.13 1.13 0 0 0 0-2.25 1.13 1.13 0 0 0 0 2.25z" fill="#fff"/><g id="Layer_64" data-name="Layer 64"><path d="M706.57 54.88A316.91 316.91 0 0 0 687.05 144c1.59-5.15 12.82-39.78 39.89-45.83a37.51 37.51 0 0 1 10.18-.85z" fill="#3d6d84" stroke="#ff0" stroke-width=".038"/><path d="M716.75 71l17 25.46a28.16 28.16 0 0 0-7.64 0 30.78 30.78 0 0 0-17 8.49c2.4-2.66 8.87-10.54 9.34-22.07a33.34 33.34 0 0 0-1.7-11.88z" fill="#487e93"/><path d="M737.12 97.32c.35-7 2.64-11.28 4.25-13.58 9.79-14 34.2-13.23 49.22-12.73 4.78.15 8.65.56 11 .85a222.2 222.2 0 0 0-95.06-17z" fill="#408ba2" stroke="#2b525c" stroke-width=".038"/><path d="M706.57 54.88l11.88 17a11.32 11.32 0 0 0-7.64-.85c-2.81.8-5 3-10.6 13.39-1.76 3.3-4 7.66-6.37 12.92 2.17-8.72 4.69-17.79 7.63-27.16q2.48-7.89 5.1-15.3z" fill="#53c8e9" stroke="#ff0" stroke-width=".038"/><path d="M718.45 71.86c.81-4.76 2.72-7.17 4.24-8.49 4.55-3.93 10.28-2.1 23.45-4.41 3.07-.54 5.55-1.13 7.11-1.53a143.66 143.66 0 0 0-46.68-2.55z" fill="#69e1f4" stroke="#ff0" stroke-width=".038"/><path d="M733.62 90.93A29.05 29.05 0 0 1 738.55 79c10.21-14.09 34.14-17.22 60-8.48" fill="none" stroke="#69e1f4" stroke-width=".43"/><path d="M731.92 89.23A28.26 28.26 0 0 1 737 77.35c8.81-11.73 27.51-15.76 48.82-11.51" fill="none" stroke="#69e1f4" stroke-width=".437"/><path fill="#39506b" opacity=".5" d="M706.57 54.88l27.16 41.59 3.39.85.17-2.13-30.72-40.31z"/></g><g id="Layer_65" data-name="Layer 65"><path d="M559.13 338.27l-13-4.49q1.26-7.38 2.54-14.75l15.33 5.13z" fill="#d15443"/><path d="M563.84 324.11L548.63 319l7.87-15.23 12.68 4.37z" fill="#e86349"/><path fill="#993c37" d="M568.63 310.03l-4 14h-1l5-14z"/><path fill="#823a38" d="M564.63 324.03l-5 13 4-13h1z"/><path d="M541.26 330.27l-12.17-4.19 2.37-13.76 14.33 4.79z" fill="#dda243"/><path d="M545.65 317.06l-14.19-4.74 7.34-14.2 11.83 4.07z" fill="#ffc95f"/><path fill="#c6944a" d="M550.12 303.93l-3.74 13.06h-.93l4.67-13.06zM546.38 316.99l-4.66 12.13 3.73-12.13h.93z"/><path fill="#3d6d84" d="M532.73 299.14l-3.28 11.47h-.82l4.1-11.47zM529.45 310.61l-4.1 10.65 3.28-10.65h.82z"/><path d="M525 322.27l-10.69-3.68q1-6 2.08-12.08l12.59 4.2z" fill="#55a4c5"/><path d="M528.81 310.67l-12.47-4.16 6.45-12.51 10.39 3.58z" fill="#4ec8d8"/></g><g id="seagull"><path fill="#823a38" stroke="#823a38" stroke-linecap="round" stroke-miterlimit="10" stroke-width="4.022" d="M226.66 302.95l6.11-22.99"/><ellipse cx="229.52" cy="291.93" rx="1.63" ry="2.45" fill="#823a38" stroke="#823a38" stroke-miterlimit="10" stroke-width="2"/><ellipse cx="244.22" cy="290.7" rx="1.63" ry="2.45" fill="#823a38" stroke="#823a38" stroke-miterlimit="10" stroke-width="2"/><path fill="#823a38" stroke="#823a38" stroke-miterlimit="10" stroke-width="2.45" d="M243.81 276v17.15"/><path fill="#823a38" stroke="#823a38" stroke-miterlimit="10" stroke-width="3.071" d="M243.81 305.4v-13.47"/><path d="M237.6 221.85c.72 1.77 2.6 7 0 10-1.43 1.64-3.54 1.85-7.84 2.49-3.33.49-8.25 1.28-14.38 2.49a41.33 41.33 0 0 1-2.62-5c-1.92-4.37-4.46-10.13-2.61-16.2a13 13 0 0 1 2.61-5c4.85-5.58 16.37-8.2 22.22-2.49 5.11 4.99 2.76 13.24 2.62 13.71z" fill="#e6e6e6"/><path d="M216.69 234.07a48.42 48.42 0 0 0-4.83 8.46 46 46 0 0 0-3 9.11c-.7 3.12-.68 6.29-1.13 9.41l-.55 4.76c-.18 1.61-.35 3.24-.64 4.94l-.37.06a19.16 19.16 0 0 1-1.67-4.86 27.19 27.19 0 0 1-.58-5.09 21.84 21.84 0 0 1 .56-5.1q.62-2.5 1.43-4.93a47 47 0 0 1 1.85-4.74 45.29 45.29 0 0 1 2.4-4.45 43.08 43.08 0 0 1 6.23-7.82z" fill="#163251"/><path d="M240.16 233.74a15.56 15.56 0 0 1 8.73 3.67c1.19 1 4.08 3.88 6.54 13.48a74.29 74.29 0 0 1 2.18 22.05" fill="#163251" stroke="#163251" stroke-linecap="round" stroke-miterlimit="10" stroke-width="1.565"/><path d="M224.93 225.31c-9.09 2.29-13.84 16.93-15.47 21.95-1.24 3.83-6.32 19.48-1.93 30.18 8.27 20.16 46.19 13 50.26-4.12 1.71-7.21-2.75-15.47-7.74-24.69-4.69-8.69-14.05-26.1-25.12-23.32z" fill="#e6e6e6"/><path d="M235.75 229a79.7 79.7 0 0 1-3.46 16.67c-2.81 8.67-5.1 10.46-6.44 16.8s-1.59 17.63 3.07 22.95c7.4 8.47 25.84.52 28.79-12.68 1.63-7.35-1.9-14.65-5.71-22.53A63.18 63.18 0 0 0 235.75 229z" fill="#d7d9db"/><path d="M256.93 265.28a5.26 5.26 0 0 1-.35 2.87c-1.45 3.07-6.11 2.39-9.53 3-9 1.59-8.69 12-17.05 14.47s-18.93-4.52-22.49-13.35a20.52 20.52 0 0 1-.81-2.49 26.22 26.22 0 0 0 1.69 8.69c8.07 20.16 45.09 13 49.06-4.11a18.19 18.19 0 0 0-.52-9.08z" fill="#c0c2c4"/><path d="M215.61 233.91a12.69 12.69 0 0 0 3.12.88c3.67.52 6.14-.92 6.78.17.42.7-.2 2-.52 2.59a80.3 80.3 0 0 1-7.86 12.38c-8.76 10.43-9.19 19.91-10.74 19.55-2.09-.5.47-17.33 3.38-24.27 1.28-3.05 2.9-6.16 2.9-6.16 1.11-2.05 2.13-3.84 2.94-5.14z" fill="#f2f2f2"/><path d="M220.57 235.58c-6.57-1.42-10.41-8.16-8.53-15l.85-3.1c1.88-6.82 8.8-11.23 15.37-9.81 6.57 1.42 10.41 8.16 8.53 15l-.86 3.1c-1.88 6.81-8.79 11.23-15.36 9.81z" fill="#f2f2f2"/><path d="M214.29 214.07c-.4-2.85 3.19-5.07 5.93-5.7 3.69-.84 8.87.53 10.06 3.46.75 1.86-.85 2.61-1.54 7.15-.85 5.63.52 9.15-.64 9.55s-2.51-2.52-6.91-7.23-6.62-5.17-6.9-7.23z" fill="#fff" opacity=".5"/><ellipse cx="222.14" cy="222.04" rx="3.56" ry="3.83" transform="rotate(-75.54 222.15 222.042)" fill="#163251"/><circle cx="222.51" cy="221.34" r="2.67" transform="rotate(-15.68 222.565 221.385)" fill="#2b525c"/><circle cx="220.31" cy="220.1" r=".89" transform="rotate(-15.68 220.366 220.157)" fill="#fff"/><ellipse cx="220.31" cy="225.77" rx=".92" ry="3.49" transform="rotate(-68.58 220.306 225.774)" fill="#f2f2f2"/><path d="M239.52 227.61a84 84 0 0 1 10.57 21.08c6.79 20.34.25 27.7 3.4 54.35 2.6 22.06 8.12 25.77 7.64 45.86a109.77 109.77 0 0 1-3.4 24.63" fill="none" stroke="#fff" stroke-miterlimit="10" stroke-width="2.45"/><path d="M236.8 229.22c-2.24-.61-3.51-.33-5.58-1.52a10.83 10.83 0 0 1-1.64-1.2 6.94 6.94 0 0 0 1.44 3.31c1.15 1.27 2.17.67 5.44 1.19 3.9.62 5.21 1.92 5.44 1.19a1.18 1.18 0 0 0 0-.56 17.25 17.25 0 0 0-5.1-2.41z" fill="#e08626"/><path d="M236.93 229.81a17.87 17.87 0 0 1 5 1.82c-.2-1.18-1.89-3.67-4-5.72-.94-.92-4.11-3.76-6.35-3.11a2.75 2.75 0 0 0-1.92 2.28 12.48 12.48 0 0 0 .06 1.5c.05.5.12.92.18 1.22a10.28 10.28 0 0 0 1.58.93c1.97.91 3.25.65 5.45 1.08z" fill="#534741"/><path d="M235.23 229.45a58.71 58.71 0 0 0-11 22.05c-2.49 10-1.09 16.48-1.23 26.95a118.44 118.44 0 0 1-6.14 35.55" fill="none" stroke="#fff" stroke-linecap="round" stroke-miterlimit="10" stroke-width="2.45"/><path d="M241.55 225.23a13.72 13.72 0 0 0-3.43-3.42c-1.73-1.18-3.41-2.33-5.51-2.06a5.67 5.67 0 0 0-3.33 1.77 2.75 2.75 0 0 0-.76 2.46 1.33 1.33 0 0 0 0 .28 2.84 2.84 0 0 0 .17.49c.11.35.25.76.4 1.15.22.58.44 1.07.59 1.41a11.91 11.91 0 0 0 1.94.89c2.35.83 3.57.36 6 .59a12.67 12.67 0 0 1 2.38.41c1.92.52 3 1.28 3.26 1.14 1.06-1.53-1.71-5.11-1.71-5.11z" fill="#e79b4c"/><ellipse cx="233.75" cy="224.79" rx="1.42" ry="3.59" transform="rotate(-68.91 233.763 224.794)" fill="#fbb03b"/><path d="M223 305.4c-.36-.46-.09-1.69 2.45-4.9h3.68c1.73 3.23 1.68 4.44 1.22 4.9s-1.26 0-3.67 0-3.33.47-3.68 0zM247.11 306.51c.25-.35-.12-1.28-2.48-3.72h-2.45c-1.14 2.46-1 3.37-.66 3.72s1 0 2.8 0 2.56.34 2.79 0z" fill="#823a38"/><path d="M206.79 436c-.09 4.13-.3 9.45-.83 15.64-.32 3.78-1 11.25-2.48 19.54-3.16 17.37-6.31 17.8-5.8 23.46 1.18 12.91 18.35 10.85 32.7 28.82 16.94 21.24 13.45 42.74 28.55 50.33 7.73 3.88 15.78 1.85 20.7 0" fill="none" stroke="#fff" stroke-linecap="round" stroke-miterlimit="10" stroke-width="1.799"/><path fill="#988675" d="M250.63 363.03h7v18h-7z"/><path fill="#ad9984" d="M205.83 434.03h6v46h-6z"/></g><use width="188.63" height="208.4" transform="translate(127.92 366.39)" xlink:href="#kite1"/></g></g></svg>