<svg xmlns="http://www.w3.org/2000/svg" viewBox="0 0 1024 748"><defs><clipPath id="a"><path fill="none" d="M892 497h132v52H892z"/></clipPath></defs><path fill="#36acbf" d="M0 538h1024v4H0z"/><path fill="#33c5dd" d="M0 539.12h1024V558H0z"/><path fill="#80d7e0" d="M0 540h1024v17H0z"/><path fill="#33c5dd" d="M0 559h1024v9H0z"/><path fill="#98e6ea" d="M0 551.71h1024V567H0z"/><path fill="#aeedeb" d="M0 556.71h1024V572H0z"/><g><path fill="#993c37" d="M942.49 502.03h1.36v3.32h-1.36z"/><path fill="#d15443" d="M938.7 502.03h3.79v3.32h-3.79z"/><path fill="#e86349" d="M937.17 502.03h1.61v3.32h-1.61z"/><path fill="none" stroke="#fff" stroke-miterlimit="10" stroke-width=".286" d="M938.67 502.76v3.23M942.49 502.76v3.23M945.71 502.76v3.23M935.22 503.39h3.45M938.65 503.39h3.84M942.49 503.39h3.28M942.49 504.38h3.28M938.68 504.37h3.83M935.22 504.37h3.45M935.22 502.76v3.23"/><path fill="#ebeef5" d="M943.51 534.5h-6l1-26.19h4.15q.41 13.09.85 26.19z"/><path fill="#fff" d="M937.5 534.5l-2.41-.45q.84-12.87 1.69-25.74h1.72l-1 26.19z"/><path fill="#cdd3df" d="M945.83 534.18l-2.32.32-.86-26.2 1.62.09z"/><path fill="#bdc2c9" d="M944.27 508.39h-1.62l-.07-2.4 3.34.15z"/><path fill="#dcdee2" d="M938.43 506.15h4.23v2.23h-4.23z"/><path fill="#ebeef5" d="M938.43 505.35h4.3v.81h-4.3z"/><path fill="#cdd3df" d="M942.66 505.35h3.26v.8h-3.26z"/><path fill="#fff" d="M935 505.35h3.5v.81H935z"/><path fill="#e6e6e6" d="M938.5 508.39l-1.75-.08-1.75-2.16h3.5z"/><path fill="#fff" d="M937.28 499.27h6.44v2.76h-6.44z"/><path fill="#e3d5ba" d="M942.28 499.43h1.23v2.6h-1.23z"/><path fill="#f9e3c7" d="M938.88 499.43h3.41v2.6h-3.41z"/><path fill="#fcf3dc" d="M937.5 499.43h1.45v2.6h-1.45z"/><path fill="none" stroke="#fff" stroke-miterlimit="10" stroke-width=".286" d="M938.96 502.03v-2.61"/><path fill="none" stroke="#fff" stroke-miterlimit="10" stroke-width=".291" d="M942.28 502.04v-2.7"/><path fill="#993c37" d="M942.12 498.85h1.73v.42h-1.73z"/><path fill="#d15443" d="M938.73 498.85h3.4v.42h-3.4z"/><path fill="#e86349" d="M937.17 498.85h1.63v.42h-1.63z"/><path fill="#993c37" d="M940.99 495.81h.51v1.1h-.51z"/><path fill="#d15443" d="M939.98 495.81h1.01v1.1h-1.01z"/><path fill="#e86349" d="M939.52 495.81h.48v1.1h-.48z"/><path fill="#cdd3df" d="M944.37 498.85h-2.32l-1.05-1.93h.52z"/><path fill="#ebeef5" d="M942.05 498.83h-3.25l1.19-1.91h1z"/><path fill="#fff" d="M938.8 498.83h-2l2.74-1.92h.46z"/><path fill="#ebeef5" d="M940.49 494.44l-.51 1.37h1.01l-.5-1.37z"/><path fill="#cdd3df" d="M940.49 494.44l.51 1.37h1z"/><path fill="#fff" d="M940.49 494.44l-1.49 1.37h1z"/><g clip-path="url(#a)"><path fill="#999" d="M940.26 535.23l7.51-.32 7.52.08 4-.28 5.71.09 2.88.43 1.69-.36 5.37-.24 4.82.33 4.63.13 5.7-.18 7.63.18 4.13-.09 8.52-.09h7.82l4.64-.2 2.14-.7c-.06-.83-.13-1.65-.19-2.48l-24 1.7-38.4.78-2.67-.12-5.27.43-10.33.22-8.1.4z"/><path fill="#999" d="M1024.81 529v2.91l-42.11 2.29-20.33-.44.33-.49 5.54-.78 5.46-.58 2.79-.41 31.08-1.06 4.08-.58z"/><path fill="#666" d="M1009.87 530.73l3.53-.18 2-.36c.14.85.28 1.7.43 2.55l-2.46-.16-1.84.29z"/><path fill="gray" d="M1015.43 530.19h9.45v2.1l-7.13.58-4.35-.29v-1.18l2.03-1.21z"/><path fill="#666" d="M996.93 530.5h2.12l1.74.05-1.31.98 2.01 1.72-2.16.09h-2.04l-.36-2.84z"/><path fill="#727272" d="M1005.45 530.94l-4.66-.39-1.32 1 2 1.72 2.53-.27 2.46.27-1.07-1.31z"/><path fill="gray" d="M1005.45 530.94l7.95-.39-1.47 1.61-.37.71-5.1.4-1.87-1.74.86-.59z"/><path fill="#757575" d="M977.36 532l-3.66.15c.67.56 1.33 1.13 2 1.7.55-.64 1.11-1.25 1.66-1.85z"/><path fill="gray" d="M973.7 532.13l2.42 1.83-4.12.18-3.76-.13v-.46l1.58-.64zM996.93 530.49l.06.3 3.06 1.15.1-.91 1.06-.44-2.74-.21z"/><path fill="#727272" d="M962.37 533.76v.25h5.88v-.46l-5.88.21z"/><path d="M1016.48 534.61c-5.2.87-11.19 1.68-17.9 2.3a278.12 278.12 0 0 1-41.87.62l-44.62 1.16a48.06 48.06 0 0 0-5.92.07c-1.08.08-2 .19-2.89.31-.23.28-.42.65 0 .92.59.39 2 .35 3.3.38 4.6.11 5.12 1.17 9 1.17 2.61 0 2.38-.5 5.54-.65s5 .3 8.71.65c3.84.36 3.52 0 10.09.27 9.22.38 10.38 1.1 15.07.65 3.32-.31 4.32-.54 6.09-.62a25.31 25.31 0 0 1 5.78.62s.78.13 10.83 1.23c7.9.87 8.65-.41 22.53-.14 1.54 0 8.13-.13 16.45-.78 3-.24 5.53-.49 7.22-.67v-9.51z" opacity=".1"/><path fill="gray" d="M963.7 532.97l-3.64 5.87-17.26.81-8.73-.17-4.79.17-8.78-.57-5.59.57-4.88-.57-4.15-.45-2.88.26 2.42-1.42 6.01-.32 5-3.47 4.74.55 9.2-.68 9.21.17 4.94-.59 7 .19 3.53.91 2.07-.76 6.58-.5z"/><path fill="#666" d="M944.52 533.13l1 6.4-4.1.14-1.8-5.95zM926.96 533.8l-4.17 3.48h-2.87l1.25-3.05 5.79-.43zM915.95 538.17l-5.92.91-4.15-.45 1.28-.8 8.79.34zM934.07 536.22l-5.53.17.74 3.26 4.79-.17v-3.26z"/><path fill="#666" d="M940.41 535.99l-6.34 3.49 8.73.17-2.39-3.66z"/><path fill="#999" d="M924.67 535.72l3.87.67 5.53-.17-4.21-.93-5.19.43zM922.79 537.28l-1.66.97h-3.92l-11.79-.78 6.01-.32 8.49.13h2.87z"/><path fill="gray" d="M956 536l-1.34 4.52h-6.08l-9.11-.57-1.15-3.54 2.1-.89z"/><path fill="#999" d="M965.3 534.08l-10.84.9-14.05.49 15.58.48 10.64-.93-1.33-.94z"/><path fill="#666" d="M964.26 535.02l-4.2 4.51-5.41.94 1.34-4.52 8.27-.93z"/><g><path fill="#666" d="M970.62 533.56l4.66.37 6.98-.37 4.35.37-9.85 4.96-7.06-1.99.92-3.34z"/><path fill="#666" d="M963.59 533l-1.44 1.88 1.44 1 8.82-2z"/><path fill="gray" d="M968.82 533.56l-4.56 1.34-4.2 3.94 12.38 1.9 4.32-1.85-3.59-1.74 1.06-2.25-3.61-1.34h-1.8z"/></g><path fill="gray" d="M982.26 533.56l-2.27 7.57 7.77-.39 4.04-6.81-9.54-.37z"/><path fill="#666" d="M997.22 532.97l-5.42.96-4.04 6.81 4.04-.15 4.87-6.85.55-.77z"/><path fill="gray" d="M1007.11 533.56l4.28 2.32 1.88 3.77v2.18l-13.01-.4-8.46-.84 4.87-6.85 10.44-.18zM1016.69 533.56l8.31-1.92-.23 8.01h-8.08v-6.09z"/><path fill="#666" d="M1020.49 532.46l-3.8 1.1h-9.58l4.28 2.32 1.88 3.77h6.23l.99-2.8-.99-2.77.99-1.62zM968.82 541.44l5.62.52h20.29c0-.12-.11-.52-.93-.87a7.16 7.16 0 0 0-2-.45l-7.38-3.5-5.29-1.86-6 3.34-2.55.45z"/><path fill="gray" d="M974.44 542l3.82-2.88-.8-1.93 2.38-1.61 5.34 2.4 2.91 3.16-1 .86z"/><path fill="#999" d="M979.84 535.54l-2.38 1.61-1.78 2.08-5.06-.15a37.57 37.57 0 0 0 4.24-1.49 22.31 22.31 0 0 0 3.73-2z"/><path fill="#c7b299" d="M1025 533.36v-1.72h-.12v-1.48h-.07V529l-13.16.86-4.08.58-5.78.2h-1.06l-2.26-.17-1.54.11v.31l-20.48.7-2.78.41-5.47.58-3.92.55-.62-.06h-.12l-6.46.49-2.07.76-3.53-.91-7-.19-4.94.59-9.21-.17-9.2.68-4.74-.55-5 3.47-6 .32-2.39 1.33 2.88-.26 4.15.45 4.88.57 5.59-.57 8.78.57 4.79-.17 5.29.11.1.31 9.11.57h6.08l5.41-.93.57-.61 9 1.39-.86 1.12 5.62.52h20.29c0-.12-.11-.52-.93-.87a7.16 7.16 0 0 0-2-.45l-.12-.06h.12l8.46.84 13 .4v-2.18h11.5l.16-5.62h.07z" opacity=".5"/></g></g><g data-name="birds"><g fill="#93c9c7" data-name="birds"><path d="M401.92 90h-1a19 19 0 0 0-2.08.25c-.33.06-.68.16-1 .22l-1 .31-1 .37c-.32.15-.67.3-1 .46a10.11 10.11 0 0 0-1 .51c-.33.2-.66.4-1 .61s-.59.43-.89.69a10.48 10.48 0 0 0-.87.73c-.31.26-.58.52-.85.79s-.54.54-.78.82l-.67.78-.68-.78c-.23-.28-.5-.55-.77-.82s-.54-.53-.85-.79a10.48 10.48 0 0 0-.87-.73c-.31-.26-.59-.43-.9-.69s-.62-.41-.95-.61a10.11 10.11 0 0 0-1-.51c-.32-.16-.68-.31-1-.46l-1-.37-1-.31c-.34-.06-.68-.16-1-.22a19.3 19.3 0 0 0-2.08-.25h-2l1 .32 1 .33 1 .33 1 .38.94.39.91.45.88.5c.29.17.57.34.87.55l.82.57c.26.23.54.4.8.62s.56.44.78.68a9.87 9.87 0 0 1 .74.69c.22.24.48.47.72.75s.49.51.72.79l.7.8.66.86.65.8.65-.8.67-.86.69-.8c.24-.28.49-.51.73-.79s.49-.51.72-.75a9.87 9.87 0 0 1 .74-.69c.22-.24.51-.45.77-.68s.55-.39.8-.62.54-.36.83-.57.58-.38.86-.55l.89-.5.91-.45c.31-.12.63-.27.93-.39l1-.38 1-.33 1-.33c.35-.1.65-.21 1-.32h-1.14zM409.41 103h-.38a6.56 6.56 0 0 0-.76.09c-.13 0-.25.06-.38.09l-.38.11-.37.14-.36.18a3.24 3.24 0 0 0-.36.2l-.35.23c-.12.1-.22.16-.33.26s-.22.18-.32.28-.22.2-.32.3a4 4 0 0 0-.28.32l-.25.3-.25-.3c-.09-.11-.19-.21-.29-.32s-.19-.2-.31-.3-.21-.18-.32-.28-.22-.16-.33-.26l-.35-.23a3.24 3.24 0 0 0-.36-.2l-.37-.18-.37-.14-.38-.11-.37-.09a7.12 7.12 0 0 0-.76-.09h-.76l.37.13.36.12.36.13.36.14.34.15.34.17.32.19a3.05 3.05 0 0 1 .32.22l.31.21c.09.09.2.15.29.24l.29.26c.09.09.19.17.27.26s.18.18.26.29.19.19.27.3l.26.31.24.32.24.31.23-.31.25-.32.26-.31c.08-.11.18-.19.26-.3s.19-.19.27-.29.18-.17.27-.26a3.79 3.79 0 0 1 .29-.26c.09-.09.2-.15.29-.24l.31-.21c.11-.09.21-.15.31-.22l.33-.19.34-.17.34-.15.36-.14.35-.13.37-.12.37-.13zM421.49 98.76h-.38a7 7 0 0 0-.77.09L420 99l-.38.12-.37.14-.37.17a3.24 3.24 0 0 0-.36.2l-.35.23c-.11.1-.22.17-.33.26s-.22.18-.32.29-.21.2-.31.3-.2.2-.29.31l-.25.3-.25-.3a2.7 2.7 0 0 0-.28-.31c-.1-.1-.2-.21-.31-.3a3.11 3.11 0 0 0-.33-.29l-.33-.26c-.1-.08-.23-.15-.35-.23a3.24 3.24 0 0 0-.36-.2l-.36-.17-.37-.14-.38-.12c-.13 0-.25-.06-.38-.09a6.56 6.56 0 0 0-.76-.09h-.76l.37.12.37.12.35.13.36.15.34.15.34.17.33.19a2.82 2.82 0 0 1 .31.21l.31.22.29.23a3.79 3.79 0 0 1 .29.26 3.44 3.44 0 0 1 .27.27l.27.28a3.85 3.85 0 0 0 .27.3l.25.31.25.33.24.31.24-.31.24-.33.26-.31.27-.3c.08-.1.18-.19.26-.28s.18-.18.27-.27l.29-.26.3-.23.3-.22a2.92 2.92 0 0 1 .32-.21l.32-.19.34-.17.34-.15.36-.15.36-.13.36-.12.37-.12z"/></g></g><g><path fill="#f9e3c7" d="M0 526.5a609.26 609.26 0 0 0 90 23.19c50.92 9 88.28 8.87 121 9.28 96.18 1.22 83 6.62 191 9.28 134.87 3.32 125.87-5.82 278-3.48 59.87.92 94.84 2.85 189 3.48 44.1.29 80.48.16 105 0h50V748H0z"/><path fill="#ead6c3" d="M89 550c8.1 2.24 20.6 5.46 36 8.33 45.43 8.49 63.76 4.29 131 6.28 41.77 1.23 42.18 3.11 103 5 83.35 2.66 131 1.3 201 1 120-.49 122 2.89 291 4 74.45.51 134.87.27 173 0v-12.02q-98.5-.8-197-1-75.5-.18-151 0l-173 2c-51.18.59-88.51-1-130-2-71.19-1.78-167.19-5.06-284-11.59z"/><path fill="#f4dfc3" d="M89 555c8.1 2.24 20.6 5.46 36 8.33 45.43 8.49 63.76 4.29 131 6.28 41.77 1.23 42.18 3.11 103 5 83.35 2.66 131 1.3 201 1 120-.49 122 2.89 291 4 74.45.51 134.87.27 173 0v-12.02q-98.5-.8-197-1c-25.76.67-65.27 1.61-114 2.42-35 .58-57 .94-87 1-54.47.11-83.07.17-123-1.4-29.54-1.17-53.94-2.78-95-2.6-18.27.08-31.73.49-35 .58-35.41.96-113.27-1.14-284-11.59z"/></g></svg>