<svg xmlns="http://www.w3.org/2000/svg" xmlns:xlink="http://www.w3.org/1999/xlink" viewBox="0 0 1024 748"><defs><clipPath id="b"><path fill="none" d="M501 475h524v273H501z"/></clipPath><clipPath id="c"><path fill="none" d="M481 551h544v197H481z"/></clipPath><symbol id="a" data-name="fencePost" viewBox="0 0 9.79 60.83"><path fill="#f2f2f2" d="M7.77 60.83L0 60.57 2.02 0l7.77.26-2.02 60.57z"/><path fill="#eae5df" d="M8.38 8.21c0 8-1.77 46-3 48.26-1 1.87-3.94 1.54-5.24-1.19L0 60.57l7.77.26L9.79.26 5.9.13s2.5.12 2.48 8.08z"/></symbol></defs><path fill="#eccca2" d="M.19 748c.67-57-.66-115 0-172 23.38-.62 54.58-1.5 88.21-2.8 112.46-4.35 140.67-8.09 170.87-16.42A385.47 385.47 0 0 0 337.52 526c23.69 16.27 59.08 36.5 105.07 48.11 115.64 29.22 220-15.81 223.6-4.11 2.17 7-37 18.87-93.58 58.79-48.35 34.13-75.48 59.71-92.14 94.71a180.8 180.8 0 0 0-9.55 24.5q-235.37.2-470.73 0z"/><path fill="#f9ddbd" d="M0 597.71c74.32-9.55 133-16.15 173.78-20.49 25.14-2.67 50.19-6.48 75.32-9.27 18.51-2.06 34.28-2.93 36.92-3.12 38.87-2.8 61.43-2.91 94-10.83 1.72-.42 3.12-.77 4-1a365.11 365.11 0 0 0-45.41-28.31C322 516 288 498.33 243 490.33c-16.59-2.95-37-5-51.68-6.51-48-4.87-52.61-2.52-80.76-6.51-16.92-2.39-34.65-6.27-76.45-18.08-8.42-2.38-19.91-5.67-33.61-9.73z"/><path fill="#f2d2a9" d="M398.23 599c-27.62 6-41.71 9.09-55.39 11.09-9.08 1.32-18.42 2.44-29.61 3.78-1 .12-22.75 2.71-35.85 4-33.06 3.12-38.41.17-63.15 2.18-14.19 1.15-41.21 3.35-69 15-23.23 9.69-31.82 19.79-52.23 34.44-19.7 14.13-49.7 32.06-92.75 46 .81-46.78-.8-93.56 0-140.33 50.84-38.24 95.07-46.36 123-47.14 49.22-1.37 73.67 19.58 136 29a363.85 363.85 0 0 0 124-3q16.72 5.57 34 11 21.81 6.86 43 13c-2.06 1.24-5.15 3-9 5-13.75 6.98-24.47 9.76-53.02 15.98z"/><path fill="#f6d7b0" d="M408.32 562c-5.34.81-13.31 1.93-23 3-51.07 5.64-92.66 3.41-151-2-117.47-10.9-115.13-17.48-130-10-38.71 19.47-54.51 43.81-95.18 58.42-1.78.64-4.91 1.73-8.93 2.88L0 441.33c42.61 14.82 74.26 25 84.2 27.94 9.8 2.87 18.8 5.26 18.8 5.26 3 .79 6.08 1.6 9.48 2.45 59.85 15 68.55 9.06 99 19.26 8.14 2.73 6.92 3.12 21.71 9.29 25 10.44 57.17 20 57.17 20 34.28 10.11 66.36 17 84 20.46z"/><g><path fill="#f2d2a9" d="M664 573.24c-15.5-.82-39.17 0-64.5 10.25-3.25 1.32-8 3.81-14.78 7.13 0 0-22.18 10.89-41.51 21.17-26.31 14-74.12 47.35-130.16 78.84-32.21 18.1-48.26 27.24-72.71 36.29a366.82 366.82 0 0 1-93.83 21.21l241-.37z"/><path fill="#f6d7b0" d="M1024 662.43c-6.29.89-140.7 19.61-226.1 25-34.57 2.17-53.53 2.76-53.53 2.76-29.36 1-48.7.81-77.27 1.86-8.54.31-16.25.67-23.24 1-16.5.87-29.39 1.79-35.44 2.24l-3.15.24c-45.1 3.47-176.45 22.71-180.27 8.76-2.68-9.81 59.29-29.9 101-59.29 15.58-11 22.5-19.14 38-22 6.87-1.27 15.69-1.54 20-8 3.52-5.27.52-9.41 3-16 2.69-7.13 9.63-11.33 24-16.93 17.84-6.94 26.93-9.35 39.83-12 48.59-9.89 94.31-1.58 205.09-3.69A1295.68 1295.68 0 0 0 1024 552c-1.11 36.81 1.11 73.62 0 110.43z"/><path fill="#f9ddbd" fill-rule="evenodd" d="M1024 748q-314.1-.11-628.21 0c2.74-8.26 5.47-16.74 8.21-25a117.14 117.14 0 0 1 62-53 330.13 330.13 0 0 1 34.72-9.47c7-1.53 12.86-2.58 16.85-3.25 0 0 14.72-2.65 29.83-4.68 67.42-9.06 143.6-.55 143.6-.55q37.05-1 71.5-3c21.62-1.22 17.58-.39 37.23-2.39 28.33-2.88 65-6.62 103.27-24.68 9.51-4.49 14.24-7.57 36-18a123 123 0 0 1 14.53-5.86c13.91-4.34 22.23.46 41.47 1.86a138.87 138.87 0 0 0 29-1z"/><path fill="#f9e3c7" fill-rule="evenodd" d="M119 748c-.69 0 35.79.54 84-12.61 9.31-2.54 10.51-3.28 21.28-6.4C260.94 718.35 285 715.87 313 711.2a794.22 794.22 0 0 0 121-29.87c22.78-7.65 54-19.48 55-17.34s-30 16.42-28 21.87c1.06 2.84 9.89-.3 21 4.36 7.78 3.26 16.1 9.66 18 16.37 3.63 12.81-10.52 32.2-38 41.41z"/></g><g><path fill="none" stroke="#ccc" stroke-miterlimit="10" stroke-width=".5" d="M377.5 524.5h-21l-37-16-23-7-25-10-22-8-36-16-23-4h-16l-20-2-19-2-15-3-13-2-14-4-9-1"/><path fill="none" stroke="#ccc" stroke-miterlimit="10" stroke-width=".5" d="M383 513l-13 1-51-24-18-10-29-13-17-9-39.5-9.5-25-4-17 3-20-2-18 1-16-6-14 2-12-3-10-2"/><use width="9.79" height="60.83" transform="matrix(1.1 .06 -.04 .87 89.48 432.51)" xlink:href="#a"/><path fill="#f6d7b0" d="M97 487l-11.5 1.5 1-12a12.36 12.36 0 0 0 9 5z"/><use width="9.79" height="60.83" transform="matrix(1.1 -.04 .03 .96 100.6 434.95)" xlink:href="#a"/><path fill="#f6d7b0" d="M113 495l-15 3 3.5-13.5a12.31 12.31 0 0 0 4 3 12.46 12.46 0 0 0 7 1z"/><use width="9.79" height="60.83" transform="matrix(1.1 -.08 .08 1.07 113.31 433.23)" xlink:href="#a"/><path fill="#f6d7b0" d="M128 501l-11 1v-12a6.94 6.94 0 0 0 3 4c3.28 2 6.83.09 7 0z"/><use width="9.79" height="60.83" transform="matrix(1.1 .04 -.04 .99 131.02 437.57)" xlink:href="#a"/><path fill="#f6d7b0" d="M140 499h-13l1-7a8.77 8.77 0 0 0 6 2 8.65 8.65 0 0 0 5-2c.33 2.33.67 4.67 1 7z"/><use width="9.79" height="60.83" transform="rotate(-4.22 5980.688 -1795.109) scale(1.1)" xlink:href="#a"/><path fill="#f6d7b0" d="M164 504l-16 3 2-14a37.79 37.79 0 0 0 13 5c.33 2 .67 4 1 6z"/><use width="9.79" height="60.83" transform="matrix(1.1 -.1 .1 1.05 167.64 438.4)" xlink:href="#a"/><path fill="#f6d7b0" d="M187 504l-16 3-1-14c.26.3 4.56 5.12 10 4a9 9 0 0 0 4-2z"/><use width="9.79" height="60.83" transform="rotate(-5.11 4963.008 -1855.823) scale(1.1)" xlink:href="#a"/><path fill="#f6d7b0" d="M201 501l-10 1c-.33-2.33-.67-4.67-1-7 .76.26 1.78.61 3 1 4.2 1.36 5.23 1.54 6 1a2.67 2.67 0 0 0 1-2c.33 2 .67 4 1 6z"/><use width="9.79" height="60.83" transform="matrix(1.1 0 0 1.1 210.13 439.05)" xlink:href="#a"/><path fill="#f6d7b0" d="M220 507h-12v-7a8.51 8.51 0 0 0 12 1z"/><use width="9.79" height="60.83" transform="matrix(1.09 .14 -.15 1.13 252.03 448.76)" xlink:href="#a"/><path fill="#f6d7b0" d="M252 522l-11-4 1-8c.69 1.44 2.35 4.51 5 6a5.88 5.88 0 0 0 6 0c-.33 2-.67 4-1 6z"/><use width="9.79" height="60.83" transform="matrix(1.1 0 0 1.19 266.34 453.89)" xlink:href="#a"/><path fill="#f6d7b0" d="M274.85 528L263 525l1.08-6a13.92 13.92 0 0 0 7.54 4 13.54 13.54 0 0 0 4.38 0c-.38 1.67-.77 3.33-1.15 5z"/><use width="9.79" height="60.83" transform="translate(295.63 466.88) scale(1.1)" xlink:href="#a"/><path fill="#f6d7b0" d="M305 536l-16 3 3-9a8.84 8.84 0 0 0 6 1 8.63 8.63 0 0 0 4-2z"/><use width="9.79" height="60.83" transform="matrix(1.1 -.1 .09 1.07 312.06 480.53)" xlink:href="#a"/><path fill="#f6d7b0" d="M329 545l-16 3 2-10c.72.27 1.75.63 3 1 3.67 1.09 5.53 1.62 7 1 .53-.22 2.1-1 3-4 .33 3 .67 6 1 9z"/><use width="9.79" height="60.83" transform="matrix(.84 .72 -.67 .78 372.09 501.64)" xlink:href="#a"/><path fill="#f6d7b0" d="M349.88 557H330l2-14a23.23 23.23 0 0 0 11 3 22.83 22.83 0 0 0 7-1z"/><use width="9.79" height="60.83" data-name="fencePost" transform="matrix(1.04 .38 -.35 .96 381.22 501.62)" xlink:href="#a"/><path fill="#f6d7b0" d="M369 564l-14-5a33.44 33.44 0 0 1 5-3c2.81-1.37 4.22-2.06 6-2 2.24.07 2.7 1.12 5 1s3.6-1.37 4-1-.42 2.56-6 10z"/></g><g><g clip-path="url(#b)"><path fill="#ccaf7d" d="M799.52 826.41s10.67-54.39 6.85-91.52-14.1-50.65-14.1-50.65 20.07 15.86 22.25 63.14-5.74 84.55-5.74 84.55-8.06 1.64-9.26-5.52zM857.91 760.47s4.05-46.05-2.13-62.67-2.62-46.94-2.62-46.94a91.5 91.5 0 0 0-5.36 34.72c1 18.82 4.85 36.8 1.48 54.87s-.11 30.28-.11 30.28z"/><path fill="#8da57a" d="M823 788.92s15.39-28.67 13-44.46 10.36-44.26 10.36-44.26-11.85 14.23-16.78 29.54.5 29.2-9.82 45.7l-1.85 16.78z"/><path fill="#64725b" d="M834.64 773.07s-3.2-23.85 16.58-45.4 41.53 3.75 41.53 3.75-19.46-13.93-34.47-3.53-15.91 43.46-15 55-8 11.51-8 11.51z"/><path fill="#dbd183" d="M833.91 778.1s-7.84-26.92-.65-45.66-2-50.48-2-50.48 10.63 18.1 9.21 34.28-6.61 31.32-3.85 40.91-2.71 20.95-2.71 20.95z"/><path fill="#8da57a" d="M803.24 704.89s4.22 7.53-3.64 30.75-21.22 32.85-20.72 33.36 3.49 3.48 5.58 2.91 24.77-33.22 26.61-49.76-7.83-17.26-7.83-17.26zM911.07 760.07s44.81-84.51 98.59-79.55c0 0-26.73 5.28-52.66 28.82a155.74 155.74 0 0 0-37.17 52.19s-9.46 8.88-8.76-1.46zM905.63 758.51s13.93-29.41 10.73-45 8.12-44.72 8.12-44.72-11.11 14.8-15.27 30.34 1.95 29.13-7.52 46.13l-1 16.85z"/><path fill="#ccaf7d" d="M900.68 762.06s28.8-47.36 38-83.53 4.26-52.4 4.26-52.4 13.35 21.82-.93 66.93-34.59 77.37-34.59 77.37-8.08-1.25-6.74-8.37z"/><path fill="#64725b" d="M923.49 755.75s15-18.81 44.27-19.42 26 32.6 26 32.6-3.4-23.69-21.29-27.35-42.4 18.56-50.14 27.21-13.87 2.15-13.87 2.15z"/><path fill="#dbd183" d="M919.35 758.7s14-24.28 32.54-32.05S987 690.31 987 690.31s-5.73 20.2-18.4 30.37-27.2 16.88-32.21 25.5-17.04 12.52-17.04 12.52z"/><path fill="#64725b" d="M987.86 738.54s-2.1-34.44-35.89-59.27S894.59 696 894.59 696s23.52-25 47.52-14.49 34.4 56.73 36.34 73.25 14.5 14 14.5 14z"/><path fill="#768e66" d="M990.62 776.22s-10.09-40.61-33-55.92-51.49 3-51.49 3 29.12-10.74 46.92 2.24 23.29 57.2 33.77 55.28 3.8-4.6 3.8-4.6z"/><path fill="#8da57a" d="M1040.38 708.68s-12.28 3.28-26.64 30.14-8.91 46.13-10 46.21-7.41.28-9.2-1.91 5.29-49.3 19.75-65.41 26.09-9.03 26.09-9.03z"/><path fill="#ccaf7d" d="M1026.86 761.86s17.17-136-50-174.6c0 0 27 28.25 38 77.23s.52 91.86.52 91.86 3.77 18.21 11.48 5.51zM970.28 701.57s19.63 13.78 24.1 42.35 2.77 37.47 2.34 40-8.86-.58-9.91-3.11 5.25-47.51-26.51-79.46z"/><path fill="#dbd183" d="M970.28 701.57s-7.92-8.44-18.85-.47-19.89 41.26-19.89 41.26 16.87-38.83 38.74-40.79zM1007.28 753.42s3.58-40-11.72-64.42-11.17-71.55-11.17-71.55-9.95 28.4-3.48 50.77 18 42.23 16.72 56.48 9.65 28.72 9.65 28.72z"/><path fill="#8da57a" d="M993 766.47S986 661 1028.18 633.1c0 0-17.27 21-25.29 58.56a216.19 216.19 0 0 0-2.71 70.88s-2.79 13.94-7.18 3.93z"/></g></g><g><g clip-path="url(#c)"><path fill="#f2f2f2" d="M651.73 770l5.13-98.36-76.08-6.46L575.31 770h76.42z"/><path fill="#e6e6e6" d="M651.16 770l5.14-98.74-56.95-4.84-5.4 103.58h57.21z"/><path fill="#eadcd6" d="M644.16 700.42c.33 11.42-1.26 39.22-4 69.58h11.55l5.13-98.36-38-3.23s24.44 2.23 25.32 32.01z"/><path fill="#f2f2f2" d="M787.64 770l18.75-130.76-74.64-13.19L711.11 770h76.53z"/><path fill="#e6e6e6" d="M787.07 770l18.81-131.18-55.88-9.88L729.77 770h57.3z"/><path fill="#eadcd6" d="M791.26 666.56c-1 15.72-8.42 62.31-17 103.44h13.36l18.75-130.76-37.31-6.6s24 4.36 22.2 33.92z"/><path fill="#f2f2f2" d="M919.11 770L930 580.41l-66.89-4.74L851.95 770h67.16z"/><path fill="#e6e6e6" d="M918.61 770l10.9-189.95-50.07-3.54L868.33 770h50.28z"/><path fill="#eadcd6" d="M918.57 608c.44 24.76-8.66 130.58-17.66 162h18.2L930 580.41 896.55 578s21.51 1.71 22.02 30z"/><path fill="none" stroke="#c7b299" stroke-linecap="round" stroke-miterlimit="10" stroke-width="4.666" d="M927.14 693.45L873.38 699l-18.18-9.58"/></g></g></svg>