<svg xmlns="http://www.w3.org/2000/svg" viewBox="0 0 1024 748"><g id="qtBF"><g id="qtBF-z2"><g id="ocean-2" data-name="ocean"><path id="waveOFF" fill="#fff" d="M0 484h1024v11H0z"/><path d="M1024 498v-6H0v13.25c32.37.67 114.15 2.61 86.09 4.63-33.05 2.38-64.58 2.41-86.09 2V515a463.82 463.82 0 0 0 76.66-2.22c72.27-7.92 100.06 1 177.27 3.25s25.32 2.82-22.86 5.93 3.1 1 58.69 2.83 1.85 2.54-88.95 3.39-148.23-4.81-148.23-4.81-28.26-1.54-52.58-3.7V522c11 1.05 27.77 2.46 51 3.87l11.15.67c-3.66.29-8.78.53-15.85.57-20.11.12-36.39-1.21-26.15 1.55S34 532.07 12.8 531L0 530.4v2.18c15 .71 49.34 2.1 44.38-.22-6.35-3-25.6-3.74 1.21-3.8 23.19 0 38 .24 42-.51 25.81 1.44 45.53 2.26 65.73 2.41 28.77.23 49.76 1 78 .11 87.29-2.9 92.16-.11 112.64 1.34s101.43 5 121.91 3.8 95.09-5.69 109-4.52a531 531 0 0 0 56.32 2.34c24.87-.33 110.32.42 161.89-2.34 15.81-.85 90.95-12.05 91-5.48 0 2.91-6.58 2.21 24.08 3 35 .93 54.74.37 39.38 2.16-12.23 1.43-16.47 2.88-7.32 3.89 11.83 1.32 51.33 1.59 83.75.7V534c-18 .1-35 .18-47.42.22-45.71.14-29-1.84-15.44-4.38s-69.79-2.41-64.85-4.53 84-.7 121.06-.7h6.65V522c-45.22.44-79.72.37-83.86-1.29-4.94-2-.61-8 46.32-10.74 11.5-.66 24.37-1.31 37.54-1.86v-2.34c-19.65 1.34-62.3 3.76-80.22.92-28.09-4.49 45.55-4.09 80.25-8.69zm-377.42.37s123.82-4.71 193.76-1.48c71.75 3.32 125.75 4.69 78.7 7-62.9 3.11-297.98-2.53-272.46-5.5zm80.09 11c32.89 5.19 41.7 6.86 3.66 6.94-32.51.08-111.52 3-165.09 4.69-18.47.59-37.18.62-55.69.1-41.91-1.2-116.31-3.69-119-6.43-3.71-3.81 93.22-13.67 137.5-15.34 73.18-2.78 165.73 4.83 198.62 10.02zm-13.16 11.91a361.81 361.81 0 0 1-52.66 4.24c-27.31 0-81.44-1.12-65.83-2.57s166.28-9.5 118.49-1.69zm-204.07 2.56c-33.6 1.29-50.78.12-59.29-1.09-3.6-.51-1.9-1.78 2.33-1.75 45.14.26 77.61 2 56.96 2.82zm-87.81-26.1c14.08-.09 69.61 2.76 11.67 4 0-.06-25.75-3.93-11.67-4.02zm-314.84 9.37c-11-.58 60.34-3 60.34-3-2.19 1.76 11 2.34 17.19 4.1s-66.56-.53-77.53-1.12zm82.4-1.49c-2.56-2.64 46.13-8.39 77.05-9.05 133.12-2.85 184.83 9.2 158.23 10s-118.28 3.43-133.35 2.92c0 0-99.36-1.25-101.93-3.89zm22.92 5c28.9-.25 64.74 2.77 100.94 1.68 36.5-1.1 85.94-3.43 75-.92s-46.81 4.93-81.55 4.6c-.03.02-123.28-5.12-94.39-5.38zm58 10.84a629 629 0 0 1 69.95-3.29c37.52.43 99.6 1.7 96.36 4.66s-214.92.51-166.28-1.39zM470.64 533c-56.82 2-163.06-4.9-142.64-7s91.41 1.48 137.73.21 79.68-2.54 79.68-2.54c87.68.05-17.94 7.39-74.77 9.33zm428-11.17c-51.88 1.07-47.3-1.23-90.1 5.46-25.19 3.94-246.38 6.11-219.52.51a55.68 55.68 0 0 1 11.88-.87c18.65.44 83.33 1.55 114.84-3.31 37.06-5.73 58.83-8.27 91.26-7.53s85.08-1.31 97 .11c19.79 2.38 46.13 4.61-5.32 5.67zm31.7-5.8c-4 2.07-36.33-4.91-63.64-3.12s-61.92.44-81.43.78-41-5.24-52.17-7.92 70.21 2.12 111.66 2.12c26.37 0 45.84-.73 56.51-1.25a140.33 140.33 0 0 1 26.58 1.09c19.57 2.97 6.31 6.36 2.53 8.34z" fill="#fff" opacity=".33"/><ellipse cx="648.7" cy="485.51" rx="34.7" ry="6.51" fill="#edf9f8"/><ellipse cx="745.1" cy="487.86" rx="34.7" ry="8.14" fill="#edf9f8"/><ellipse cx="824.15" cy="485.51" rx="30.85" ry="5.79" fill="#edf9f8"/><ellipse cx="702.69" cy="489.13" rx="53.98" ry="6.51" fill="#edf9f8"/><ellipse cx="779.81" cy="487.68" rx="34.7" ry="6.51" fill="#edf9f8"/><ellipse cx="589.21" cy="486.23" rx="45.79" ry="5.43" fill="#edf9f8"/><ellipse cx="462.01" cy="488.19" rx="45.79" ry="6.79" fill="#edf9f8"/><ellipse cx="357.7" cy="486.23" rx="40.7" ry="4.83" fill="#edf9f8"/><ellipse cx="517.98" cy="489.25" rx="71.23" ry="5.43" fill="#edf9f8"/><ellipse cx="416.22" cy="488.04" rx="45.79" ry="5.43" fill="#edf9f8"/><ellipse cx="118.22" cy="487.23" rx="45.22" ry="5.43" fill="#edf9f8"/><ellipse cx="243.82" cy="489.19" rx="45.22" ry="6.79" fill="#edf9f8"/><ellipse cx="346.81" cy="487.23" rx="40.19" ry="4.83" fill="#edf9f8"/><ellipse cx="188.55" cy="490.25" rx="70.34" ry="5.43" fill="#edf9f8"/><ellipse cx="289.03" cy="489.04" rx="45.22" ry="5.43" fill="#edf9f8"/><path d="M963.17 490.23c0 3.27 32.51 5.32 34.41 5.43 11.06.68 20.21.56 26.42.34l-.06-9.26a153.79 153.79 0 0 0-26.36-1.94c-15.49.2-34.41 2.8-34.41 5.43z" fill="#e2f7f7"/><ellipse cx="901.98" cy="492.19" rx="34.42" ry="6.79" fill="#e2f7f7"/><ellipse cx="823.59" cy="490.23" rx="30.59" ry="4.83" fill="#e2f7f7"/><ellipse cx="944.05" cy="493.25" rx="53.54" ry="5.43" fill="#e2f7f7"/><ellipse cx="867.57" cy="492.04" rx="34.42" ry="5.43" fill="#e2f7f7"/></g><g id="sand-2" data-name="sand"><path d="M1023 531c-134.59 7.75-223.27 6.47-281 3.5-17-.87-64.4-3.59-129-3-51.37.47-86.39 2.79-109 4-106.95 5.72-146.55-2.19-329.56-5.76C133.79 529 73.3 528.12-1 528.5v63h1024z" fill="#e2f7f7"/><path d="M1023 538.5c-134.59 7.75-223.27 6.5-281 3.5-17-.87-64.4-3.59-129-3-51.37.47-86.39 2.79-109 4-106.95 5.72-146.55-2.19-329.56-5.76C133.79 536.45 73.3 535.62-1 536v63h1024z" fill="#e0d0bd"/><path d="M0 635h1024v-80.65c-109.15-2.71-197.29-1.93-256.25-.8-127.41 2.45-158 7.33-255.25 5.34-34-.7-58.93-2-68.59-2.54-55.76-2.84-72.77-1.16-156.91-3.14-87.58-2.05-91.92-4.41-165-5.68-52.53-.91-95.16-.47-122 0z" fill="#edddc3"/></g><g id="crab"><ellipse cx="860.5" cy="566" rx="21.5" ry="5" fill="#dacab2"/><path d="M885.39 554c.35-10-7.25-18.36-16.6-19.06a18.31 18.31 0 0 0-18.79 13.9 9.23 9.23 0 0 0 2.28 7.24c1 1.06 2.52 1.62 5.5 2.74a36 36 0 0 0 8.06 2.39 31.73 31.73 0 0 0 8.48 0c3-.31 4.47-.45 6-1.28a11.24 11.24 0 0 0 5.07-5.93z" fill="#e86348"/><path d="M885.14 553.22a1.28 1.28 0 0 0-.14-.37c-1.45-2.68-6.32-3.57-8-3.8-4.56-.61-4.84.3-9.91 0-4.42-.3-4.87-1-8.72-.89-1.66.06-5.75.45-7.43 2.75a2.24 2.24 0 0 0-.22.4c-.86 2 .52 4.61 1.83 6 .76.81 1.72 1.44 5.51 2.62 1.91.59 4.48 1.3 7.59 1.93a46.28 46.28 0 0 0 8.31-.42c3.2-.46 4.92-.72 6.81-1.92s4.95-4.01 4.37-6.3z" fill="#bc453c"/><path d="M880.12 553.61a16.18 16.18 0 0 1 2.27 4.7 16 16 0 0 1 .42 7.19M855.81 552.37c-1.27 2-2.56 4.23-3.82 6.64-.88 1.68-1.67 3.32-2.38 4.89" fill="none" stroke="#e86348" stroke-linecap="round" stroke-miterlimit="10" stroke-width="3.668"/><path d="M873.48 560a6.41 6.41 0 0 1 .46 2.18 6.79 6.79 0 0 1-1.07 3.78M859.25 558.33l-2.31 4.3" fill="none" stroke="#e86348" stroke-linecap="round" stroke-miterlimit="10" stroke-width="3.403"/><circle cx="863.71" cy="534.99" r="2.54" fill="#fff" stroke="#fff" stroke-miterlimit="10" stroke-width=".306"/><circle cx="863.85" cy="533.91" r="1.15" fill="#4d4e4e"/><ellipse cx="863.65" cy="537.43" rx="1.2" ry="2.85" transform="rotate(-86.73 863.614 537.438)" fill="#e86348"/><path id="L_brow" data-name="L brow" d="M861.15 531.18a3.78 3.78 0 0 1 2-.71 3.88 3.88 0 0 1 2 .33" fill="none" stroke="#fff" stroke-linecap="round" stroke-miterlimit="10" stroke-width=".306"/><path id="L_brow-2" data-name="L brow" d="M879.12 533.79a3.78 3.78 0 0 0-1.7-1.25 4 4 0 0 0-2-.24" fill="none" stroke="#fff" stroke-linecap="round" stroke-miterlimit="10" stroke-width=".306"/><circle cx="875.76" cy="536.74" r="2.54" fill="#fff" stroke="#fff" stroke-miterlimit="10" stroke-width=".306"/><circle cx="875.93" cy="535.67" r="1.15" fill="#4d4e4e"/><ellipse cx="875.12" cy="539.09" rx="1.2" ry="2.85" transform="rotate(-76.76 875.137 539.094)" fill="#e86348"/><path d="M871.68 540.78a2.36 2.36 0 0 1-1.28 1.15 3.22 3.22 0 0 1-1.74.2 2.83 2.83 0 0 1-2.4-2.27v-.05a4.42 4.42 0 0 0 5.3.9h.06z" fill="#4d4e4e" id="mouth"/><path d="M897.3 530.39a5.9 5.9 0 0 1 2.48.09c1.1.32 2.34 1.11 2.23 1.64s-1.79.13-3.39 1.19c-1.22.8-2.33 2.43-1.92 3.48.57 1.45 4.16 1.94 6.2.51 1.66-1.15 1.79-3.19 2.2-3.1s.86 3-.34 5.43a8.68 8.68 0 0 1-6.63 4.61c-4.41.54-9.64-2.53-9.87-6.36s3.82-7.18 9.04-7.49z" fill="#e86348"/><path d="M878.16 548.26c1.78-1.29 3.8-2.63 6.05-3.94a73.93 73.93 0 0 1 7-3.6" fill="none" stroke="#e86348" stroke-linecap="round" stroke-miterlimit="10" stroke-width="3.403"/></g><g id="post"><path transform="rotate(3 853.872 494.876)" fill="#998675" d="M843.87 422.42h19.79v144.89h-19.79z"/><path transform="rotate(3 849.088 494.619)" fill="#ad9984" d="M843.88 422.17h10.28v144.89h-10.28z"/><path d="M858.37 482.29h1a2.34 2.34 0 0 1 2.34 2.34v82.44H856v-82.43a2.34 2.34 0 0 1 2.37-2.35z" transform="rotate(3 858.858 524.744)" fill="#87786e"/></g></g></g></svg>