<svg xmlns="http://www.w3.org/2000/svg" xmlns:xlink="http://www.w3.org/1999/xlink" id="Layer_1" viewBox="0 0 1024 748"><style>.st0{fill:#74cdd1}.st3{fill:#c2f2f2}.st4{fill:#b4e9ed}.st6{fill:#999}.st7{fill:#666}.st8{fill:gray}.st9{fill:#727272}.st12{fill:#993c37}.st13{fill:#d15443}.st14{fill:#e86349}.st15{fill:none;stroke:#fff;stroke-miterlimit:10}.st16{fill:#ebeef5}.st17{fill:#fff}.st18{fill:#cdd3df}.st26{fill:#93c9c7}</style><path d="M0 648.7h1024v41.7H0z" class="st0"/><path fill="#94dce0" d="M0 651h1024v96.2H0z"/><defs><path id="SVGID_1_" d="M735 537h289v210H735z"/></defs><clipPath id="SVGID_2_"><use overflow="visible" xlink:href="#SVGID_1_"/></clipPath><g clip-path="url(#SVGID_2_)"><path d="M842 689l9.7-.2 25.5-.4 36-.3 41.3-.1 41.3.1 36 .3c10.6.1 19.3.3 25.5.4l9.7.2-9.7.2c-6.2.1-14.9.3-25.5.4l-36 .3-41.3.1-41.3-.1-36-.3-25.5-.4-9.7-.2zM784.7 699.5l7.7-.2 20.2-.4 28.6-.3 32.8-.1 32.8.1 28.6.3 20.2.4 7.7.2-7.7.2-20.2.4-28.6.3-32.8.1-32.8-.1-28.6-.3-20.2-.4-7.7-.2zM873.9 709.9l10-.2 26.4-.4 37.4-.4 42.9-.1 42.9.1 37.4.3 26.4.4 10 .2-10 .2-26.4.4-37.4.3-42.9.1-42.9-.1-37.4-.3-26.4-.4-10-.1zM825.7 730.9l4.5-.2c2.9-.1 7-.3 12-.4s10.7-.3 16.9-.3l19.4-.1 19.4.1c6.2 0 12 .2 16.9.3s9.1.3 12 .4l4.5.2-4.5.2c-2.9.1-7 .3-12 .4s-10.7.3-16.9.3l-19.4.1-19.4-.1c-6.2 0-12-.2-16.9-.3s-9.1-.3-12-.4l-4.5-.2zM765.5 739.3l43.2-.6 44.3-.3 50.8-.1 50.7.1 44.3.3 43.2.6-43.2.6-44.3.3-50.7.1-50.7-.1-44.3-.3-43.3-.6z" class="st0"/></g><path d="M95.3 713.3l15.2-.1 40-.3 56.5-.2 64.8-.1 64.8.1 56.5.2c16.5.1 30.3.2 40 .3l15.2.1-15.2.1c-9.6.1-23.4.2-40 .3l-56.5.2-64.8.1-64.8-.1-56.5-.2-40-.3-15.2-.1zM5.3 720.4l12-.1L49 720l44.8-.2 51.4-.1 51.4.1 44.8.2 31.7.3 12 .1-12 .1-31.7.3-44.8.2-51.4.1-51.4-.1-44.8-.2-31.7-.3-12-.1zM69.6 741.8l7.1-.1c4.5 0 11-.2 18.8-.3s16.8-.2 26.5-.2l30.4-.1 30.4.1c9.7 0 18.8.2 26.5.2s14.2.2 18.8.3l7.1.1-7.1.1c-4.5.1-11 .2-18.8.3s-16.8.2-26.5.2l-30.4.1-30.4-.1c-9.7 0-18.8-.2-26.5-.2s-14.3-.2-18.8-.2l-7.1-.2z" class="st3"/><g><path d="M362.2 656.9l18.6-.1 49-.3 69.3-.2 79.5-.1 79.5.1 69.3.2c20.3.1 37.2.2 49 .3l18.6.1-18.6.1c-11.8.1-28.8.2-49 .3l-69.3.2-79.5.1-79.5-.1-69.3-.2-49-.3-18.6-.1zM251.8 664.3l14.8-.2 38.9-.3 55-.2 63.1-.1 63.1.1 55 .2 38.9.3 14.8.2-14.8.1-38.9.3-55 .2-63.1.1-63.1-.1-55-.2-38.9-.3-14.8-.1zM423.5 671.6l19.3-.1 50.9-.3 71.9-.2 82.5-.1 82.4.1 71.9.2 50.9.3 19.3.1-19.3.1-50.9.3-71.9.2-82.4.1-82.5-.1-71.9-.2-50.9-.3-19.3-.1zM330.7 686.3l8.7-.1c5.6-.1 13.5-.2 23-.3s20.6-.2 32.6-.2l37.3-.1 37.3.1c11.9 0 23 .2 32.6.2s17.5.2 23 .3l8.7.1-8.7.1c-5.6.1-13.5.2-23 .3s-20.6.2-32.6.2l-37.3.1-37.3-.1c-11.9 0-23-.2-32.6-.2s-17.5-.2-23-.3l-8.7-.1zM215 692.2l83.1-.4 85.1-.2 97.6-.1 97.6.1 85.2.2 83.1.4-83.1.4-85.2.2-97.6.1-97.6-.1-85.1-.2-83.1-.4z" class="st4"/></g><g><path d="M421.1 729.9l16.2-.1 42.8-.3 60.4-.2 69.3-.1 69.3.1 60.4.2 42.8.3 16.2.1-16.2.1-42.8.3-60.4.2-69.3.1-69.3-.1-60.4-.2-42.7-.3-16.3-.1zM503.3 743.1l7-.1c4.5-.1 10.8-.2 18.5-.3s16.5-.2 26.1-.2l29.9-.1 29.9.1c9.5 0 18.5.2 26.1.2s14 .2 18.5.3l7 .1-7 .2c-4.5 0-10.8.2-18.5.3s-16.5.2-26.1.2l-29.9.1-29.9-.1c-9.5 0-18.5-.2-26.1-.2s-14-.2-18.5-.3l-7-.2zM415.2 734.3l11-.2 29.1-.3c12-.1 26.1-.2 41.1-.2l47.2-.1 47.2.1c15 0 29.1.2 41.1.2l29.1.3 11 .2-11 .1-29.1.3c-12 .1-26.1.2-41.1.2l-47.2.1-47.2-.1c-15 0-29.1-.2-41.1-.2l-29.1-.3-11-.1z" class="st3"/></g><g><defs><path id="SVGID_3_" d="M860 479h164v237H860z"/></defs><clipPath id="SVGID_4_"><use overflow="visible" xlink:href="#SVGID_3_"/></clipPath><g clip-path="url(#SVGID_4_)"><path d="M891.6 668l12.7-2.5 12.6.6 6.8-2.2 9.6.7 4.9 3.3 2.8-2.8 9-1.8 8.1 2.5 7.8 1 9.6-1.4 12.8 1.4 7-.7 14.3-.7h13.2l7.8-1.6 3.6-5.5-.3-19.4-40.5 13.3-64.7 6.1-4.5-.9-8.9 3.3-17.4 1.8-13.6 3.2 7.3 2.3z" class="st6"/><path d="M1033.9 619.3v22.8L963 660l-34.2-3.5.5-3.9 9.3-6 9.2-4.6 4.7-3.2 52.3-8.3 6.9-4.5 22.2-6.7z" class="st6"/><path d="M1008.7 632.8l5.9-1.3 3.4-2.9c.2 6.7.5 13.3.7 20l-4.2-1.3-3.1 2.3-2.7-16.8z" class="st7"/><path d="M1018.1 628.6h15.9v16.5l-12 4.5-7.3-2.3v-9.2z" class="st8"/><path d="M987 631h3.5l3 .5-2.3 7.6 3.4 13.5-3.6.7h-3.4z" class="st7"/><path d="M1001.3 634.5l-7.8-3c-.7 2.5-1.5 5.1-2.2 7.6l3.4 13.5 4.2-2 4.1 2.1-1.8-10.2c0-2.7.1-5.3.1-8z" class="st9"/><path d="M1001.3 634.5l13.4-3-2.5 12.5-.6 5.6-8.6 3.1-3.2-13.6z" class="st8"/><path fill="#757575" d="M954 642.7l-6.2 1.1c1.1 4.4 2.2 8.9 3.3 13.3l2.9-14.4z"/><path d="M947.9 643.8l4.1 14.3-6.9 1.4-6.3-1v-3.6l2.7-5 6.4-6.1zM987 631l.1 2.3 5.1 9 .2-7.2 1.8-3.4-4.6-1.7-2.6 1z" class="st8"/><path d="M928.8 656.5v2h9.9v-3.6z" class="st9"/><path d="M1023.8 669.4c-8 3.5-16.3 6.4-24.8 8.5-19 4.6-38.7 5.4-58 2.3l-61.8 4.3c-2.7-.4-5.5-.3-8.2.3-1.4.3-2.7.6-4 1.1-.4 1.1-.4 2.3 0 3.4.8 1.4 2.8 1.3 4.6 1.4 6.4.4 7.1 4.3 12.4 4.3 3.6 0 3.3-1.8 7.7-2.4 4.6-.6 7 1.1 12.1 2.4 5.3 1.3 4.9 0 14 1 12.8 1.4 14.4 4 20.9 2.4 4.6-1.2 6-2 8.4-2.3 2.9-.3 4.8.8 8 2.3 0 0 1.1.5 15 4.5 10.9 3.2 12-1.5 31.2-.5 2.1.1 11.3-.5 22.8-2.9 4.2-.9 7.7-1.8 10-2.5v-35l-10.3 7.4z" opacity=".1"/><g><path d="M950 663.4l-5 21.6-23.7 3-12-.6-6.6.6-12-2.1-7.7 2.1-6.7-2.1-5.7-1.7-4 1 3.4-5.2 8.2-1.2 6.9-12.8 6.5 2 12.6-2.5 12.7.7 6.7-2.2 9.7.7 4.8 3.3 2.9-2.8z" class="st8"/><path d="M923.6 664l1.4 23.5-5.6.5c-.8-7.3-1.7-14.6-2.5-21.9l6.7-2.1zM899.5 666.5l-5.7 12.7h-3.9l1.7-11.2zM884.4 682.5l-8.1 3.4-5.7-1.7 1.7-2.9zM909.3 675.4l-7.6.6 1 12 6.6-.6z" class="st7"/><path d="M918 674.5l-8.7 12.9 12 .6z" class="st7"/><path d="M896.4 673.5l5.3 2.5 7.6-.6-5.8-3.5zM893.8 679.2l-2.3 3.6h-5.4L870 680l8.2-1.2 11.7.4z" class="st6"/><path d="M939.4 674.4l-1.8 16.6h-8.4l-12.5-2.1-1.6-13 2.9-3.3 21.4 1.8z" class="st8"/><path d="M952.2 667.5l-14.9 3.3-19.3 1.8 21.4 1.8 14.6-3.5z" class="st6"/><path d="M950.8 670.9l-5.8 16.7-7.4 3.4 1.8-16.6zM959.5 665.5l6.4 1.4 9.6-1.4 6 1.4-13.6 18.3-9.7-7.3z" class="st7"/><path d="M949.8 663.4l-2 6.9 2 3.6 12.2-7.3-12.2-3.2z" class="st7"/><path d="M957 665.5l-6.2 5L945 685l17 7 5.9-6.8-4.9-6.4 1.5-8.3-5-5zM975.5 665.5l-3.1 27.9L983 692l5.6-25.1z" class="st8"/><path d="M996 663.4l-7.4 3.5L983 692l5.6-.6 6.7-25.2z" class="st7"/><path d="M1009.6 665.5l5.9 8.6 2.6 13.9v8l-17.9-1.5-11.6-3.1 6.7-25.2zM1022.8 665.5l11.4-7-.3 29.5h-11.1z" class="st8"/><path d="M1028 661.5l-5.2 4h-13.2l5.9 8.6 2.6 13.9h8.5l1.4-10.3-1.4-10.2z" class="st7"/><g><path d="M957 694.6l7.7 1.9h27.9c-.1-2.3-1.7-4.3-4-4.9l-10.1-12.9-7.3-6.8-8.2 12.3-3.5 1.7-2.5 8.7z" class="st7"/><path d="M964.8 696.5l5.2-10.6-1.1-7.1 3.3-5.9 7.3 8.8 4 11.6-1.3 3.2h-17.4z" class="st8"/><path d="M972.2 672.8l-3.3 5.9-2.5 7.7-7-.5c2.1-1.6 4.1-3.5 5.8-5.5 2-2.2 3.7-4.7 5.1-7.3l1.9-.3z" class="st6"/></g></g></g></g><g><path d="M976.9 546h4.8v11.6h-4.8z" class="st12"/><path d="M963.7 546h13.2v11.6h-13.2z" class="st13"/><path d="M958.4 546h5.6v11.6h-5.6z" class="st14"/><path d="M963.6 548.6v11.3M976.9 548.6v11.3M988.2 548.6v11.3M951.5 550.8h12.1M963.5 550.8h13.4M976.9 550.8h11.5M976.9 554.2h11.5M963.6 554.2H977M951.5 554.2h12.1M951.5 548.6v11.3" class="st15"/><path d="M980.5 659.5h-21c1.2-30.5 2.3-61 3.5-91.5l14.5-.1c1 30.6 2 61.1 3 91.6z" class="st16"/><path d="M959.5 659.5l-8.4-1.6c2-30 3.9-59.9 5.9-89.9h6c-1.2 30.5-2.3 61-3.5 91.5z" class="st17"/><path d="M988.6 658.4l-8.1 1.1c-1-30.5-2-61-3-91.6l5.7.3 5.4 90.2z" class="st18"/><path fill="#bdc2c9" d="M983.2 568.2h-5.7c-.1-2.8-.2-5.6-.2-8.4l11.7.5-5.8 7.9z"/><path fill="#dcdee2" d="M962.8 560.5h14.8v7.8h-14.8z"/><path d="M962.8 557.6h15v2.8h-15z" class="st16"/><path d="M977.5 557.6h11.4v2.8h-11.4z" class="st18"/><path d="M950.8 557.6H963v2.8h-12.2z" class="st17"/><path fill="#e6e6e6" d="M963 568.2l-6.1-.3c-2-2.5-4.1-5-6.1-7.5H963v7.8z"/><g><path d="M958.7 536.4h22.5v9.7h-22.5z" class="st17"/><path fill="#e3d5ba" d="M976.2 537h4.3v9.1h-4.3z"/><path fill="#f9e3c7" d="M964.3 537h11.9v9.1h-11.9z"/><path fill="#fcf3dc" d="M959.5 537h5v9.1h-5z"/><path d="M964.6 546v-9.1" class="st15"/><path fill="none" stroke="#fff" stroke-miterlimit="10" stroke-width="1.016" d="M976.2 546.1v-9.4"/></g><g><path d="M975.7 534.9h6v1.5h-6z" class="st12"/><path d="M963.8 534.9h11.9v1.5h-11.9z" class="st13"/><path d="M958.4 534.9h5.7v1.5h-5.7z" class="st14"/></g><g><path d="M971.7 524.3h1.8v3.8h-1.8z" class="st12"/><path d="M968.2 524.3h3.5v3.8h-3.5z" class="st13"/><path d="M966.6 524.3h1.7v3.8h-1.7z" class="st14"/></g><g><path d="M983.5 534.9h-8.1l-3.7-6.8h1.8l10 6.8z" class="st18"/><path d="M975.4 534.8H964l4.1-6.7h3.5l3.8 6.7z" class="st16"/><path d="M964 534.8l-7 .1 9.6-6.7h1.6l-4.2 6.6z" class="st17"/></g><g><path d="M969.9 519.5l-1.7 4.8h3.5z" class="st16"/><path d="M969.9 519.5l1.8 4.8h3.5l-5.3-4.8z" class="st18"/><path d="M969.9 519.5l-5.3 4.8h3.5c.7-1.6 1.3-3.2 1.8-4.8z" class="st17"/></g></g><g><path d="M224.1 603.7h-1c-.7 0-1.4.1-2.1.2-.3.1-.7.2-1 .2l-1 .3-1 .4c-.3.2-.7.3-1 .5s-.6.3-1 .5-.7.4-.9.6-.6.4-.9.7-.6.5-.9.7-.6.5-.9.8l-.8.8c-.2.3-.5.5-.7.8-.2-.3-.5-.5-.7-.8s-.5-.5-.8-.8l-.8-.8c-.3-.3-.6-.5-.9-.7s-.6-.4-.9-.7-.6-.4-1-.6-.6-.4-1-.5-.7-.3-1-.5l-1-.4-1-.3c-.3-.1-.7-.2-1-.2-.7-.1-1.4-.2-2.1-.2h-1c-.4 0-.7 0-1 .1.4.1.7.2 1 .3l1 .3 1 .3 1 .4c.3.1.6.3.9.4l.9.5.9.5c.3.2.6.3.9.5s.6.4.8.6.5.4.8.6c.3.2.5.4.8.7.3.2.5.4.8.7l.7.7c.2.2.5.5.7.8l.7.8.7.9.6.8.6-.8.7-.9.7-.8c.2-.3.5-.5.7-.8s.5-.5.7-.7l.7-.7c.2-.2.5-.5.8-.7.3-.2.5-.4.8-.6s.5-.3.8-.6.6-.4.9-.5l.9-.5.9-.5c.3-.1.6-.3.9-.4l1-.4 1-.3 1-.3 1-.3c-.2-.1-.5-.1-.9-.1zM231.6 616.7h-.4c-.3 0-.5 0-.8.1l-.4.1-.4.1-.4.1-.4.2-.4.2-.4.2-.3.3-.3.3-.3.3-.3.3c-.1.1-.2.2-.2.3-.1-.1-.2-.2-.2-.3s-.2-.2-.3-.3l-.3-.3-.3-.3-.3-.3-.4-.2c-.1-.1-.2-.1-.4-.2l-.4-.2-.4-.1-.4-.1-.4-.1c-.3 0-.5-.1-.8-.1h-.8l.4.1.4.1.4.1.4.2.4.2.3.2.3.2.3.2.3.2.3.2.3.3.3.3.3.3.3.3.2.3.2.3.2.3.2-.3.2-.3.2-.3.3-.3.3-.3.3-.3.3-.3.3-.2.3-.2.3-.2.3-.2.3-.2c.1 0 .2-.1.4-.2l.4-.2.4-.1.4-.1.4-.1h-.2zM243.7 612.4h-.4c-.3 0-.5.1-.8.1l-.4.1-.4.1-.4.1-.4.2-.4.2-.4.2-.3.3-.3.3-.3.3-.3.3-.2.3-.2-.3-.3-.3-.2-.3-.3-.3-.3-.3-.4-.2-.4-.2-.4-.2-.4-.1-.4-.1-.4-.1c-.3 0-.5-.1-.8-.1H233.6c.1 0 .2.1.4.1l.4.1.4.1.4.1c.1 0 .2.1.4.2l.3.2.3.2.3.2.3.2.3.2.3.3.3.3.3.3.3.3.3.3.2.3.2.3.2-.3.2-.3.2-.3.3-.3.3-.3.3-.3.3-.3c.1-.1.2-.2.3-.2l.3-.2c.1-.1.2-.1.3-.2l.3-.2.3-.2.4-.2.4-.1.4-.1.4-.1c.1 0 .2-.1.4-.1h-.6z" class="st26"/><g><path d="M889.7 509h.4c.3 0 .5 0 .8.1l.4.1.4.1.4.1.4.2.4.2c.1.1.2.1.3.2l.3.3.3.3.3.3.3.3.2.3.2-.3.3-.3.3-.3.3-.3.3-.3c.1-.1.2-.2.3-.2l.4-.2.4-.2.4-.1.4-.1c.1 0 .2-.1.4-.1h1.6l-.4.1-.4.1-.3.1-.4.1-.3.1-.3.2-.3.2c-.1.1-.2.1-.3.2l-.3.2c-.1.1-.2.1-.3.2l-.3.3-.3.3-.3.3-.3.3-.2.3-.2.3-.2.3-.2-.3-.2-.3-.3-.3-.3-.3-.3-.3-.3-.3-.3-.3c-.1-.1-.2-.2-.3-.2l-.3-.2c-.1-.1-.2-.1-.3-.2l-.3-.2-.3-.2c-.1-.1-.2-.1-.3-.1l-.3-.1-.4-.1-.4-.1-.4-.1h.1zM900.8 504.7h.4c.3 0 .5 0 .8.1l.4.1.4.1.4.1.4.2c.1.1.2.1.4.2l.3.2.3.3.3.3.3.3.3.3.2.3.2-.3.3-.3.3-.3.3-.3.3-.3.3-.2c.1-.1.2-.1.4-.2l.4-.2.4-.1.4-.1c.1 0 .2-.1.4-.1.3 0 .5-.1.8-.1h.8l-.4.1-.4.1-.3.1-.4.1-.3.1-.3.2-.3.2-.3.2c-.1.1-.2.1-.3.2s-.2.1-.3.2l-.3.3-.3.3-.3.3-.3.3-.3.3-.2.3-.2.3-.2-.3-.2-.3-.3-.3-.3-.3-.3-.3-.3-.3-.3-.3-.3-.2-.3-.2-.3-.2-.3-.2-.3-.2-.3-.1-.4-.1-.4-.1-.4-.1-.4-.1h.3zM877.6 504.7h.4c.3 0 .5 0 .8.1l.4.1.4.1.4.1.4.2c.1.1.2.1.3.2.1.1.2.1.4.2l.3.3.3.3.3.3.3.3c.1.1.2.2.2.3.1-.1.2-.2.2-.3l.3-.3.3-.3.3-.3.3-.3c.1-.1.2-.2.4-.2.1-.1.2-.1.3-.2l.4-.2.4-.1.4-.1.4-.1c.3 0 .5-.1.8-.1h.8l-.4.1-.4.1-.3.1-.4.1c-.1 0-.2.1-.3.1l-.3.2-.3.2-.3.2-.3.2c-.1.1-.2.1-.3.2l-.3.3-.3.3-.3.3-.3.3-.2.3-.2.3-.2.3-.2-.3-.2-.3-.2-.3-.3-.3-.3-.3-.3-.3-.3-.3c-.1-.1-.2-.1-.3-.2h-.6l-.3-.2-.3-.2-.3-.2c-.1 0-.2-.1-.3-.1l-.4-.1-.4-.2-.4-.1-.4-.1.4-.1z" class="st26"/></g></g></svg>