<svg xmlns="http://www.w3.org/2000/svg" xmlns:xlink="http://www.w3.org/1999/xlink" viewBox="0 0 47.24 16.8">
  <defs>
    <symbol id="a" data-name="birds" viewBox="0 0 47.24 16.8">
      <path d="M27.31,0l-1,0a19,19,0,0,0-2.08.25c-.33.06-.68.16-1,.22l-1,.31-1,.37c-.32.15-.67.3-1,.46a10.11,10.11,0,0,0-1,.51c-.33.2-.66.4-1,.61s-.59.43-.89.69a10.48,10.48,0,0,0-.87.73c-.31.26-.58.52-.85.79s-.54.54-.78.82l-.67.78-.68-.78c-.23-.28-.5-.55-.77-.82s-.54-.53-.85-.79A10.48,10.48,0,0,0,11,3.45c-.31-.26-.59-.43-.9-.69s-.62-.41-.95-.61a10.11,10.11,0,0,0-1-.51c-.32-.16-.68-.31-1-.46l-1-.37L5.14.5C4.8.44,4.46.34,4.13.28A19,19,0,0,0,2.05,0L1,0C.66,0,.31,0,0,.05.34.16.65.27,1,.37L2,.7,3,1l1,.38.94.39.91.45.88.5c.29.17.57.34.87.55s.58.39.82.57.55.4.8.62.56.44.78.68a9.87,9.87,0,0,1,.74.69c.22.24.48.47.72.75s.49.51.73.79l.69.8.67.86.65.8v.05l0,0,0,0,0,0,0,0V9.86l.65-.8.67-.86.69-.8c.24-.28.5-.51.73-.79s.49-.51.72-.75a9.87,9.87,0,0,1,.74-.69c.22-.24.52-.45.77-.68s.55-.39.81-.62.53-.36.82-.57.58-.38.86-.55l.89-.5.91-.45.94-.39,1-.38,1-.33,1-.33c.35-.1.65-.21,1-.32C28,0,27.66,0,27.31,0Z" style="fill: #93c9c7"/>
      <path d="M34.8,13l-.39,0a6.83,6.83,0,0,0-.76.09l-.37.09-.38.11-.38.14-.36.18a3.24,3.24,0,0,0-.36.2l-.35.23c-.11.1-.22.16-.33.26s-.22.18-.32.28a3,3,0,0,0-.31.3c-.1.11-.2.21-.29.32l-.25.3-.25-.3a4,4,0,0,0-.28-.32c-.1-.1-.2-.2-.32-.3s-.2-.18-.32-.28-.21-.16-.33-.26l-.35-.23a3.24,3.24,0,0,0-.36-.2l-.36-.18L27,13.31l-.38-.11c-.13,0-.25-.07-.38-.09a6.83,6.83,0,0,0-.76-.09l-.38,0-.38,0,.37.13.37.12.35.13.36.14.34.15.34.17.32.19a3.05,3.05,0,0,1,.32.22l.31.21c.09.09.2.15.29.24a3.79,3.79,0,0,1,.29.26c.09.09.19.17.27.26s.18.18.27.29.18.19.26.3l.26.31.24.32.24.31v0h0v0l.24-.31.24-.32.26-.31c.08-.11.18-.19.27-.3s.18-.19.26-.29.18-.17.27-.26a3.79,3.79,0,0,1,.29-.26c.09-.09.2-.15.29-.24l.31-.21a3.05,3.05,0,0,1,.32-.22l.32-.19.34-.17.34-.15.36-.14.36-.13.36-.12.37-.13Z" style="fill: #93c9c7"/>
      <path d="M46.87,8.76h-.38a7,7,0,0,0-.77.09L45.35,9,45,9.07l-.37.14-.37.17-.36.2-.35.23c-.11.1-.22.17-.33.26s-.22.18-.32.29-.21.2-.31.3-.2.2-.29.31l-.25.3-.25-.3a2.7,2.7,0,0,0-.28-.31c-.1-.1-.2-.21-.31-.3s-.21-.19-.32-.29a4.19,4.19,0,0,1-.33-.26l-.36-.23c-.12-.08-.24-.14-.35-.2l-.37-.17-.37-.14L38.7,9l-.37-.09a7,7,0,0,0-.77-.09h-.38l-.38,0,.37.12.37.12.35.13.36.15.35.15.33.17.33.19.32.21.3.22.29.23a3.79,3.79,0,0,1,.29.26,3.44,3.44,0,0,1,.27.27l.27.28a3.85,3.85,0,0,0,.27.3l.25.31.25.33.24.31v0h0v0l.24-.31.25-.33.25-.31c.09-.1.18-.19.27-.3s.18-.19.26-.28a3.63,3.63,0,0,1,.28-.27c.08-.09.19-.17.28-.26l.3-.23.3-.22a2.92,2.92,0,0,1,.32-.21l.33-.19.33-.17c.12,0,.23-.11.35-.15l.35-.15L46.51,9l.37-.12.36-.12Z" style="fill: #93c9c7"/>
    </symbol>
  </defs>
  <title>birds021</title>
  <use width="47.24" height="16.8" transform="matrix(-1, 0, 0, 1, 47.24, 0)" xlink:href="#a"/>
</svg>
