<svg xmlns="http://www.w3.org/2000/svg" xmlns:xlink="http://www.w3.org/1999/xlink" viewBox="0 0 168.76 65">
  <defs>
    <symbol id="a" data-name="cloud" viewBox="0 0 168.76 65">
      <g>
        <path d="M168.7,65q.06-.7.06-1.44a18,18,0,0,0-18-18l-1,0a26.43,26.43,0,0,0-24.33-16.08c-.53,0-1.06,0-1.58.05A40.78,40.78,0,0,0,45,31.43,25.64,25.64,0,0,0,27.06,53.79,23.37,23.37,0,0,0,0,65Z" style="fill: #e2f7f7"/>
        <path d="M126.72,40h-1.33a19.49,19.49,0,0,0-19.17-16,20.06,20.06,0,0,0-2.92.24A26.55,26.55,0,0,0,80.22,11,26,26,0,0,0,54.06,41.16h0a11.12,11.12,0,0,0-1.1.67l-.12.09a9.82,9.82,0,0,0-.86.71l-.15.13a10.52,10.52,0,0,0-1.56,1.9c-.05.08-.1.16-.14.24-.18.3-.34.61-.49.92l-.09.19a10.45,10.45,0,0,0-.42,1.15l-.06.26a8,8,0,0,0-.21,1c0,.11,0,.23,0,.34A8.93,8.93,0,0,0,48.72,50a10,10,0,0,0,10,10h68a10,10,0,0,0,0-20Z" style="fill: #edf9f8"/>
        <rect x="65.72" y="40" width="64" height="16.25" rx="8" ry="8" style="fill: #f7f9f9"/>
        <circle cx="70.72" cy="22" r="5" style="fill: #fff"/>
      </g>
    </symbol>
  </defs>
  <title>cloud1</title>
  <use width="168.76" height="65" xlink:href="#a"/>
</svg>
