<svg id="Layer_1" data-name="Layer 1" xmlns="http://www.w3.org/2000/svg" viewBox="0 0 104.21 47.59">
  <defs>
    <style>
      .cls-1, .cls-2 {
        fill: #1b828f;
      }

      .cls-1 {
        stroke: #29a2a1;
      }

      .cls-1, .cls-4 {
        stroke-linecap: round;
        stroke-miterlimit: 10;
      }

      .cls-3 {
        fill: #ffd576;
      }

      .cls-4 {
        fill: none;
        stroke: #efb652;
        stroke-width: 0.5px;
      }

      .cls-5 {
        fill: #29a2a1;
      }
    </style>
  </defs>
  <title>kite-dragon</title>
  <g id="Layer_63" data-name="Layer 63">
    <line class="cls-1" x1="85.71" y1="18.22" x2="103.71" y2="18.22"/>
    <path id="_Path_" data-name="&lt;Path&gt;" class="cls-2" d="M.75,47.57A624,624,0,0,0,94.19,18.49a352.33,352.33,0,0,0-56.48,16.2A213,213,0,0,1,3.55,44.52L.3,46.44A.62.62,0,0,0,.75,47.57Z"/>
    <path id="_Path_2" data-name="&lt;Path&gt;" class="cls-3" d="M29.21,38.72c.44-2.14,1.25-3,1.94-3.4a2.77,2.77,0,0,0,1.22-1c.26-.46.36-1.25-.09-1.52a23.55,23.55,0,0,0,5.08-3.15,6.38,6.38,0,0,0,1.92-2.25,2.94,2.94,0,0,0-.55-3A15,15,0,0,0,42,22.69a4.88,4.88,0,0,0,2-3.05,3.11,3.11,0,0,0-1.73-3.08,11.85,11.85,0,0,0,2.66-1.34,4,4,0,0,0,1.66-2.4,2.23,2.23,0,0,0-.94-2.49l3.83-1.68c.53-.24,1.14-.56,1.26-1.13a1.28,1.28,0,0,0-1.15-1.37A6.65,6.65,0,0,0,46.87,6,61.94,61.94,0,0,1,70,.09c6.12-.35,12.49.28,17.86,3.24S97.36,12,97.24,18.09Z"/>
    <g>
      <line class="cls-4" x1="32.43" y1="32.71" x2="84.71" y2="18.22"/>
      <line class="cls-4" x1="39.08" y1="24.22" x2="84.64" y2="17.82"/>
      <line class="cls-4" x1="42.78" y1="16.85" x2="84.66" y2="13.92"/>
      <line class="cls-4" x1="45.71" y1="10.22" x2="82.71" y2="9.22"/>
    </g>
    <path id="_Path_3" data-name="&lt;Path&gt;" class="cls-5" d="M82.35,19.3a7.78,7.78,0,0,0,.71-7.44c-2.65-5.25-12.2-6.19-17.26-7-4.17-.7-8.37-1.12-12.58-1.43A62.07,62.07,0,0,1,70,.09c6.12-.35,12.49.28,17.86,3.24S97.36,12,97.24,18.09c-6.53,2-13.09,4-19.66,5.95A17.36,17.36,0,0,0,82.35,19.3Z"/>
    <g id="_Group_" data-name="&lt;Group&gt;">
      <path id="_Path_4" data-name="&lt;Path&gt;" class="cls-2" d="M47.9,5.91a2.36,2.36,0,0,0-1,.08A61.94,61.94,0,0,1,70,.09c6.12-.35,12.49.28,17.86,3.24.31.17.61.35.91.54A117.3,117.3,0,0,0,47.9,5.91Z"/>
    </g>
  </g>
</svg>
