<svg id="Layer_1" data-name="Layer 1" xmlns="http://www.w3.org/2000/svg" viewBox="0 0 114.61 89.99">
  <defs>
    <style>
      .cls-1 {
        fill: #3d6d84;
      }

      .cls-1, .cls-4, .cls-5 {
        stroke: #ff0;
      }

      .cls-1, .cls-3, .cls-4, .cls-5 {
        stroke-width: 0.04px;
      }

      .cls-2 {
        fill: #487e93;
      }

      .cls-3 {
        fill: #408ba2;
        stroke: #2b525c;
      }

      .cls-4 {
        fill: #53c8e9;
      }

      .cls-5 {
        fill: #69e1f4;
      }

      .cls-6, .cls-7 {
        fill: none;
        stroke: #69e1f4;
      }

      .cls-6 {
        stroke-width: 0.43px;
      }

      .cls-7 {
        stroke-width: 0.44px;
      }

      .cls-8 {
        fill: #39506b;
        opacity: 0.5;
      }
    </style>
  </defs>
  <title>kite-blueGlider</title>
  <g id="Layer_64" data-name="Layer 64">
    <path class="cls-1" d="M19.54.87A317.85,317.85,0,0,0,0,90c1.59-5.16,12.83-39.78,39.89-45.84a38,38,0,0,1,10.19-.84Q34.82,22.09,19.54.87Z"/>
    <path class="cls-2" d="M29.73,17l17,25.47a28.16,28.16,0,0,0-7.64,0,30.71,30.71,0,0,0-17,8.48c2.39-2.65,8.86-10.53,9.33-22.06A33.66,33.66,0,0,0,29.73,17Z"/>
    <path class="cls-3" d="M50.1,43.31c.34-7,2.63-11.28,4.24-13.58,9.8-14,34.2-13.23,49.23-12.74,4.78.16,8.65.56,11,.85A221.92,221.92,0,0,0,19.54.87Q34.83,22.08,50.1,43.31Z"/>
    <path class="cls-4" d="M19.54.87l11.88,17A11.43,11.43,0,0,0,23.78,17c-2.8.81-5,3-10.6,13.4-1.76,3.3-4,7.66-6.37,12.92C9,34.59,11.5,25.51,14.45,16.15Q16.93,8.26,19.54.87Z"/>
    <path class="cls-5" d="M31.42,17.84c.81-4.75,2.73-7.17,4.25-8.48,4.54-3.94,10.27-2.11,23.44-4.42,3.07-.54,5.55-1.13,7.11-1.53A143.94,143.94,0,0,0,19.54.87Z"/>
    <path class="cls-6" d="M46.59,36.91A29.06,29.06,0,0,1,51.52,25c10.22-14.1,34.14-17.22,60-8.49"/>
    <path class="cls-7" d="M44.9,35.21A28.25,28.25,0,0,1,50,23.33c8.8-11.73,27.5-15.76,48.81-11.5"/>
    <polygon class="cls-8" points="19.54 0.87 46.7 42.46 50.09 43.31 50.27 41.18 19.54 0.87"/>
  </g>
</svg>
