<svg id="Layer_1" data-name="Layer 1" xmlns="http://www.w3.org/2000/svg" viewBox="0 0 73.28 113.49">
  <defs>
    <style>
      .cls-1 {
        fill: #ffeccb;
      }

      .cls-2 {
        fill: #ffda91;
      }

      .cls-3 {
        fill: #ffc95f;
      }

      .cls-4 {
        fill: #efb652;
      }

      .cls-5 {
        fill: #fff;
      }
    </style>
  </defs>
  <title>kite-dots</title>
  <g>
    <path class="cls-1" d="M24.1,44.36l31.62-9.69a37.93,37.93,0,0,1-18.81-8.59C26,16.71,24.29,4.11,24,1L24,44.26Z"/>
    <path class="cls-2" d="M72.91,111.79C65.24,101.05,51.62,78.34,53.7,49.62a82.41,82.41,0,0,1,2.38-14.57l-.18-.19-.18-.19L24.1,44.36Z"/>
    <path class="cls-3" d="M24,44.26l-.8-1.11.8,1.11L24,1,23,0A85.25,85.25,0,0,1,13,38.72,83.47,83.47,0,0,1,0,56.63Z"/>
    <path class="cls-4" d="M24.1,44.36l-.08,0L8.27,51.25,0,56.63q7.62,4.13,15.46,9a290.08,290.08,0,0,1,57.82,47.83c-.12-.57-.25-1.14-.37-1.7Z"/>
    <path class="cls-5" d="M49.81,47.51c3,0,3-4.69,0-4.69s-3,4.69,0,4.69Z"/>
    <path class="cls-5" d="M48.39,57.11c3,0,3-4.68,0-4.68s-3,4.68,0,4.68Z"/>
    <path class="cls-5" d="M50.36,67.44c3,0,3-4.69,0-4.69s-3,4.69,0,4.69Z"/>
  </g>
</svg>
