<svg id="Layer_2" data-name="Layer 2" xmlns="http://www.w3.org/2000/svg" viewBox="0 0 64 377">
  <defs>
    <style>
      .cls-1 {
        fill: #dda243;
      }

      .cls-2 {
        fill: #efb652;
      }

      .cls-3 {
        fill: #ffc95f;
      }

      .cls-4 {
        fill: #e8b564;
      }

      .cls-5 {
        fill: #c6944a;
      }

      .cls-6 {
        fill: #ffd576;
      }

      .cls-7 {
        fill: #fff;
      }

      .cls-8 {
        fill: #ffe592;
      }
    </style>
  </defs>
  <title>starSlider</title>
  <g id="slider">
    <g id="star">
      <g>
        <path class="cls-1" d="M32,362.23a16.48,16.48,0,0,1,7.21.83l11.92,4.43c2.14.71,3.84.67,4.87,0L32,341.84Z"/>
        <path class="cls-2" d="M56.68,363.58l-2.29-5.9a11.25,11.25,0,0,1,0-7.06L32,341.75v.09l24,25.69C57.12,366.85,57.46,365.48,56.68,363.58Z"/>
        <path class="cls-1" d="M63.84,336.3,32,341.67v.08l22.37,8.87a13.85,13.85,0,0,1,3.41-6l4.69-4.45C63.84,338.86,64.27,337.48,63.84,336.3Z"/>
        <path class="cls-3" d="M58.82,333.21l-5.55-.93a17.67,17.67,0,0,1-6.65-2.88L32,341.58v.09l31.84-5.37C63.34,334.88,61.63,333.73,58.82,333.21Z"/>
        <path class="cls-4" d="M41,322.88l-6.11-16.26C34,304.39,33,303.18,32,303.06v38.52L46.62,329.4A15.36,15.36,0,0,1,41,322.88Z"/>
      </g>
      <g>
        <path class="cls-5" d="M5.13,376.92c.92.32,2.49-.28,4.55-1.9L23,365.21a19.14,19.14,0,0,1,9-3V341.6Z"/>
        <path class="cls-3" d="M9.15,350.88a16.74,16.74,0,0,1-.27,10L4.81,372.2c-.94,2.74-.74,4.34.32,4.72L31.7,342Z"/>
        <path class="cls-2" d="M.18,333.88c-.46,1.5,0,3.35,1.39,5.26l4.88,6.06a15.6,15.6,0,0,1,2.7,5.68L31.7,342l.15-.2Z"/>
        <path class="cls-3" d="M19.45,326.86a15,15,0,0,1-7.6,3l-6.5.68c-2.85.29-4.63,1.57-5.17,3.33l31.67,7.92.15-.2v-.1Z"/>
        <path class="cls-6" d="M32,303.06c-1-.11-2,.82-2.7,2.89L24,321a12.71,12.71,0,0,1-4.58,5.87L32,341.5Z"/>
      </g>
      <g id="dots">
        <path class="cls-7" d="M5.84,334.79a.77.77,0,0,1-.94.54c-.42-.13-.55-.54-.26-1.09a.93.93,0,0,1,1.09-.54C6.12,333.85,6.12,334.37,5.84,334.79Z"/>
        <path class="cls-7" d="M9.78,371.47c-.42.54-1.1.8-1.49.54s-.42-.93,0-1.47,1.09-.8,1.49-.54S10.17,370.93,9.78,371.47Z"/>
        <path class="cls-7" d="M11,337.35c-.13.41-.94.54-1.62.26s-1.1-.8-.94-1.22.94-.54,1.62-.26A1,1,0,0,1,11,337.35Z"/>
        <path class="cls-7" d="M13.43,366.89a1.31,1.31,0,0,1-1.62.41c-.55-.26-.55-.93-.13-1.47a1.37,1.37,0,0,1,1.62-.55A1.12,1.12,0,0,1,13.43,366.89Z"/>
        <path class="cls-7" d="M14.24,338.67a1.2,1.2,0,0,1,1.61-.41c.68.25,1.1.8.81,1.34A1.22,1.22,0,0,1,15,340,1.2,1.2,0,0,1,14.24,338.67Z"/>
        <path class="cls-7" d="M17.76,362.2a1.33,1.33,0,0,1-1.75.42,1.07,1.07,0,0,1-.26-1.61,1.33,1.33,0,0,1,1.75-.41A1,1,0,0,1,17.76,362.2Z"/>
        <path class="cls-7" d="M23,357.1a1.46,1.46,0,0,1-2,.26,1.38,1.38,0,0,1-.55-1.89,1.48,1.48,0,0,1,2-.26C23.18,355.76,23.44,356.56,23,357.1Z"/>
        <path class="cls-7" d="M23,342.45a1.4,1.4,0,0,1-1.91.8,1.37,1.37,0,0,1-.81-1.73,1.6,1.6,0,0,1,1.91-.8A1.19,1.19,0,0,1,23,342.45Z"/>
        <path class="cls-7" d="M32.65,309.13c.55,0,.94.54.94,1.22a1.1,1.1,0,0,1-.94,1.21c-.55,0-.94-.54-.94-1.21S32.1,309.13,32.65,309.13Z"/>
        <path class="cls-7" d="M32.65,314.49a1.22,1.22,0,1,1-1.1,1.22A1.19,1.19,0,0,1,32.65,314.49Z"/>
        <path class="cls-7" d="M32.65,320.13a1.22,1.22,0,1,1-1.23,1.22A1.23,1.23,0,0,1,32.65,320.13Z"/>
        <path class="cls-7" d="M32.65,325.91a1.39,1.39,0,0,1,1.49,1.34,1.48,1.48,0,0,1-1.49,1.35,1.35,1.35,0,1,1,0-2.69Z"/>
        <path class="cls-7" d="M26,352.39a1.74,1.74,0,1,1,1.75-1.73A1.87,1.87,0,0,1,26,352.39Z"/>
        <path class="cls-7" d="M29.39,345.4a1.74,1.74,0,1,1,1.75-1.73A1.75,1.75,0,0,1,29.39,345.4Z"/>
        <path class="cls-7" d="M32.65,337.87a1.74,1.74,0,1,1,1.75-1.74A1.78,1.78,0,0,1,32.65,337.87Z"/>
        <path class="cls-7" d="M34.53,342a1.75,1.75,0,1,1,1.74,1.73A1.87,1.87,0,0,1,34.53,342Z"/>
        <path class="cls-7" d="M37.92,350.63a1.74,1.74,0,1,1,1.75-1.73A1.75,1.75,0,0,1,37.92,350.63Z"/>
        <path class="cls-7" d="M43.6,355.47a1.63,1.63,0,0,1-2.16.13,1.29,1.29,0,0,1,0-1.89,1.64,1.64,0,0,1,2.16-.13A1.2,1.2,0,0,1,43.6,355.47Z"/>
        <path class="cls-7" d="M42.53,339.63a1.3,1.3,0,0,1,1.1-1.61,1.64,1.64,0,0,1,1.75,1.09,1.3,1.3,0,0,1-1.1,1.61A1.37,1.37,0,0,1,42.53,339.63Z"/>
        <path class="cls-7" d="M47,358.71a1.25,1.25,0,0,1-1.74-.13A1,1,0,0,1,45,357.1a1.25,1.25,0,0,1,1.74.13A1.12,1.12,0,0,1,47,358.71Z"/>
        <path class="cls-7" d="M51.06,362.46a1.23,1.23,0,0,1-1.61-.13,1.14,1.14,0,0,1-.42-1.47,1.25,1.25,0,0,1,1.62.13C51.19,361.4,51.45,362.2,51.06,362.46Z"/>
        <path class="cls-7" d="M50.25,339.34a1.2,1.2,0,0,1-1.48-.67c-.13-.54.41-1.09,1.09-1.22a1.21,1.21,0,0,1,1.49.68C51.45,338.67,50.93,339.21,50.25,339.34Z"/>
        <path class="cls-7" d="M54.43,364.9a1,1,0,0,1-1.23.25c-.26-.25-.26-.67.13-1.08a1,1,0,0,1,1.23-.26C54.84,363.94,54.84,364.48,54.43,364.9Z"/>
        <path class="cls-7" d="M56.07,338.15c-.68.13-1.49-.13-1.49-.54s.42-.93,1.23-1.09,1.49.13,1.49.54S56.75,338,56.07,338.15Z"/>
        <path class="cls-7" d="M60.79,337.35c-.42.13-.81-.26-.94-.67s.13-.94.55-.94.81.26.94.68A.9.9,0,0,1,60.79,337.35Z"/>
      </g>
    </g>
    <g id="needle">
      <rect class="cls-3" x="32" width="2" height="300"/>
      <rect class="cls-8" x="30" width="2" height="300"/>
    </g>
  </g>
</svg>
