<svg xmlns="http://www.w3.org/2000/svg" viewBox="0 0 84 353">
  <defs>
    <style>
      .cls-1 {
        fill: #dda243;
      }

      .cls-2 {
        fill: #efb652;
      }

      .cls-3 {
        fill: #ffc95f;
      }

      .cls-4 {
        fill: #e8b564;
      }

      .cls-5 {
        fill: #c6944a;
      }

      .cls-6 {
        fill: #ffd576;
      }

      .cls-7 {
        fill: #fff;
      }

      .cls-8 {
        fill: #ffe592;
      }
    </style>
  </defs>
  <title>starSlider3</title>
  <g id="Layer_4" data-name="Layer 4">
    <g id="slider">
      <g id="star">
        <g>
          <path class="cls-1" d="M42,333.82a21.56,21.56,0,0,1,9.36,1.08l15.47,5.75c2.78.92,5,.87,6.33.06L42,307.36Z"/>
          <path class="cls-2" d="M74,335.58l-3-7.67a14.73,14.73,0,0,1,0-9.16L42,307.24v.12l31.16,33.35C74.61,339.82,75.05,338,74,335.58Z"/>
          <path class="cls-1" d="M83.34,300.16l-41.34,7v.1l29,11.51A17.81,17.81,0,0,1,75.47,311l6.09-5.78C83.34,303.48,83.89,301.7,83.34,300.16Z"/>
          <path class="cls-3" d="M76.82,296.15l-7.21-1.21A22.91,22.91,0,0,1,61,291.2L42,307v.12l41.34-7C82.69,298.32,80.47,296.83,76.82,296.15Z"/>
          <path class="cls-4" d="M53.63,282.74,45.7,261.63c-1.06-2.9-2.39-4.46-3.7-4.62v50L61,291.2C57.59,288.86,54.8,285.78,53.63,282.74Z"/>
        </g>
        <g>
          <path class="cls-5" d="M7.12,352.89c1.19.42,3.22-.35,5.91-2.46l17.23-12.74A25.06,25.06,0,0,1,42,333.82V307.05Z"/>
          <path class="cls-3" d="M12.33,319.09a21.75,21.75,0,0,1-.35,13L6.7,346.77c-1.22,3.55-1,5.64.42,6.12l34.49-45.33Z"/>
          <path class="cls-2" d="M.69,297c-.6,2-.06,4.35,1.81,6.83l6.33,7.86a20.13,20.13,0,0,1,3.5,7.38l29.28-11.53.19-.26Z"/>
          <path class="cls-3" d="M25.71,287.91a19.57,19.57,0,0,1-9.87,3.91l-8.43.87c-3.7.38-6,2-6.72,4.33L41.8,307.3l.2-.25v-.14Z"/>
          <path class="cls-6" d="M42,257c-1.29-.15-2.55,1.07-3.51,3.75l-6.84,19.53a16.59,16.59,0,0,1-5.94,7.62l16.29,19Z"/>
        </g>
        <g id="dots">
          <path class="cls-7" d="M8,298.2a1,1,0,0,1-1.21.7c-.55-.17-.72-.7-.34-1.41a1.21,1.21,0,0,1,1.42-.71C8.41,297,8.41,297.66,8,298.2Z"/>
          <path class="cls-7" d="M13.15,345.82c-.54.71-1.42,1-1.93.71s-.54-1.21,0-1.92,1.42-1,1.93-.7S13.66,345.12,13.15,345.82Z"/>
          <path class="cls-7" d="M14.71,301.52c-.17.54-1.22.71-2.1.34s-1.43-1-1.22-1.58,1.22-.71,2.1-.34A1.34,1.34,0,0,1,14.71,301.52Z"/>
          <path class="cls-7" d="M17.89,339.87a1.69,1.69,0,0,1-2.1.54c-.71-.34-.71-1.21-.17-1.91a1.76,1.76,0,0,1,2.1-.71A1.44,1.44,0,0,1,17.89,339.87Z"/>
          <path class="cls-7" d="M18.94,303.24a1.57,1.57,0,0,1,2.1-.54c.88.34,1.42,1,1.05,1.75A1.59,1.59,0,0,1,20,305,1.55,1.55,0,0,1,18.94,303.24Z"/>
          <path class="cls-7" d="M23.51,333.79a1.72,1.72,0,0,1-2.27.54,1.4,1.4,0,0,1-.34-2.09,1.72,1.72,0,0,1,2.27-.53A1.33,1.33,0,0,1,23.51,333.79Z"/>
          <path class="cls-7" d="M30.35,327.17a1.9,1.9,0,0,1-2.64.33,1.78,1.78,0,0,1-.71-2.45,1.92,1.92,0,0,1,2.64-.34C30.55,325.42,30.89,326.46,30.35,327.17Z"/>
          <path class="cls-7" d="M30.35,308.15a1.81,1.81,0,0,1-2.47,1,1.77,1.77,0,0,1-1.05-2.25,2.06,2.06,0,0,1,2.47-1.05A1.55,1.55,0,0,1,30.35,308.15Z"/>
          <path class="cls-7" d="M42.84,264.89c.71,0,1.22.7,1.22,1.58a1.43,1.43,0,0,1-1.22,1.58c-.71,0-1.22-.71-1.22-1.58S42.13,264.89,42.84,264.89Z"/>
          <path class="cls-7" d="M42.84,271.85a1.59,1.59,0,1,1-1.42,1.58A1.56,1.56,0,0,1,42.84,271.85Z"/>
          <path class="cls-7" d="M42.84,279.17a1.58,1.58,0,1,1-1.59,1.58A1.59,1.59,0,0,1,42.84,279.17Z"/>
          <path class="cls-7" d="M42.84,286.67a1.8,1.8,0,0,1,1.93,1.75,1.92,1.92,0,0,1-1.93,1.74,1.75,1.75,0,1,1,0-3.49Z"/>
          <path class="cls-7" d="M34.24,321.05a2.25,2.25,0,1,1,2.27-2.25A2.43,2.43,0,0,1,34.24,321.05Z"/>
          <path class="cls-7" d="M38.61,312a2.26,2.26,0,1,1,2.27-2.26A2.27,2.27,0,0,1,38.61,312Z"/>
          <path class="cls-7" d="M42.84,302.2a2.26,2.26,0,1,1,2.27-2.26A2.31,2.31,0,0,1,42.84,302.2Z"/>
          <path class="cls-7" d="M45.28,307.61a2.27,2.27,0,1,1,2.27,2.25A2.43,2.43,0,0,1,45.28,307.61Z"/>
          <path class="cls-7" d="M49.68,318.77A2.26,2.26,0,1,1,52,316.51,2.26,2.26,0,0,1,49.68,318.77Z"/>
          <path class="cls-7" d="M57.06,325.05a2.13,2.13,0,0,1-2.81.17,1.68,1.68,0,0,1,0-2.45,2.12,2.12,0,0,1,2.81-.17A1.55,1.55,0,0,1,57.06,325.05Z"/>
          <path class="cls-7" d="M55.68,304.48a1.67,1.67,0,0,1,1.42-2.08,2.13,2.13,0,0,1,2.27,1.41,1.67,1.67,0,0,1-1.43,2.08A1.75,1.75,0,0,1,55.68,304.48Z"/>
          <path class="cls-7" d="M61.47,329.25a1.62,1.62,0,0,1-2.27-.17,1.25,1.25,0,0,1-.34-1.91,1.62,1.62,0,0,1,2.27.17A1.45,1.45,0,0,1,61.47,329.25Z"/>
          <path class="cls-7" d="M66.75,334.13a1.64,1.64,0,0,1-2.1-.17,1.5,1.5,0,0,1-.54-1.92,1.63,1.63,0,0,1,2.1.17C66.92,332.75,67.26,333.79,66.75,334.13Z"/>
          <path class="cls-7" d="M65.7,304.11a1.57,1.57,0,0,1-1.93-.87c-.17-.71.54-1.41,1.42-1.58a1.57,1.57,0,0,1,1.93.87C67.26,303.24,66.58,303.94,65.7,304.11Z"/>
          <path class="cls-7" d="M71.12,337.29a1.37,1.37,0,0,1-1.6.33c-.33-.33-.33-.87.17-1.41a1.36,1.36,0,0,1,1.6-.34C71.66,336,71.66,336.75,71.12,337.29Z"/>
          <path class="cls-7" d="M73.25,302.57c-.88.16-1.93-.17-1.93-.71s.54-1.21,1.59-1.41c.88-.17,1.93.17,1.93.7C74.81,301.86,74.13,302.36,73.25,302.57Z"/>
          <path class="cls-7" d="M79.38,301.52c-.54.17-1-.33-1.22-.87a.91.91,0,0,1,.71-1.21c.54-.17,1,.34,1.22.87A1.17,1.17,0,0,1,79.38,301.52Z"/>
        </g>
      </g>
      <g>
        <rect class="cls-3" x="42" width="2" height="250"/>
        <rect class="cls-8" x="40" width="2" height="250"/>
      </g>
    </g>
  </g>
</svg>
