<svg xmlns="http://www.w3.org/2000/svg" xmlns:xlink="http://www.w3.org/1999/xlink" viewBox="0 0 47.7 23.29"><defs><symbol id="fzSign" data-name="fzSign" viewBox="0 0 47.7 23.29"><rect x="1.11" y="1.06" width="46.59" height="22.23" rx="6" ry="6" style="fill:#736357"/><rect width="46.59" height="22.23" rx="4" ry="4" style="fill:#fcf3dc"/><path d="M26,0H42.59a4,4,0,0,1,4,4V18.23a4,4,0,0,1-4,4H26a0,0,0,0,1,0,0V0A0,0,0,0,1,26,0Z" style="fill:#f9e3c7"/><path d="M4,22.23H6V0H4A4,4,0,0,0,0,4V18.23A4,4,0,0,0,4,22.23Z" style="fill:#f9e3c7"/><rect x="4.61" y="4.18" width="16.39" height="9.53" rx="4.5" ry="4.5" style="fill:#fffaf4"/><rect x="1.96" y="2.65" width="42.35" height="16.94" rx="3" ry="3" style="fill:none;stroke:#93c9c7;stroke-miterlimit:10;stroke-width:1.0271754124103px"/><circle cx="5" cy="12.29" r="1" style="fill:#ad9984"/><circle cx="41" cy="12.29" r="1" style="fill:#ad9984"/></symbol></defs><title>Artboard 26</title><g id="posts"><use width="47.7" height="23.29" xlink:href="#fzSign"/></g></svg>