<svg id="Layer_1" data-name="Layer 1" xmlns="http://www.w3.org/2000/svg" viewBox="0 0 90.1 56.01">
  <defs>
    <style>
      .cls-1 {
        fill: #87786e;
      }

      .cls-2 {
        fill: #ad9984;
      }

      .cls-3 {
        fill: #a3907e;
      }

      .cls-4 {
        fill: #b5a08c;
      }

      .cls-5 {
        fill: #f8f3dc;
      }

      .cls-6 {
        fill: none;
        stroke: #d8c2a4;
        stroke-miterlimit: 10;
        stroke-width: 1.17px;
      }
    </style>
  </defs>
  <title>Artboard 1</title>
  <path class="cls-1" d="M87.83,55.49H4a11.56,11.56,0,0,1-1.42-.59c-1-.47-1.62-.79-1.94-1.38a2.62,2.62,0,0,1,0-2S2.19,46.68,2,3.26a.07.07,0,0,1,0,0,2.07,2.07,0,0,1,.08-.55,2,2,0,0,1,.5-.82A2.48,2.48,0,0,1,4,1.26C6,1.07,77.71.11,86.37,0a4.53,4.53,0,0,1,2.88,1.84,4.08,4.08,0,0,1,.58,1.42V53.49A2,2,0,0,1,87.83,55.49Z"/>
  <path class="cls-2" d="M0,0H85.85a2,2,0,0,1,2,2V52.23a2,2,0,0,1-2,2H2a2,2,0,0,1-2-2V0A0,0,0,0,1,0,0Z"/>
  <path class="cls-3" d="M0,29.22H87.85a0,0,0,0,1,0,0v23a2,2,0,0,1-2,2H2a2,2,0,0,1-2-2v-23a0,0,0,0,1,0,0Z"/>
  <rect class="cls-4" x="30.44" y="8.04" width="52.36" height="13.88" rx="2" ry="2"/>
  <g>
    <path class="cls-5" d="M30.88,19.15a2.52,2.52,0,0,1,1,2.12,3.83,3.83,0,0,0,.06.86.77.77,0,0,1,.51.51.73.73,0,0,1-.12.72.83.83,0,0,1-.71.34h0a1.17,1.17,0,0,1-1-.68,4.17,4.17,0,0,1-.3-1.75,1.26,1.26,0,0,0-.62-1.05,2.43,2.43,0,0,0-.81-.35H27.09V23a.78.78,0,0,1-.24.57A.81.81,0,0,1,25.47,23V14.42a.8.8,0,0,1,.8-.81h2.62a3,3,0,0,1,2.21.93A3.11,3.11,0,0,1,32,16.83,2.91,2.91,0,0,1,30.88,19.15Zm-2-.9A1.48,1.48,0,0,0,30,17.81a1.45,1.45,0,0,0,.43-1.06,1.49,1.49,0,0,0-1.5-1.51h-1.8v3Z"/>
    <path class="cls-5" d="M41.22,20a.69.69,0,0,1-.21.52.8.8,0,0,1-.56.2H35.8a1.74,1.74,0,0,0,.5,1,2,2,0,0,0,1.36.65A2.18,2.18,0,0,0,39.22,22a.77.77,0,0,1,.58-.23.58.58,0,0,1,.51.19.64.64,0,0,1,0,.95,3.68,3.68,0,0,1-2.57,1,3.47,3.47,0,0,1-2.56-1.08,3.61,3.61,0,0,1-1-2.57,3.65,3.65,0,0,1,1-2.58,3.32,3.32,0,0,1,2.49-1.07,3.46,3.46,0,0,1,2.46.95,3.53,3.53,0,0,1,1.09,2.44ZM37.7,17.93a2,2,0,0,0-1.36.52,1.85,1.85,0,0,0-.61,1h4.13a2,2,0,0,0-.71-1A2.47,2.47,0,0,0,37.7,17.93Z"/>
    <path class="cls-5" d="M48.06,17.34a.8.8,0,0,1,.23,1.08.73.73,0,0,1-.49.33.78.78,0,0,1-.59-.12,2.69,2.69,0,0,0-1.35-.54,1.33,1.33,0,0,0-.87.26c-.16.11-.23.2-.23.28a.44.44,0,0,0,0,.19A.86.86,0,0,0,45,19,3,3,0,0,0,46,19.3h0a6.56,6.56,0,0,1,1.42.44,2.07,2.07,0,0,1,.95.81,2,2,0,0,1,.31,1,2,2,0,0,1-.93,1.7,3.23,3.23,0,0,1-1.89.58,4.16,4.16,0,0,1-2.61-1,.78.78,0,0,1-.27-.51.76.76,0,0,1,.17-.57.71.71,0,0,1,.53-.29.73.73,0,0,1,.57.18,2.45,2.45,0,0,0,1.61.64,1.76,1.76,0,0,0,1-.28c.17-.15.26-.27.26-.37a.37.37,0,0,0,0-.21.47.47,0,0,0-.19-.18,3.44,3.44,0,0,0-1.17-.41h0a5.89,5.89,0,0,1-1.36-.42,2.25,2.25,0,0,1-.92-.81,1.67,1.67,0,0,1-.25-.92,1.94,1.94,0,0,1,.86-1.6,3.13,3.13,0,0,1,1.8-.54A4,4,0,0,1,48.06,17.34Z"/>
    <path class="cls-5" d="M57.31,20a.66.66,0,0,1-.22.52.78.78,0,0,1-.56.2H51.89a1.73,1.73,0,0,0,.49,1,2,2,0,0,0,1.37.65A2.14,2.14,0,0,0,55.3,22a.81.81,0,0,1,.59-.23.6.6,0,0,1,.51.19.66.66,0,0,1,0,.95,3.68,3.68,0,0,1-2.58,1,3.43,3.43,0,0,1-2.55-1.08,3.61,3.61,0,0,1-1.05-2.57,3.65,3.65,0,0,1,1.05-2.58,3.29,3.29,0,0,1,2.49-1.07,3.46,3.46,0,0,1,2.46.95,3.53,3.53,0,0,1,1.09,2.44Zm-3.53-2.07a2,2,0,0,0-1.35.52,1.93,1.93,0,0,0-.62,1H56a2,2,0,0,0-.71-1A2.5,2.5,0,0,0,53.78,17.93Z"/>
    <path class="cls-5" d="M62.1,16.54a.79.79,0,0,1,.58.23.76.76,0,0,1,.24.56.78.78,0,0,1-.24.57.8.8,0,0,1-.58.24h-.37v4.08a.75.75,0,0,1,.57.24.81.81,0,0,1,0,1.15.78.78,0,0,1-.57.23,1.62,1.62,0,0,1-1.62-1.62V18.14h-.42a.74.74,0,0,1-.57-.23.8.8,0,0,1,0-1.14.74.74,0,0,1,.57-.23h.42V14.42a.75.75,0,0,1,.24-.57.8.8,0,0,1,.58-.24.78.78,0,0,1,.57.24.74.74,0,0,1,.23.57v2.12Z"/>
    <path class="cls-5" d="M27.82,31.38a.81.81,0,0,1,0,1.15.8.8,0,0,1-.57.24H24.93v7.8a.8.8,0,0,1-.8.81.82.82,0,0,1-.81-.81v-7.8H21a.78.78,0,0,1-.57-.24A.81.81,0,0,1,21,31.15h6.24A.78.78,0,0,1,27.82,31.38Z"/>
    <path class="cls-5" d="M30.53,40.31a3.66,3.66,0,0,1-1-2.58,3.7,3.7,0,0,1,1-2.59A3.34,3.34,0,0,1,35,34.71a.91.91,0,0,1,.28-.46.74.74,0,0,1,.51-.18.73.73,0,0,1,.52.23.79.79,0,0,1,.23.56V40.6a.75.75,0,0,1-.23.55.73.73,0,0,1-.52.23.74.74,0,0,1-.51-.18.89.89,0,0,1-.28-.45,3.36,3.36,0,0,1-4.42-.44Zm.57-2.58a2.12,2.12,0,0,0,.53,1.48,1.74,1.74,0,0,0,1.37.6,1.79,1.79,0,0,0,1.39-.6,2.08,2.08,0,0,0,.55-1.47,2.14,2.14,0,0,0-.56-1.49A1.79,1.79,0,0,0,33,35.63a1.76,1.76,0,0,0-1.36.61A2.15,2.15,0,0,0,31.1,37.73Z"/>
    <path class="cls-5" d="M40.93,35a2.26,2.26,0,0,1,.92-.64,2.62,2.62,0,0,1,1.07-.23,1,1,0,0,1,.7.22.7.7,0,0,1,.23.54.79.79,0,0,1-.77.78c-.91,0-1.63.73-2.15,2.2V40.6a.72.72,0,0,1-.24.55.77.77,0,0,1-.56.23.79.79,0,0,1-.78-.78V34.84a.74.74,0,0,1,.23-.54.78.78,0,0,1,.55-.22.8.8,0,0,1,.56.22.71.71,0,0,1,.24.54Z"/>
    <path class="cls-5" d="M46.31,40.32a3.5,3.5,0,0,1-1-2.56,3.62,3.62,0,0,1,1-2.6,3.4,3.4,0,0,1,4.44-.48.73.73,0,0,1,.28-.43.76.76,0,0,1,.51-.18.79.79,0,0,1,.76.77v5.64A3.52,3.52,0,0,1,48.79,44a3.33,3.33,0,0,1-1.54-.36.73.73,0,0,1-.39-.45.81.81,0,0,1,0-.61.79.79,0,0,1,.45-.39.81.81,0,0,1,.61,0,2.06,2.06,0,0,0,.95.2A1.72,1.72,0,0,0,50,42a1.91,1.91,0,0,0,.68-1.12,3.37,3.37,0,0,1-4.39-.53Zm.55-2.55a2.12,2.12,0,0,0,.56,1.47,1.87,1.87,0,0,0,2.76,0,2.11,2.11,0,0,0,.55-1.49,2.21,2.21,0,0,0-.56-1.52,1.8,1.8,0,0,0-2.74,0A2.16,2.16,0,0,0,46.86,37.77Z"/>
    <path class="cls-5" d="M62,37.53a.67.67,0,0,1-.21.52.8.8,0,0,1-.56.2H56.56a1.77,1.77,0,0,0,.5,1,2,2,0,0,0,1.36.65A2.13,2.13,0,0,0,60,39.51a.76.76,0,0,1,.59-.24.63.63,0,0,1,.51.19.66.66,0,0,1,0,.95,3.7,3.7,0,0,1-2.58,1,3.44,3.44,0,0,1-2.56-1.08,3.59,3.59,0,0,1-1-2.57,3.65,3.65,0,0,1,1-2.58,3.35,3.35,0,0,1,2.49-1.07,3.39,3.39,0,0,1,2.46,1A3.53,3.53,0,0,1,62,37.46Zm-3.52-2.07A2.08,2.08,0,0,0,57.1,36a2,2,0,0,0-.61,1h4.13a1.93,1.93,0,0,0-.71-1A2.51,2.51,0,0,0,58.46,35.46Z"/>
    <path class="cls-5" d="M66.78,34.07a.81.81,0,0,1,.57.23.81.81,0,0,1-.57,1.38h-.37v4.07A.78.78,0,0,1,67,40a.81.81,0,0,1,.23.58.74.74,0,0,1-.23.57.78.78,0,0,1-.57.24,1.56,1.56,0,0,1-1.15-.48,1.59,1.59,0,0,1-.47-1.15V35.68h-.43a.8.8,0,0,1-.8-.81.79.79,0,0,1,.8-.8h.43V32a.78.78,0,0,1,.24-.57.81.81,0,0,1,1.38.57v2.12Z"/>
  </g>
  <rect class="cls-6" x="5.79" y="7.05" width="77.05" height="41.56"/>
</svg>
