<svg id="Layer_1" data-name="Layer 1" xmlns="http://www.w3.org/2000/svg" viewBox="0 0 74.52 86.1"><title>star-slider</title><path d="M37.26,68.9a19.23,19.23,0,0,1,8.39,1L59.53,75c2.5.82,4.48.78,5.68,0L37.26,45.17Z" style="fill:#dda243"/><path d="M66,70.48,63.33,63.6a13.15,13.15,0,0,1,0-8.22L37.26,45.06v.11L65.21,75.08C66.51,74.29,66.9,72.69,66,70.48Z" style="fill:#efb652"/><path d="M74.34,38.71,37.26,45v.09L63.31,55.38a15.94,15.94,0,0,1,4-6.94l5.46-5.19C74.34,41.69,74.83,40.09,74.34,38.71Z" style="fill:#dda243"/><path d="M68.49,35.12,62,34a20.4,20.4,0,0,1-7.73-3.36l-17,14.19V45l37.08-6.26C73.75,37.06,71.76,35.72,68.49,35.12Z" style="fill:#ffc95f"/><path d="M47.69,23.09,40.58,4.16c-.95-2.6-2.14-4-3.32-4.15V44.86l17-14.19A17.81,17.81,0,0,1,47.69,23.09Z" style="fill:#e8b564"/><path d="M6,86c1.08.38,2.9-.31,5.31-2.2L26.73,72.37A22.46,22.46,0,0,1,37.26,68.9v-24Z" style="fill:#c6944a"/><path d="M10.65,55.69a19.46,19.46,0,0,1-.32,11.68L5.6,80.51C4.51,83.7,4.74,85.57,6,86L36.91,45.34Z" style="fill:#ffc95f"/><path d="M.21,35.9c-.54,1.74,0,3.89,1.62,6.12l5.68,7a18.07,18.07,0,0,1,3.14,6.62L36.91,45.34l.17-.22Z" style="fill:#efb652"/><path d="M22.65,27.72a17.52,17.52,0,0,1-8.85,3.51L6.24,32c-3.33.34-5.4,1.83-6,3.89l36.87,9.22.18-.23v-.12Z" style="fill:#ffc95f"/><path d="M37.26,0C36.11-.12,35,1,34.11,3.37L28,20.89a14.84,14.84,0,0,1-5.33,6.83L37.26,44.77Z" style="fill:#ffd576"/><g id="dots"><path d="M6.8,37a.9.9,0,0,1-1.1.63c-.48-.15-.63-.63-.3-1.26a1.08,1.08,0,0,1,1.28-.64C7.13,35.86,7.13,36.47,6.8,37Z" style="fill:#fff"/><path d="M11.38,79.66c-.48.64-1.27.94-1.73.64s-.48-1.09,0-1.72,1.28-.93,1.73-.63S11.84,79,11.38,79.66Z" style="fill:#fff"/><path d="M12.78,39.93c-.15.49-1.09.64-1.88.3s-1.28-.93-1.1-1.41,1.1-.64,1.89-.3A1.19,1.19,0,0,1,12.78,39.93Z" style="fill:#fff"/><path d="M15.63,74.33a1.52,1.52,0,0,1-1.88.48c-.64-.3-.64-1.08-.15-1.72a1.6,1.6,0,0,1,1.88-.63A1.29,1.29,0,0,1,15.63,74.33Z" style="fill:#fff"/><path d="M16.58,41.47A1.41,1.41,0,0,1,18.46,41c.79.3,1.27.93.94,1.57a1.41,1.41,0,0,1-1.88.48A1.38,1.38,0,0,1,16.58,41.47Z" style="fill:#fff"/><path d="M20.68,68.87a1.55,1.55,0,0,1-2,.49,1.25,1.25,0,0,1-.3-1.87,1.54,1.54,0,0,1,2-.49A1.21,1.21,0,0,1,20.68,68.87Z" style="fill:#fff"/><path d="M26.81,62.93a1.71,1.71,0,0,1-2.37.31A1.61,1.61,0,0,1,23.8,61a1.71,1.71,0,0,1,2.37-.31C27,61.37,27.3,62.3,26.81,62.93Z" style="fill:#fff"/><path d="M26.81,45.87a1.63,1.63,0,0,1-2.22.94,1.6,1.6,0,0,1-.94-2,1.86,1.86,0,0,1,2.22-.94A1.38,1.38,0,0,1,26.81,45.87Z" style="fill:#fff"/><path d="M38,7.08c.63,0,1.09.63,1.09,1.41A1.29,1.29,0,0,1,38,9.91c-.64,0-1.1-.63-1.1-1.42S37.38,7.08,38,7.08Z" style="fill:#fff"/><path d="M38,13.32a1.42,1.42,0,1,1-1.28,1.41A1.39,1.39,0,0,1,38,13.32Z" style="fill:#fff"/><path d="M38,19.89a1.42,1.42,0,1,1-1.43,1.41A1.41,1.41,0,0,1,38,19.89Z" style="fill:#fff"/><path d="M38,26.61a1.62,1.62,0,0,1,1.73,1.57A1.72,1.72,0,0,1,38,29.74a1.57,1.57,0,1,1,0-3.13Z" style="fill:#fff"/><path d="M30.3,57.45a2,2,0,1,1,2-2A2.18,2.18,0,0,1,30.3,57.45Z" style="fill:#fff"/><path d="M34.22,49.31a2,2,0,1,1,2-2A2,2,0,0,1,34.22,49.31Z" style="fill:#fff"/><path d="M38,40.54a2,2,0,1,1,2-2A2.07,2.07,0,0,1,38,40.54Z" style="fill:#fff"/><path d="M40.2,45.39a2,2,0,1,1,2,2A2.18,2.18,0,0,1,40.2,45.39Z" style="fill:#fff"/><path d="M44.15,55.4a2,2,0,1,1,2-2A2,2,0,0,1,44.15,55.4Z" style="fill:#fff"/><path d="M50.77,61a1.91,1.91,0,0,1-2.52.15,1.5,1.5,0,0,1,0-2.2,1.9,1.9,0,0,1,2.52-.16A1.41,1.41,0,0,1,50.77,61Z" style="fill:#fff"/><path d="M49.53,42.59a1.49,1.49,0,0,1,1.27-1.87,1.92,1.92,0,0,1,2,1.26,1.51,1.51,0,0,1-1.28,1.87A1.58,1.58,0,0,1,49.53,42.59Z" style="fill:#fff"/><path d="M54.72,64.8a1.44,1.44,0,0,1-2-.15,1.13,1.13,0,0,1-.31-1.72,1.47,1.47,0,0,1,2,.15A1.31,1.31,0,0,1,54.72,64.8Z" style="fill:#fff"/><path d="M59.46,69.17A1.45,1.45,0,0,1,57.57,69a1.34,1.34,0,0,1-.48-1.71,1.44,1.44,0,0,1,1.88.15C59.61,67.94,59.91,68.87,59.46,69.17Z" style="fill:#fff"/><path d="M58.52,42.25a1.4,1.4,0,0,1-1.73-.78c-.16-.63.48-1.27,1.27-1.42a1.4,1.4,0,0,1,1.73.79C59.91,41.47,59.31,42.1,58.52,42.25Z" style="fill:#fff"/><path d="M63.38,72a1.22,1.22,0,0,1-1.43.3c-.31-.3-.31-.78.15-1.27a1.22,1.22,0,0,1,1.43-.3C63.86,70.89,63.86,71.53,63.38,72Z" style="fill:#fff"/><path d="M65.29,40.87c-.79.15-1.73-.15-1.73-.64S64,39.15,65,39c.79-.15,1.74.15,1.74.63S66.08,40.69,65.29,40.87Z" style="fill:#fff"/><path d="M70.79,39.93c-.49.15-1-.3-1.1-.78s.15-1.09.64-1.09c.49-.15.94.31,1.09.79A1,1,0,0,1,70.79,39.93Z" style="fill:#fff"/></g></svg>