<svg xmlns="http://www.w3.org/2000/svg" viewBox="0 0 1024 748">
  <defs>
    <style>
      .cls-1 {
        fill: #b3b3b3;
      }

      .cls-1, .cls-14, .cls-15, .cls-2 {
        fill-rule: evenodd;
      }

      .cls-2 {
        fill: #ccc;
      }

      .cls-3 {
        fill: #93c9c7;
      }

      .cls-4 {
        fill: #dcf1ef;
      }

      .cls-5 {
        fill: #c0e5e7;
      }

      .cls-6 {
        fill: #666;
      }

      .cls-13, .cls-15, .cls-6 {
        opacity: 0.1;
      }

      .cls-7 {
        font-size: 16px;
      }

      .cls-12, .cls-7, .cls-8 {
        fill: #3d6d84;
      }

      .cls-12, .cls-7 {
        font-family: Quicksand-Bold, Quicksand;
        font-weight: 700;
      }

      .cls-13, .cls-9 {
        fill: #12100b;
      }

      .cls-9 {
        opacity: 0.07;
      }

      .cls-10 {
        fill: none;
      }

      .cls-11, .cls-14 {
        fill-opacity: 0.07;
      }

      .cls-12 {
        font-size: 17.31px;
      }

      .cls-15 {
        fill: gray;
      }
    </style>
  </defs>
  <title>qzSWqz-swq</title>
  <g id="sw05">
    <g id="sw05-bg">
      <polygon class="cls-1" points="907.24 590 941.42 509.86 934.75 507.07 899.38 590 907.24 590"/>
      <polygon class="cls-2" points="908.1 588 924.61 549.3 917.86 546.66 900.23 588 908.1 588"/>
      <path class="cls-3" d="M1014.14,562.5c-5.21-35.56-29.67-62.27-52.67-80.3a54,54,0,0,0-6.93-5.32,5,5,0,0,0-1-.65,1.36,1.36,0,0,0-.24-.13c-34-14.37-79.14-4.28-109.26,20.45a31.14,31.14,0,0,1,19.47,3.65,30.12,30.12,0,0,1,9.52,8.6,53.89,53.89,0,0,1,35.65,15.06,81.7,81.7,0,0,1,41.5,17.54,102.59,102.59,0,0,1,35.65,15.06,54.6,54.6,0,0,1,29,12.26C1014.67,566.61,1014.43,564.53,1014.14,562.5Z"/>
    </g>
    <path id="sw05-5" class="cls-4" d="M1013.14,561.5c-5.21-35.56-29.67-62.27-52.67-80.3l.5.46c18,16.8,20.78,42.76,23.08,64.26.45,4.17.68,7.55.8,9.54a54.6,54.6,0,0,1,29,12.26C1013.67,565.61,1013.43,563.53,1013.14,561.5Z"/>
    <path id="sw05-4" class="cls-5" d="M984.05,545.92c-2.3-21.5-5.07-47.46-23.08-64.26l-.5-.46c-2.75-2.16-5.48-4.19-8.15-6.1l-3.12,65.3a102.59,102.59,0,0,1,35.65,15.06C984.73,553.47,984.5,550.09,984.05,545.92Z"/>
    <path id="sw05-3" class="cls-4" d="M907.7,522.86a81.7,81.7,0,0,1,41.5,17.54c9.37-33.52,11.38-61.81,3.12-65.3S925.18,492.78,907.7,522.86Z"/>
    <path id="sw05-2" class="cls-5" d="M872.05,507.8a53.89,53.89,0,0,1,35.65,15.06c8.16-14,16.62-26.14,24.17-34.7,8.62-9.77,16-14.92,20.45-13.06C929.86,465.62,896.51,480.68,872.05,507.8Z"/>
    <path id="sw05-1" class="cls-4" d="M952.32,475.1c-34-14.37-79.14-4.28-109.26,20.45a31.14,31.14,0,0,1,19.47,3.65,30.12,30.12,0,0,1,9.52,8.6C896.51,480.68,929.86,465.62,952.32,475.1Z"/>
    <path id="sw05-shad" class="cls-6" d="M1013.14,561.5c-6.17-42.08-40.75-70.48-52.67-80.3-2.44-2-4.46-3.57-5.67-4.49,1.43,3.11,5.89,13.77,2.2,26.29-5.87,19.89-26.78,25.68-28,26a70.62,70.62,0,0,1,11,5,71.55,71.55,0,0,1,9,6,117.15,117.15,0,0,1,35.85,15.46,54.6,54.6,0,0,1,29,12.26C1013.67,565.61,1013.43,563.53,1013.14,561.5Z"/>
    <text class="cls-7" transform="translate(936.07 503.96)">5</text>
  </g>
  <g id="sw03">
    <g id="sw03-bg">
      <path id="sw03-2" data-name="sw03" class="cls-3" d="M729.22,576.77l.11-.13-.13,0-5.86-43-.56-.38h0l.54.37L685.4,507.46h0l-.1.34-47.13,6.95-.15-.25-.26.31-.14,0h0l.06.09-29.11,35.69-.22,0h0l0,.26,0,0h0l6,43.7.8-.44,37.12,25.6h0l47.63-7,28.74-35.24.69.15v0h0Z"/>
      <polygon class="cls-5" points="667.87 563.14 667.84 563.13 667.83 563.16 698.9 612.73 728.33 576.64 667.88 563.1 667.86 563.12 667.87 563.14"/>
      <polygon class="cls-5" points="667.82 563.13 667.79 563.15 667.8 563.12 667.77 563.12 613.34 593.59 613.34 593.6 651.26 619.75 667.83 563.16 667.82 563.13"/>
      <path class="cls-4" d="M698.9,612.73l-31.07-49.57-16.57,56.59h0Z"/>
    </g>
    <path id="sw03-5" class="cls-4" d="M721.78,533.24h0l.54.37L667.9,564.09l0,0,60.41,13.53v0h0l-6-44Z"/>
    <polygon id="sw03-4" class="cls-5" points="667.84 564.08 667.86 564.07 667.85 564.09 667.88 564.1 722.32 533.62 684.4 507.46 684.4 507.46 667.82 564.06 667.84 564.08"/>
    <polygon id="sw03-3" class="cls-4" points="684.61 507.75 636.62 514.83 636.61 514.84 667.91 564.78 684.61 507.75"/>
    <polygon id="sw03-2-2" data-name="sw03-2" class="cls-5" points="668.32 564.53 668.3 564.5 668.33 564.51 668.34 564.48 637.02 514.5 607.34 550.88 668.29 564.54 668.32 564.53"/>
    <polygon id="sw03-1" class="cls-4" points="607.34 550.58 607.34 550.58 613.34 594.59 667.77 564.12 607.34 550.58"/>
    <path id="sw03-center" class="cls-8" d="M662.6,565.29a5,5,0,1,0,5-5A5,5,0,0,0,662.6,565.29Z"/>
    <path id="sw03-shad" class="cls-9" d="M723.72,535.2,685.1,507,637,515l44,3,31,21,6,26,2,2Z"/>
    <text class="cls-7" transform="translate(658.79 536.62)">3</text>
  </g>
  <g id="sw04">
    <g id="sw04-bg">
      <polygon class="cls-3" points="720.65 587.12 724.72 526.12 770.74 485.86 831.74 489.93 872 535.95 867.93 596.95 821.91 637.21 760.91 633.14 720.65 587.12"/>
      <polygon class="cls-4" points="719.65 586.12 723.72 525.12 769.74 484.86 830.74 488.93 871 534.95 866.93 595.95 820.91 636.21 759.91 632.14 719.65 586.12"/>
      <polygon class="cls-5" points="769.71 484.85 795.36 560.58 723.71 525.1 769.71 484.85"/>
      <polygon class="cls-5" points="820.9 636.2 795.26 560.47 866.91 595.95 820.9 636.2"/>
      <polygon class="cls-5" points="719.63 586.12 795.36 560.48 759.89 632.13 719.63 586.12"/>
      <polygon class="cls-5" points="870.98 534.93 795.26 560.57 830.73 488.92 870.98 534.93"/>
    </g>
    <path id="sw04-5" class="cls-10" d="M869.42,535.28h0l.57.65-75.57,25.59,0,0q2.28,6.74,4.57,13.45l27.65,2.51L865.91,597h0Z"/>
    <polygon id="sw04-4" class="cls-10" points="794.33 561.49 794.36 561.48 794.35 561.51 794.38 561.53 869.98 535.93 829.74 489.93 829.73 489.93 794.32 561.46 794.33 561.49"/>
    <polygon id="sw04-3" class="cls-10" points="829.73 488.93 768.74 484.86 768.72 484.87 794.32 560.46 829.73 488.93"/>
    <polygon id="sw04-2" class="cls-10" points="794.28 561.51 794.26 561.47 794.3 561.49 794.32 561.46 768.72 485.87 722.72 526.11 794.24 561.52 794.28 561.51"/>
    <path id="sw04-1" class="cls-10" d="M722.72,526.11h0l-4.07,61A113.22,113.22,0,0,1,787,576q3.62-7.25,7.24-14.48Z"/>
    <path id="sw04-1-shad" class="cls-11" d="M794.29,561.56h0v0l0,0L720,586l3,4,37,42,62,5,46-40-68-34Z"/>
    <path id="sw04-center" class="cls-8" d="M790.9,556.26a6.29,6.29,0,1,0,8.7,1.85A6.29,6.29,0,0,0,790.9,556.26Z"/>
    <path id="_04-shad-1" data-name="04-shad-1" class="cls-9" d="M870.37,535.39l-40-46.51L770,484l55,17.86,33.53,37.86q3.24,18.39,6.49,36.77h3.24Z"/>
    <text class="cls-12" transform="translate(790.84 519.12)">4</text>
  </g>
  <g id="sw02">
    <polygon id="sw02-shadBack" class="cls-3" points="444.81 499.82 401.47 477.33 353.19 484.61 318.41 518.88 388.53 555.26 458.65 591.65 466.65 543.49 444.81 499.82"/>
    <polygon id="sw02-5" class="cls-5" points="387.53 555.26 457.65 591.65 465.65 543.49 387.53 555.26 387.53 555.26"/>
    <polygon id="sw02-4" class="cls-4" points="387.53 555.26 465.65 543.49 465.65 543.49 443.81 499.82 443.81 499.82 387.53 555.26 387.53 555.26"/>
    <polygon id="sw02-3" class="cls-5" points="443.81 499.82 400.47 477.33 387.53 555.26 443.81 499.82"/>
    <polygon id="sw02-2" class="cls-4" points="387.53 555.26 400.47 477.33 400.47 477.33 352.19 484.61 352.19 484.61 387.53 555.26 387.53 555.26"/>
    <polygon id="sw02-1" class="cls-5" points="387.53 555.26 352.19 484.61 317.41 518.88 387.53 555.26 387.53 555.26"/>
    <path id="sw02-center" class="cls-8" d="M384.53,547.81a5.81,5.81,0,1,0,7.51,3.37A5.82,5.82,0,0,0,384.53,547.81Z"/>
    <path id="sw02-shad" class="cls-13" d="M466,543l-22-43-43-22,32,32,23,35q-2,22-4,44l6,2Q462,567,466,543Z"/>
    <text class="cls-7" transform="translate(406.89 513.96)">2</text>
  </g>
  <g id="Layer_1" data-name="Layer 1">
    <g id="sw01-bg">
      <polygon id="pole-top" class="cls-1" points="190.86 377.1 198.62 376.27 217.27 550.86 209.73 553.77 190.86 377.1"/>
      <polygon id="pole-bottom" class="cls-2" points="195.84 423.84 203.6 422.83 217.27 550.86 209.73 553.77 195.84 423.84"/>
      <path class="cls-3" d="M271,361.23c-7.59-5.68-25.45-18.76-51-23.23-14.42-2.53-26.57-1.49-27.88-.75l-.59,0C152.26,341.49,115,372,99,408l-.44,1a17.41,17.41,0,0,0,33.78-3.61A127,127,0,0,1,140.84,382a128.08,128.08,0,0,0-8.1,21.9l-.39,1.44a22.86,22.86,0,0,0,41.53-4.44c.54.7,10.07,12.55,25.59,10.9s22.37-15.27,22.75-16.06l.14,0c5,7.14,13.95,12.13,22.07,11.31s15.91-7.61,19.15-15.72l.17,0c0-.05-.06-.11-.08-.17v0h0a129.59,129.59,0,0,0-7.94-13.62A126,126,0,0,1,264,391.07a17.56,17.56,0,0,0,34-3A137.93,137.93,0,0,0,271,361.23Zm-111.14-6.91c-.52.52-1,1.07-1.55,1.62C158.83,355.39,159.34,354.84,159.86,354.32Zm-7.42,8.59q.78-1,1.59-2Q153.22,361.88,152.44,362.91ZM140.84,382c.47-1,.95-1.94,1.44-2.9C141.79,380.09,141.31,381.05,140.84,382Zm1.46-2.94c.48-.94,1-1.87,1.48-2.79C143.28,377.22,142.78,378.15,142.3,379.09Zm1.53-2.88c.49-.9,1-1.79,1.51-2.67C144.83,374.42,144.32,375.31,143.83,376.21Zm1.59-2.8c.51-.87,1-1.72,1.55-2.56C146.44,371.69,145.93,372.54,145.42,373.41Zm1.66-2.75c.52-.82,1-1.63,1.57-2.43C148.12,369,147.6,369.84,147.08,370.66Zm1.73-2.66c.52-.78,1-1.55,1.58-2.3C149.85,366.45,149.33,367.22,148.81,368Zm1.78-2.59c.53-.73,1.06-1.46,1.59-2.17C151.65,364,151.12,364.68,150.59,365.41Zm3.75-4.92c.52-.64,1-1.28,1.59-1.9C155.39,359.21,154.86,359.85,154.34,360.49Zm3.53-4.08c-.53.57-1.05,1.16-1.57,1.76C156.82,357.57,157.34,357,157.87,356.41Zm9-8.32,1.43-1.1Zm-6.46,5.72,1.53-1.49Zm2.11-2c.5-.46,1-.92,1.5-1.36C163.48,350.88,163,351.34,162.48,351.8Zm2.15-1.91,1.47-1.23Zm9-6.44c.44-.26.88-.52,1.32-.76C174.51,342.93,174.07,343.19,173.63,343.45Zm-4.57,3c.46-.33.93-.67,1.4-1C170,345.75,169.52,346.09,169.06,346.42Zm2.27-1.55c.45-.29.9-.59,1.36-.87C172.23,344.28,171.78,344.58,171.33,344.87Zm17.77-7.24-.84.17Zm-2.41.49c-.35.08-.69.18-1,.27C186,338.3,186.34,338.2,186.69,338.12Zm-2.4.64-1.11.36Zm-2.37.77-1.17.46Zm-2.35.92-1.22.56Zm-2.32,1.06c-.43.2-.85.43-1.27.65C176.4,341.94,176.82,341.71,177.25,341.51Z"/>
      <path class="cls-5" d="M191,337.37c.05-.73,12.76-2,28,.63,25.55,4.47,43.41,17.55,51,23.23a137.93,137.93,0,0,1,27,26.85,17.56,17.56,0,0,1-34,3,123,123,0,0,0-21-28.84c-6.56-6.68-13.63-13.89-25-18.89C203.16,337.24,191,338.08,191,337.37Z"/>
      <path class="cls-4" d="M262.75,391.32c0-.05-.06-.11-.08-.17v0h0c-16.54-32.86-46-56.62-72.12-53.84,9.58-1,22.18,24.41,30.57,58h0l.09.13c0,.11.05.22.08.33l.14,0c5,7.14,13.95,12.13,22.07,11.31s15.91-7.61,19.15-15.72Z"/>
      <path class="cls-5" d="M221.22,395.77c-7.57-35.48-21.3-59.48-30.69-58.48s-17.74,27.37-17.65,63.64c.54.7,10.07,12.55,25.59,10.9S220.84,396.56,221.22,395.77Z"/>
      <path class="cls-4" d="M172.88,400.93c1.05-34.84,8-62.6,17.65-63.64-25.81,2.77-49.34,31.58-58.79,66.64l-.39,1.44a22.86,22.86,0,0,0,41.53-4.44Z"/>
      <path class="cls-5" d="M98,408l-.44,1a17.41,17.41,0,0,0,33.78-3.61c9.19-35.71,33-65.28,59.18-68.08C151.26,341.49,114,372,98,408Z"/>
    </g>
    <path id="sw01-5" class="cls-10" d="M191,337.37c.05-.73,12.76-2,28,.63,25.55,4.47,43.41,17.55,51,23.23a137.93,137.93,0,0,1,27,26.85,17.56,17.56,0,0,1-34,3,123,123,0,0,0-21-28.84c-6.56-6.68-13.63-13.89-25-18.89C203.16,337.24,191,338.08,191,337.37Z"/>
    <path id="sw01-4" class="cls-10" d="M262.75,391.32c0-.05-.06-.11-.08-.17v0h0c-16.54-32.86-46-56.62-72.12-53.84,9.58-1,22.18,24.41,30.57,58h0l.09.13c0,.11.05.22.08.33l.14,0c5,7.14,13.95,12.13,22.07,11.31s15.91-7.61,19.15-15.72Z"/>
    <path id="sw01-3" class="cls-10" d="M221.22,395.77c-7.57-35.48-21.3-59.48-30.69-58.48s-17.74,27.37-17.65,63.64c.54.7,10.07,12.55,25.59,10.9S220.84,396.56,221.22,395.77Z"/>
    <path id="sw01-2" class="cls-10" d="M172.88,400.93c1.05-34.84,8-62.6,17.65-63.64-25.81,2.77-49.34,31.58-58.79,66.64l-.39,1.44a22.86,22.86,0,0,0,41.53-4.44Z"/>
    <path id="sw01-1" class="cls-10" d="M98,408l-.44,1a17.41,17.41,0,0,0,33.78-3.61c9.19-35.71,33-65.28,59.18-68.08C151.26,341.49,114,372,98,408Z"/>
    <g id="sw01-shad">
      <path class="cls-14" d="M97.57,409a16.76,16.76,0,0,0,6.43,9,17.06,17.06,0,0,0,11.9,2.71A17.88,17.88,0,0,0,128,414a17.2,17.2,0,0,0,3.34-8.63Z"/>
      <path class="cls-14" d="M262.75,391.32A17.73,17.73,0,0,0,297,388Z"/>
      <path class="cls-14" d="M221.22,395.77c4.87,7.17,13.95,12.19,22.22,11.31s16.07-7.7,19.31-15.76Z"/>
      <path class="cls-14" d="M131.34,405.37c4.89,7.17,13.95,12.2,22.22,11.31s16.07-7.7,19.32-15.75Z"/>
      <path class="cls-14" d="M172.88,400.93c5.54,7.12,16,12,25.61,11s18.81-8,22.73-16.12Z"/>
      <path id="sw01-shad-2" data-name="sw01-shad" class="cls-15" d="M297,388a113.79,113.79,0,0,0-11.07-12.92A112.49,112.49,0,0,0,277,367a134.31,134.31,0,0,1-17.92,9.22c-65.47,27.62-125.85-9.48-154.85,21.79A40.75,40.75,0,0,0,97,409a17.57,17.57,0,0,0,34.07-3.77l.56-.06c5.25,7.16,14,12.16,21.91,11.47,8.13-.71,15.66-7.48,18.87-15.71l1-.11c6,7,15.95,11.78,25,11,9.43-.82,18.26-7.64,22.18-15.91l.64-.06c4.88,7.13,13.92,12.11,22.16,11.23s15.92-7.58,19.22-15.53l.21,0A17.7,17.7,0,0,0,297,388Z"/>
    </g>
    <text class="cls-7" transform="translate(189.76 375.99)">1</text>
  </g>
</svg>
