<svg xmlns="http://www.w3.org/2000/svg" xmlns:xlink="http://www.w3.org/1999/xlink" viewBox="0 0 1024 748">
  <defs>
    <clipPath id="a">
      <rect x="892" y="497" width="132" height="52" style="fill: none"/>
    </clipPath>
  </defs>
  <title>qz-bg</title>
  <g>
    <g>
      <rect y="538" width="1024" height="4" style="fill: #36acbf"/>
      <rect y="539.12" width="1024" height="18.88" style="fill: #33c5dd"/>
      <rect y="540" width="1024" height="17" style="fill: #80d7e0"/>
      <rect y="559" width="1024" height="9" style="fill: #33c5dd"/>
      <rect y="551.71" width="1024" height="15.29" style="fill: #98e6ea"/>
      <rect y="556.71" width="1024" height="15.29" style="fill: #aeedeb"/>
    </g>
    <g>
      <g>
        <g>
          <rect x="942.49" y="502.03" width="1.36" height="3.32" style="fill: #993c37"/>
          <rect x="938.7" y="502.03" width="3.79" height="3.32" style="fill: #d15443"/>
          <rect x="937.17" y="502.03" width="1.61" height="3.32" style="fill: #e86349"/>
        </g>
        <g>
          <g>
            <line x1="938.67" y1="502.76" x2="938.67" y2="505.99" style="fill: none;stroke: #fff;stroke-miterlimit: 10;stroke-width: 0.28619056940078735px"/>
            <line x1="942.49" y1="502.76" x2="942.49" y2="505.99" style="fill: none;stroke: #fff;stroke-miterlimit: 10;stroke-width: 0.28619056940078735px"/>
            <line x1="945.71" y1="502.76" x2="945.71" y2="505.99" style="fill: none;stroke: #fff;stroke-miterlimit: 10;stroke-width: 0.28619056940078735px"/>
            <line x1="935.22" y1="503.39" x2="938.67" y2="503.39" style="fill: none;stroke: #fff;stroke-miterlimit: 10;stroke-width: 0.28619056940078735px"/>
            <line x1="938.65" y1="503.39" x2="942.49" y2="503.39" style="fill: none;stroke: #fff;stroke-miterlimit: 10;stroke-width: 0.28619056940078735px"/>
            <line x1="942.49" y1="503.39" x2="945.77" y2="503.39" style="fill: none;stroke: #fff;stroke-miterlimit: 10;stroke-width: 0.28619056940078735px"/>
            <line x1="942.49" y1="504.38" x2="945.77" y2="504.38" style="fill: none;stroke: #fff;stroke-miterlimit: 10;stroke-width: 0.28619056940078735px"/>
            <line x1="938.68" y1="504.37" x2="942.51" y2="504.37" style="fill: none;stroke: #fff;stroke-miterlimit: 10;stroke-width: 0.28619056940078735px"/>
            <line x1="935.22" y1="504.37" x2="938.67" y2="504.37" style="fill: none;stroke: #fff;stroke-miterlimit: 10;stroke-width: 0.28619056940078735px"/>
            <line x1="935.22" y1="502.76" x2="935.22" y2="505.99" style="fill: none;stroke: #fff;stroke-miterlimit: 10;stroke-width: 0.28619056940078735px"/>
          </g>
          <path d="M943.51,534.5h-6q.5-13.1,1-26.19h4.15Q943.07,521.4,943.51,534.5Z" style="fill: #ebeef5"/>
          <path d="M937.5,534.5l-2.41-.45q.84-12.87,1.69-25.74h1.72Q938,521.41,937.5,534.5Z" style="fill: #fff"/>
          <path d="M945.83,534.18l-2.32.32q-.43-13.1-.86-26.2l1.62.09Z" style="fill: #cdd3df"/>
          <path d="M944.27,508.39h-1.62l-.07-2.4,3.34.15Z" style="fill: #bdc2c9"/>
          <rect x="938.43" y="506.15" width="4.23" height="2.23" style="fill: #dcdee2"/>
          <rect x="938.43" y="505.35" width="4.3" height="0.81" style="fill: #ebeef5"/>
          <rect x="942.66" y="505.35" width="3.26" height="0.8" style="fill: #cdd3df"/>
          <rect x="935" y="505.35" width="3.5" height="0.81" style="fill: #fff"/>
          <path d="M938.5,508.39l-1.75-.08L935,506.15h3.5Z" style="fill: #e6e6e6"/>
        </g>
        <g>
          <rect x="937.28" y="499.27" width="6.44" height="2.76" style="fill: #fff"/>
          <rect x="942.28" y="499.43" width="1.23" height="2.6" style="fill: #e3d5ba"/>
          <rect x="938.88" y="499.43" width="3.41" height="2.6" style="fill: #f9e3c7"/>
          <rect x="937.5" y="499.43" width="1.45" height="2.6" style="fill: #fcf3dc"/>
          <line x1="938.96" y1="502.03" x2="938.96" y2="499.42" style="fill: none;stroke: #fff;stroke-miterlimit: 10;stroke-width: 0.28619056940078735px"/>
          <line x1="942.28" y1="502.04" x2="942.28" y2="499.34" style="fill: none;stroke: #fff;stroke-miterlimit: 10;stroke-width: 0.2908609296261816px"/>
        </g>
        <g>
          <rect x="942.12" y="498.85" width="1.73" height="0.42" style="fill: #993c37"/>
          <rect x="938.73" y="498.85" width="3.4" height="0.42" style="fill: #d15443"/>
          <rect x="937.17" y="498.85" width="1.63" height="0.42" style="fill: #e86349"/>
        </g>
        <g>
          <rect x="940.99" y="495.81" width="0.51" height="1.1" style="fill: #993c37"/>
          <rect x="939.98" y="495.81" width="1.01" height="1.1" style="fill: #d15443"/>
          <rect x="939.52" y="495.81" width="0.48" height="1.1" style="fill: #e86349"/>
        </g>
        <g>
          <path d="M944.37,498.85h-2.32L941,496.92h.52Z" style="fill: #cdd3df"/>
          <path d="M942.05,498.83H938.8l1.19-1.91h1Z" style="fill: #ebeef5"/>
          <path d="M938.8,498.83l-2,0,2.74-1.92H940Z" style="fill: #fff"/>
        </g>
        <g>
          <polygon points="940.49 494.44 939.98 495.81 940.99 495.81 940.49 494.44" style="fill: #ebeef5"/>
          <path d="M940.49,494.44l.51,1.37h1Z" style="fill: #cdd3df"/>
          <path d="M940.49,494.44,939,495.81h1Z" style="fill: #fff"/>
        </g>
      </g>
      <g style="clip-path: url(#a)">
        <g>
          <g>
            <path d="M940.26,535.23l7.51-.32,7.52.08,4-.28,5.71.09,2.88.43,1.69-.36,5.37-.24,4.82.33,4.63.13,5.7-.18,7.63.18,4.13-.09,8.52-.09h7.82l4.64-.2,2.14-.7c-.06-.83-.13-1.65-.19-2.48l-24,1.7-38.4.78-2.67-.12-5.27.43-10.33.22-8.1.4Z" style="fill: #999"/>
            <path d="M1024.81,529v2.91L982.7,534.2l-20.33-.44.33-.49,5.54-.78,5.46-.58,2.79-.41,31.08-1.06,4.08-.58Z" style="fill: #999"/>
            <path d="M1009.87,530.73l3.53-.18,2-.36c.14.85.28,1.7.43,2.55l-2.46-.16-1.84.29Z" style="fill: #666"/>
            <polygon points="1015.43 530.19 1024.88 530.19 1024.88 532.29 1017.75 532.87 1013.4 532.58 1013.4 531.4 1015.43 530.19" style="fill: gray"/>
            <polygon points="996.93 530.5 999.05 530.5 1000.79 530.55 999.48 531.53 1001.49 533.25 999.33 533.34 997.29 533.34 996.93 530.5" style="fill: #666"/>
            <path d="M1005.45,530.94l-4.66-.39-1.32,1,2,1.72L1004,533l2.46.27-1.07-1.31Z" style="fill: #727272"/>
            <polygon points="1005.45 530.94 1013.4 530.55 1011.93 532.16 1011.56 532.87 1006.46 533.27 1004.59 531.53 1005.45 530.94" style="fill: gray"/>
            <path d="M977.36,532l-3.66.15c.67.56,1.33,1.13,2,1.7C976.25,533.21,976.81,532.6,977.36,532Z" style="fill: #757575"/>
            <path d="M973.7,532.13l2.42,1.83-4.12.18-3.76-.13v-.46l1.58-.64Z" style="fill: gray"/>
            <path d="M996.93,530.49l.06.3,3.06,1.15.1-.91,1.06-.44-2.74-.21Z" style="fill: gray"/>
            <polygon points="962.37 533.76 962.37 534.01 968.25 534.01 968.25 533.55 962.37 533.76" style="fill: #727272"/>
          </g>
          <path d="M1016.48,534.61c-5.2.87-11.19,1.68-17.9,2.3a278.12,278.12,0,0,1-41.87.62l-44.62,1.16a48.06,48.06,0,0,0-5.92.07c-1.08.08-2,.19-2.89.31-.23.28-.42.65,0,.92.59.39,2,.35,3.3.38,4.6.11,5.12,1.17,9,1.17,2.61,0,2.38-.5,5.54-.65s5,.3,8.71.65c3.84.36,3.52,0,10.09.27,9.22.38,10.38,1.1,15.07.65,3.32-.31,4.32-.54,6.09-.62a25.31,25.31,0,0,1,5.78.62s.78.13,10.83,1.23c7.9.87,8.65-.41,22.53-.14,1.54,0,8.13-.13,16.45-.78,3-.24,5.53-.49,7.22-.67v-9.51Z" style="opacity: 0.1"/>
          <g>
            <polygon points="963.7 532.97 960.06 538.84 942.8 539.65 934.07 539.48 929.28 539.65 920.5 539.08 914.91 539.65 910.03 539.08 905.88 538.63 903 538.89 905.42 537.47 911.43 537.15 916.43 533.68 921.17 534.23 930.37 533.55 939.58 533.72 944.52 533.13 951.52 533.32 955.05 534.23 957.12 533.47 963.7 532.97" style="fill: gray"/>
            <path d="M944.52,533.13l1,6.4-4.1.14-1.8-5.95Z" style="fill: #666"/>
            <polygon points="926.96 533.8 922.79 537.28 919.92 537.28 921.17 534.23 926.96 533.8" style="fill: #666"/>
            <polygon points="915.95 538.17 910.03 539.08 905.88 538.63 907.16 537.83 915.95 538.17" style="fill: #666"/>
            <polygon points="934.07 536.22 928.54 536.39 929.28 539.65 934.07 539.48 934.07 536.22" style="fill: #666"/>
            <polygon points="940.41 535.99 934.07 539.48 942.8 539.65 940.41 535.99" style="fill: #666"/>
            <polygon points="924.67 535.72 928.54 536.39 934.07 536.22 929.86 535.29 924.67 535.72" style="fill: #999"/>
            <polygon points="922.79 537.28 921.13 538.25 917.21 538.25 905.42 537.47 911.43 537.15 919.92 537.28 922.79 537.28" style="fill: #999"/>
            <g>
              <path d="M956,536l-1.34,4.52h-6.08l-9.11-.57-1.15-3.54,2.1-.89Z" style="fill: gray"/>
              <polygon points="965.3 534.08 954.46 534.98 940.41 535.47 955.99 535.95 966.63 535.02 965.3 534.08" style="fill: #999"/>
              <polygon points="964.26 535.02 960.06 539.53 954.65 540.47 955.99 535.95 964.26 535.02" style="fill: #666"/>
            </g>
            <g>
              <polygon points="970.62 533.56 975.28 533.93 982.26 533.56 986.61 533.93 976.76 538.89 969.7 536.9 970.62 533.56" style="fill: #666"/>
              <path d="M963.59,533l-1.44,1.88,1.44,1,8.82-2Z" style="fill: #666"/>
              <polygon points="968.82 533.56 964.26 534.9 960.06 538.84 972.44 540.74 976.76 538.89 973.17 537.15 974.23 534.9 970.62 533.56 968.82 533.56" style="fill: gray"/>
            </g>
            <polygon points="982.26 533.56 979.99 541.13 987.76 540.74 991.8 533.93 982.26 533.56" style="fill: gray"/>
            <polygon points="997.22 532.97 991.8 533.93 987.76 540.74 991.8 540.59 996.67 533.74 997.22 532.97" style="fill: #666"/>
            <polygon points="1007.11 533.56 1011.39 535.88 1013.27 539.65 1013.27 541.83 1000.26 541.43 991.8 540.59 996.67 533.74 1007.11 533.56" style="fill: gray"/>
            <polygon points="1016.69 533.56 1025 531.64 1024.77 539.65 1016.69 539.65 1016.69 533.56" style="fill: gray"/>
            <polygon points="1020.49 532.46 1016.69 533.56 1007.11 533.56 1011.39 535.88 1013.27 539.65 1019.5 539.65 1020.49 536.85 1019.5 534.08 1020.49 532.46" style="fill: #666"/>
            <g>
              <path d="M968.82,541.44l5.62.52h20.29c0-.12-.11-.52-.93-.87a7.16,7.16,0,0,0-2-.45l-7.38-3.5-5.29-1.86-6,3.34-2.55.45Z" style="fill: #666"/>
              <path d="M974.44,542l3.82-2.88-.8-1.93,2.38-1.61,5.34,2.4,2.91,3.16-1,.86Z" style="fill: gray"/>
              <path d="M979.84,535.54l-2.38,1.61-1.78,2.08-5.06-.15a37.57,37.57,0,0,0,4.24-1.49,22.31,22.31,0,0,0,3.73-2Z" style="fill: #999"/>
            </g>
          </g>
        </g>
        <path d="M1025,533.36l0-1.72-.12,0v-1.48h-.07V529l-13.16.86-4.08.58-5.78.2-.58,0h0l-.42,0h-.06l-2.26-.17-1.54.11,0,.31-20.48.7-2.78.41-5.47.58-3.92.55-.62-.06h-.12l-6.46.49-2.07.76-3.53-.91-7-.19-4.94.59-9.21-.17-9.2.68-4.74-.55-5,3.47-6,.32L903,538.89l2.88-.26,4.15.45,4.88.57,5.59-.57,8.78.57,4.79-.17,5.29.11.1.31,9.11.57h6.08l5.41-.93.57-.61,9,1.39-.86,1.12,5.62.52h20.29c0-.12-.11-.52-.93-.87a7.16,7.16,0,0,0-2-.45l-.12-.06h.12l8.46.84,13,.4v-2.18h11.5l.16-5.62.07,0Z" style="fill: #c7b299;opacity: 0.5"/>
      </g>
    </g>
    <g>
      <path d="M401.92,90l-1,0a19,19,0,0,0-2.08.25c-.33.06-.68.16-1,.22l-1,.31-1,.37c-.32.15-.67.3-1,.46a10.11,10.11,0,0,0-1,.51c-.33.2-.66.4-1,.61s-.59.43-.89.69a10.48,10.48,0,0,0-.87.73c-.31.26-.58.52-.85.79s-.54.54-.78.82l-.67.78-.68-.78c-.23-.28-.5-.55-.77-.82s-.54-.53-.85-.79a10.48,10.48,0,0,0-.87-.73c-.31-.26-.59-.43-.9-.69s-.62-.41-.95-.61a10.11,10.11,0,0,0-1-.51c-.32-.16-.68-.31-1-.46l-1-.37-1-.31c-.34-.06-.68-.16-1-.22a19.3,19.3,0,0,0-2.08-.25l-1,0c-.36,0-.7,0-1,0l1,.32,1,.33,1,.33,1,.38.94.39.91.45.88.5c.29.17.57.34.87.55l.82.57c.26.23.54.4.8.62s.56.44.78.68a9.87,9.87,0,0,1,.74.69c.22.24.48.47.72.75s.49.51.72.79l.7.8.66.86.65.8v0l0,0,0,0,0,0,0,0v0l.65-.8.67-.86.69-.8c.24-.28.49-.51.73-.79s.49-.51.72-.75a9.87,9.87,0,0,1,.74-.69c.22-.24.51-.45.77-.68s.55-.39.8-.62.54-.36.83-.57.58-.38.86-.55l.89-.5.91-.45c.31-.12.63-.27.93-.39l1-.38,1-.33,1-.33c.35-.1.65-.21,1-.32C402.63,90,402.28,90,401.92,90Z" style="fill: #93c9c7"/>
      <path d="M409.41,103l-.38,0a6.56,6.56,0,0,0-.76.09c-.13,0-.25.06-.38.09l-.38.11-.37.14-.36.18a3.24,3.24,0,0,0-.36.2l-.35.23c-.12.1-.22.16-.33.26s-.22.18-.32.28-.22.2-.32.3a4,4,0,0,0-.28.32l-.25.3-.25-.3c-.09-.11-.19-.21-.29-.32s-.19-.2-.31-.3-.21-.18-.32-.28-.22-.16-.33-.26l-.35-.23a3.24,3.24,0,0,0-.36-.2l-.37-.18-.37-.14-.38-.11-.37-.09a7.12,7.12,0,0,0-.76-.09l-.39,0-.37,0,.37.13.36.12.36.13.36.14.34.15.34.17.32.19a3.05,3.05,0,0,1,.32.22l.31.21c.09.09.2.15.29.24l.29.26c.09.09.19.17.27.26s.18.18.26.29.19.19.27.3l.26.31.24.32.24.31v0h0v0l.23-.31.25-.32.26-.31c.08-.11.18-.19.26-.3s.19-.19.27-.29.18-.17.27-.26a3.79,3.79,0,0,1,.29-.26c.09-.09.2-.15.29-.24l.31-.21c.11-.09.21-.15.31-.22l.33-.19.34-.17.34-.15.36-.14.35-.13.37-.12.37-.13Z" style="fill: #93c9c7"/>
      <path d="M421.49,98.76h-.38a7,7,0,0,0-.77.09L420,99l-.38.12-.37.14-.37.17a3.24,3.24,0,0,0-.36.2l-.35.23c-.11.1-.22.17-.33.26s-.22.18-.32.29-.21.2-.31.3-.2.2-.29.31l-.25.3-.25-.3a2.7,2.7,0,0,0-.28-.31c-.1-.1-.2-.21-.31-.3a3.11,3.11,0,0,0-.33-.29l-.33-.26c-.1-.08-.23-.15-.35-.23a3.24,3.24,0,0,0-.36-.2l-.36-.17-.37-.14-.38-.12c-.13,0-.25-.06-.38-.09a6.56,6.56,0,0,0-.76-.09h-.38l-.38,0,.37.12.37.12.35.13.36.15.34.15.34.17.33.19a2.82,2.82,0,0,1,.31.21l.31.22.29.23a3.79,3.79,0,0,1,.29.26,3.44,3.44,0,0,1,.27.27l.27.28a3.85,3.85,0,0,0,.27.3l.25.31.25.33.24.31v0h0v0l.24-.31.24-.33.26-.31.27-.3c.08-.1.18-.19.26-.28s.18-.18.27-.27l.29-.26.3-.23.3-.22a2.92,2.92,0,0,1,.32-.21l.32-.19.34-.17.34-.15.36-.15.36-.13.36-.12.37-.12Z" style="fill: #93c9c7"/>
    </g>
    <g>
      <path d="M0,526.5a609.26,609.26,0,0,0,90,23.19c50.92,9,88.28,8.87,121,9.28,96.18,1.22,83,6.62,191,9.28,134.87,3.32,125.87-5.82,278-3.48,59.87.92,94.84,2.85,189,3.48,44.1.29,80.48.16,105,0h50V748H0Z" style="fill: #f9e3c7"/>
      <path d="M89,550c8.1,2.24,20.6,5.46,36,8.33,45.43,8.49,63.76,4.29,131,6.28,41.77,1.23,42.18,3.11,103,5,83.35,2.66,131,1.3,201,1,120-.49,122,2.89,291,4,74.45.51,134.87.27,173,0V562.59q-98.5-.8-197-1-75.5-.18-151,0l-173,2c-51.18.59-88.51-1-130-2C301.81,559.81,205.81,556.53,89,550Z" style="fill: #ead6c3"/>
      <path d="M89,555c8.1,2.24,20.6,5.46,36,8.33,45.43,8.49,63.76,4.29,131,6.28,41.77,1.23,42.18,3.11,103,5,83.35,2.66,131,1.3,201,1,120-.49,122,2.89,291,4,74.45.51,134.87.27,173,0V567.59q-98.5-.8-197-1c-25.76.67-65.27,1.61-114,2.42-35,.58-57,.94-87,1-54.47.11-83.07.17-123-1.4-29.54-1.17-53.94-2.78-95-2.6-18.27.08-31.73.49-35,.58C337.59,567.55,259.73,565.45,89,555Z" style="fill: #f4dfc3"/>
    </g>
  </g>
</svg>
