<?xml version="1.0" encoding="utf-8"?>
<!-- Generator: Adobe Illustrator 22.1.0, SVG Export Plug-In . SVG Version: 6.00 Build 0)  viewBox="0 0 100 123" enable-background="new 0 0 100 123" x="0px" y="0px" xml:space="preserve" -->
<svg version="1.0" xmlns="http://www.w3.org/2000/svg" xmlns:xlink="http://www.w3.org/1999/xlink"
	enable-background="new 0 0 100 123"
	viewBox="0 0 100 123"
	x="0px" y="0px"
	xml:space="preserve">

<path id="_x30_0" fill="#408BA2" d="M95.8,123H0V0h95.8c2.3,0,4.2,1.9,4.2,4.2v114.6C100,121.1,98.1,123,95.8,123z"/>
<path id="_x30_1" fill="#4897AA" d="M86.5,121H10.2c-3.4,0-6.2-2.8-6.2-6.2V8.2C4,4.8,6.8,2,10.2,2h76.3C92.3,2,97,6.7,97,12.5v98.1
	C97,116.3,92.3,121,86.5,121z"/>
<path id="_x30_2" fill="#4EA1AF" d="M77.1,118H47.3c-5,0-9-4-9-9V14c0-5,4-9,9-9h29.7c9.2,0,16.6,7.4,16.6,16.6v79.8
	C93.7,110.6,86.2,118,77.1,118z"/>
<path id="_x30_3" fill="#52A9B2" d="M71.3,104h-13c-8,0-14.5-6.5-14.5-14.5v-68c0-8,6.5-14.5,14.5-14.5h13c9.4,0,17,7.6,17,17v63
	C88.3,96.4,80.7,104,71.3,104z"/>
<path id="_x30_4" fill="#56AEB2" d="M72.6,76.7h-6.4c-5.7,0-10.4-4.6-10.4-10.4V19.5c0-5.7,4.6-10.4,10.4-10.4h6.4
	c6.6,0,12,5.4,12,12v43.6C84.5,71.4,79.2,76.7,72.6,76.7z"/>
<path id="_x30_5" fill="#5DB5B5" d="M75.7,55H75c-3,0-5.4-2.4-5.4-5.4V19.4c0-3,2.4-5.4,5.4-5.4h0.8c3,0,5.4,2.4,5.4,5.4v30.3
	C81.1,52.6,78.7,55,75.7,55z"/>
<path id="_x30_6" fill="#56AEB2" d="M78.8,60h-9.2V14h0.6c4.7,0,8.6,3.8,8.6,8.6V60z"/>
<path id="_x30_0_1_" opacity="0.1" d="M95.8,123H0V0h95.8c2.3,0,4.2,1.9,4.2,4.2v114.6C100,121.1,98.1,123,95.8,123z"/>
</svg>
