<?xml version="1.0" encoding="utf-8"?>
<!-- Generator: Adobe Illustrator 22.1.0, SVG Export Plug-In . SVG Version: 6.00 Build 0)  -->
<svg version="1.0" id="Layer_1" xmlns="http://www.w3.org/2000/svg" xmlns:xlink="http://www.w3.org/1999/xlink" x="0px" y="0px"
	 viewBox="0 0 57 57" enable-background="new 0 0 57 57" xml:space="preserve">
<circle id="ellipse" fill="none" stroke="#ffffff" stroke-miterlimit="10" cx="28.5" cy="28.5" r="28"/>
<g id="gull">

		<path fill="none" stroke="#ffffff" stroke-width="0.735" stroke-linecap="round" stroke-linejoin="round" stroke-miterlimit="10" d="
		M15.1,30.9c0,0.2,0,0.4,0,0.7c0,0.7,0.1,1.2,0.2,3.1c0.1,0.9,1,6.7-0.6,11.7c-0.3,1-0.8,2.3-1.7,3.7"/>

		<path fill="none" stroke="#ffffff" stroke-width="0.735" stroke-linecap="round" stroke-linejoin="round" stroke-miterlimit="10" d="
		M45.2,49c-3.9-3.2-6.5-1.4-10.5-4.8c-1.2-1-3.8-3.3-3.5-6.1c0.2-1.7,1.5-3.7,3.2-4.2c0.7-0.2,1.3-0.1,2.5,0.1
		c3.3,0.6,3.7,1.7,5.6,1.6c0.4,0,1.3-0.1,2.5,0.1c0.4,0.1,0.8,0.2,1,0.3c0.2-2-0.3-3.1-0.8-3.7c-1.1-1.4-2.7-1.4-6.6-3
		c-1.1-0.4-1.9-0.8-2.5-1.1c-1-1.4-2-2.7-2.9-4.1"/>

		<path fill="none" stroke="#ffffff" stroke-width="0.7314" stroke-linecap="round" stroke-linejoin="round" stroke-miterlimit="10" d="
		M35.5,33.6c-0.7-0.3-1.5-0.7-2.3-1.2c-1.1-0.8-2-1.6-2.7-2.3c1,0.6,2.5,1.4,4.5,1.9c2.6,0.7,3.8,0.4,5.9,1c1.3,0.4,3.1,1.2,5.1,3"
		/>

		<path fill="none" stroke="#ffffff" stroke-width="0.735" stroke-linecap="round" stroke-linejoin="round" stroke-miterlimit="10" d="
		M30.5,30.1c4.2,0,6.4-0.4,6.5-1.1c0-0.2-0.1-0.5-0.6-0.8"/>
</g>
<g id="hat_4_">
	<path fill="none" stroke="#ffffff" stroke-linejoin="round" stroke-miterlimit="10" d="M13,28c0.9-1.1,1.9-2.1,3-3
		c4-3.4,7-3.6,11-7c1.1-0.9,2.1-1.9,3-3c0-0.3,0.4-3-1-4c-1.6-1.1-4.3,0.6-5,1c-4,2.5-3.1,5.9-7,8c-1.2,0.7-2.1,0.8-4,2
		c-1.6,1.1-2.8,1.8-3,3c-0.3,1.6,1.4,3.6,4,5c2-1.5,3.7-2.4,5-3c6.9-3.1,13.5-2.5,17-6c0.3-0.4,1.3-1.3,1-2s-1.6-0.9-3-1
		c-1.2-0.1-2.3-0.1-3,0c-0.2,0.2-0.5,0.6-1,1c-3.5,3.2-7,3.2-11,5C17.5,24.7,15.3,25.8,13,28z"/>

		<path fill="none" stroke="#ffffff" stroke-width="0.7762" stroke-linecap="round" stroke-linejoin="round" stroke-miterlimit="10" d="
		M30,15c0.2,0.1,0.7,0.4,1,1c0.5,0.9,0.1,1.9,0,2"/>
</g>
<g id="eye">
	<circle fill="#FFFFFF" stroke="#ffffff" stroke-miterlimit="10" cx="28" cy="28.4" r="0.5"/>
	<ellipse fill="none" stroke="#ffffff" stroke-miterlimit="10" cx="27.4" cy="28.7" rx="1.6" ry="1.3"/>
</g>
</svg>
