<?xml version="1.0" encoding="utf-8"?>
<!-- Generator: Adobe Illustrator 22.1.0, SVG Export Plug-In . SVG Version: 6.00 Build 0)  -->
<svg version="1.1" id="Layer_1" xmlns="http://www.w3.org/2000/svg" xmlns:xlink="http://www.w3.org/1999/xlink" x="0px" y="0px"
	 viewBox="0 0 57 57" style="enable-background:new 0 0 57 57;" xml:space="preserve">
<style type="text/css">
	.st0{fill:none;stroke:#FFFFFF;stroke-miterlimit:10;}
	.st1{fill:none;stroke:#FFFFFF;stroke-linecap:round;stroke-miterlimit:10;}
	.st2{fill:#FFFFFF;}
	.st3{fill:none;stroke:#FFFFFF;stroke-width:0.9286;stroke-linecap:round;stroke-miterlimit:10;}
</style>
<circle class="st0" cx="28.5" cy="28.5" r="28"/>
<g id="icon_4_">
	<line class="st1" x1="5" y1="39.7" x2="16" y2="39.7"/>
	<line class="st1" x1="41.7" y1="39.9" x2="52" y2="39.9"/>
	<g>
		<ellipse class="st2" cx="28.8" cy="26.3" rx="0.7" ry="0.5"/>
		<ellipse class="st2" cx="31.1" cy="35.4" rx="0.7" ry="0.7"/>
		<ellipse class="st2" cx="26" cy="36.1" rx="0.7" ry="0.7"/>
		<ellipse class="st2" cx="27.4" cy="33.2" rx="0.7" ry="0.7"/>
		<ellipse class="st2" cx="30.3" cy="32.5" rx="0.7" ry="0.7"/>
		<ellipse class="st2" cx="28.8" cy="30" rx="0.7" ry="0.7"/>
		<ellipse class="st2" cx="28.8" cy="21.5" rx="0.5" ry="0.5"/>
		<path class="st2" d="M28.3,23.8c0,0.3,0.2,0.5,0.5,0.5s0.5-0.2,0.5-0.5c0-0.1-0.1-0.3-0.2-0.4s-0.2-0.1-0.3-0.1s-0.3,0.1-0.3,0.1
			C28.4,23.6,28.3,23.7,28.3,23.8z"/>
		<ellipse class="st2" cx="28.8" cy="19.2" rx="0.4" ry="0.5"/>
		<ellipse class="st2" cx="33.7" cy="31.3" rx="0.6" ry="0.6"/>
		<ellipse transform="matrix(0.9927 -0.1205 0.1205 0.9927 -3.4711 4.6001)" class="st2" cx="36.3" cy="31" rx="0.6" ry="0.4"/>
		<ellipse transform="matrix(0.9416 -0.3367 0.3367 0.9416 -7.7878 15.5014)" class="st2" cx="40.8" cy="30.2" rx="0.3" ry="0.4"/>
		<ellipse transform="matrix(0.9894 -0.1449 0.1449 0.9894 -4.0099 5.9441)" class="st2" cx="38.8" cy="30.5" rx="0.6" ry="0.4"/>
		<path class="st2" d="M23.5,38.2c0.2-0.3,0.6-0.3,0.9-0.1s0.4,0.5,0.2,0.8c-0.1,0.1-0.2,0.2-0.4,0.2c-0.1,0-0.2,0-0.3,0
			c-0.1,0-0.2,0-0.2-0.1C23.5,38.8,23.4,38.4,23.5,38.2z"/>
		<ellipse transform="matrix(0.7921 -0.6104 0.6104 0.7921 -21.6657 21.5469)" class="st2" cx="20.8" cy="42.6" rx="0.5" ry="0.4"/>
		<ellipse transform="matrix(0.8649 -0.502 0.502 0.8649 -17.3787 16.8467)" class="st2" cx="22.6" cy="40.7" rx="0.6" ry="0.5"/>
		<ellipse transform="matrix(0.3898 -0.9209 0.9209 0.3898 -30.9474 44.5195)" class="st2" cx="18.1" cy="45.6" rx="0.3" ry="0.4"/>
		<ellipse transform="matrix(0.6901 -0.7237 0.7237 0.6901 -25.8974 27.5035)" class="st2" cx="19.2" cy="44" rx="0.5" ry="0.4"/>
		<ellipse class="st2" cx="33" cy="37.8" rx="0.6" ry="0.6"/>
		<path class="st2" d="M34.8,38.8c-0.2-0.2-0.6-0.2-0.7,0C34,38.9,34,38.9,34,39s0.1,0.3,0.2,0.4c0.2,0.2,0.6,0.2,0.7,0
			C35,39.3,35,39.1,35,39S34.9,38.9,34.8,38.8z"/>
		<ellipse transform="matrix(0.8175 -0.5759 0.5759 0.8175 -17.1272 29.5125)" class="st2" cx="38" cy="41.8" rx="0.4" ry="0.3"/>
		<ellipse transform="matrix(0.5302 -0.8479 0.8479 0.5302 -17.429 49.9004)" class="st2" cx="36.3" cy="40.7" rx="0.4" ry="0.6"/>
		<ellipse class="st2" cx="24.1" cy="32.5" rx="0.6" ry="0.6"/>
		<path class="st2" d="M21.3,31.6c0.2,0.1,0.4,0,0.6-0.1l0.1-0.1c0.1-0.1,0-0.3-0.1-0.4s-0.1-0.1-0.2-0.1c-0.3-0.1-0.6,0-0.7,0.2
			C20.8,31.3,21,31.5,21.3,31.6z"/>
		<ellipse transform="matrix(0.5655 -0.8248 0.8248 0.5655 -16.809 26.7229)" class="st2" cx="17" cy="29.3" rx="0.4" ry="0.3"/>
		<ellipse transform="matrix(0.2797 -0.9601 0.9601 0.2797 -15.3488 40.0619)" class="st2" cx="19" cy="30.3" rx="0.4" ry="0.6"/>
		<ellipse class="st2" cx="28.8" cy="17.7" rx="0.4" ry="0.3"/>
	</g>
	<path class="st0" d="M27.7,14.9c0.7-2,1.9-1.8,2.7,0.3c0,0,2,5.2,2.7,7.1c0.2,0.4,0.3,0.7,0.3,0.7c0.5,1.3,1.8,2.6,3.4,3.5
		c0.8,0.5,1.8,0.8,2.6,1l2.7,0.5c2.5,0.4,3.3,1.9,1.6,3.3l-2.3,2.1c-1.6,1.6-2.4,4.4-1.6,6.2c0,0,0.1,0.1,0.1,0.3
		c0.3,0.7,1,2.4,1,2.4c0.7,1.7-0.5,2.6-2.7,1.9c0,0-0.7-0.2-1.5-0.6C35,43,32.4,42,32.4,42c-2.2-0.9-5.7-0.5-7.9,1
		c0,0-1.7,1.2-3.4,2.4c-1.6,1.1-3.1,2.2-3.1,2.2c-2.2,1.6-3.2,1-2.4-1.4l2-5.3c0.1-0.4,0.2-0.7,0.3-1.1c0.4-2.2-0.2-4.8-1.5-6.3
		l-2.3-2.9c-1.5-2-0.7-3.8,1.9-4.1l3.2-0.3c0.7-0.1,1.3-0.2,1.9-0.5c1.7-0.7,3.3-2.1,3.9-3.5c0-0.1,0.1-0.1,0.1-0.2L27.7,14.9z"/>
	<path class="st1" d="M37.5,14.5c0.4,0,1.2-0.1,2.2,0.3c1.2,0.5,1.7,1.5,1.8,1.7c0.1-0.3,0.7-1.2,1.8-1.7c0.9-0.4,1.8-0.3,2.2-0.3"
		/>
	<path class="st3" d="M7,21.9c0.2,0,0.8-0.2,1.5-0.1c1.2,0.1,1.7,0.7,1.7,0.7s0.5-0.6,1.7-0.7c0.7-0.1,1.3,0.1,1.5,0.1"/>
</g>
</svg>
