<?xml version="1.0" encoding="utf-8"?>
<!-- Generator: Adobe Illustrator 22.1.0, SVG Export Plug-In . SVG Version: 6.00 Build 0)  -->
<svg version="1.0" id="Layer_1" xmlns="http://www.w3.org/2000/svg" xmlns:xlink="http://www.w3.org/1999/xlink" x="0px" y="0px"
	 viewBox="0 0 57 57" enable-background="new 0 0 57 57" xml:space="preserve">
<circle fill="none" stroke="#ffffff" stroke-miterlimit="10" cx="28.5" cy="28.5" r="28"/>
<g id="icon_2_">
	<path fill="none" stroke="#ffffff" stroke-miterlimit="10" d="M39.6,20.9c0.1,5.6,9.3,12.3,6.4,18.6c-1.9-6.2-11.2-4.7-11.6-10.5
		L39.6,20.9L39.6,20.9z"/>
	<g>
		<line fill="none" stroke="#ffffff" stroke-linecap="round" stroke-miterlimit="10" x1="39.6" y1="18.2" x2="25.2" y2="40.4"/>
		<circle fill="none" stroke="#ffffff" stroke-miterlimit="10" cx="40.3" cy="17.2" r="1.2"/>
	</g>
	<g>
		<line fill="none" stroke="#ffffff" stroke-linecap="round" stroke-miterlimit="10" x1="19.9" y1="18.2" x2="34.4" y2="40.4"/>
		<circle fill="none" stroke="#ffffff" stroke-miterlimit="10" cx="19.3" cy="17.2" r="1.2"/>
	</g>
	<path fill="none" stroke="#ffffff" stroke-miterlimit="10" d="M24.9,30l-5.1,3.3l-5.7-8.7c-0.3-0.4-0.1-0.9,0.3-1.2l4.4-2.9
		c0.4-0.3,0.9-0.1,1.2,0.3l5.2,8C25.4,29.2,25.3,29.8,24.9,30z"/>
	<path fill="none" stroke="#ffffff" stroke-miterlimit="10" d="M19.6,35l-4.4,2.9C15,38,14.7,38.1,14.4,38c0,0-0.2-0.1-0.4-0.3
		c-0.3-0.4-0.7-2.4-0.8-5c-2.4-1.5-4.2-2.6-4.4-3S8.7,29,8.7,29l0,0c0-0.2,0.2-0.4,0.4-0.6l5.1-3.3l5.7,8.7
		C20.1,34.2,20,34.7,19.6,35z"/>
</g>
</svg>
