<?xml version="1.0" encoding="utf-8"?>
<!-- Generator: Adobe Illustrator 22.1.0, SVG Export Plug-In . SVG Version: 6.00 Build 0)  -->
<svg version="1.0" id="Layer_1" xmlns="http://www.w3.org/2000/svg" xmlns:xlink="http://www.w3.org/1999/xlink" x="0px" y="0px"
	 viewBox="0 0 57 57" enable-background="new 0 0 57 57" xml:space="preserve">
<circle fill="none" stroke="#ffffff" stroke-miterlimit="10" cx="28.5" cy="28.5" r="28"/>
<g id="icon_6_">
	<path fill="none" stroke="#ffffff" stroke-width="1.0801" stroke-linecap="round" stroke-miterlimit="10" d="M34.5,41.3
		c1.2,0.1,2.4,0.3,3.8,0.6c2.4,0.5,6,1.6,10.2,3.9"/>
	<path fill="none" stroke="#ffffff" stroke-width="0.9733" stroke-linecap="round" stroke-miterlimit="10" d="M4.5,38.5
		c1.4,0.2,3.7,0.6,6.6,0.9c4.6,0.5,8.1,0.5,11.4,0.4"/>
	<g id="rays_3_">

			<line fill="none" stroke="#ffffff" stroke-width="0.8257" stroke-linecap="round" stroke-miterlimit="10" x1="19.7" y1="12.9" x2="22.8" y2="16"/>

			<line fill="none" stroke="#ffffff" stroke-width="0.8257" stroke-linecap="round" stroke-miterlimit="10" x1="36.6" y1="21.5" x2="42.9" y2="21.5"/>

			<line fill="none" stroke="#ffffff" stroke-width="0.8257" stroke-linecap="round" stroke-miterlimit="10" x1="14" y1="21.6" x2="20.7" y2="21.6"/>

			<line fill="none" stroke="#ffffff" stroke-width="0.8257" stroke-linecap="round" stroke-miterlimit="10" x1="34.3" y1="15.8" x2="37.2" y2="12.9"/>

			<line fill="none" stroke="#ffffff" stroke-width="0.8257" stroke-linecap="round" stroke-miterlimit="10" x1="28.4" y1="13.5" x2="28.4" y2="9.5"/>

			<line fill="none" stroke="#ffffff" stroke-width="0.8257" stroke-linecap="round" stroke-miterlimit="10" x1="25.4" y1="14.2" x2="24.6" y2="12.3"/>

			<line fill="none" stroke="#ffffff" stroke-width="0.8257" stroke-linecap="round" stroke-miterlimit="10" x1="21.2" y1="18.6" x2="19.1" y2="17.8"/>

			<line fill="none" stroke="#ffffff" stroke-width="0.8257" stroke-linecap="round" stroke-miterlimit="10" x1="37.8" y1="25.4" x2="35.9" y2="24.6"/>

			<line fill="none" stroke="#ffffff" stroke-width="0.8257" stroke-linecap="round" stroke-miterlimit="10" x1="21.3" y1="24.6" x2="19.1" y2="25.4"/>

			<line fill="none" stroke="#ffffff" stroke-width="0.8257" stroke-linecap="round" stroke-miterlimit="10" x1="37.8" y1="17.7" x2="36" y2="18.4"/>

			<line fill="none" stroke="#ffffff" stroke-width="0.8257" stroke-linecap="round" stroke-miterlimit="10" x1="32.3" y1="12.3" x2="31.6" y2="14.1"/>
	</g>
	<g id="lighthouse_3_">
		<path fill="none" stroke="#ffffff" stroke-width="0.8257" stroke-miterlimit="10" d="M24.1,24c2.9,0,5.8,0,8.7,0
			c-0.3,0.6-0.7,1.1-1,1.7h-6.7C24.7,25.1,24.4,24.5,24.1,24z"/>
		<polygon fill="none" stroke="#ffffff" stroke-width="0.8257" stroke-miterlimit="10" points="23.8,44.1 25.1,25.6 31.8,25.6
			33.1,44.1 31.1,44.5 25.8,44.5 		"/>
		<rect x="25.6" y="19.2" fill="none" stroke="#ffffff" stroke-width="0.8257" stroke-miterlimit="10" width="5.7" height="4.8"/>
		<rect x="27.6" y="16.9" fill="none" stroke="#ffffff" stroke-width="0.8257" stroke-miterlimit="10" width="1.7" height="1"/>
		<polygon fill="none" stroke="#ffffff" stroke-width="0.8257" stroke-miterlimit="10" points="25.1,19.2 27.6,18 29.3,18
			31.8,19.2 		"/>
	</g>
</g>
</svg>
