<?xml version="1.0" encoding="utf-8"?>
<!-- Generator: Adobe Illustrator 22.1.0, SVG Export Plug-In . SVG Version: 6.00 Build 0)  -->
<svg version="1.0" id="Layer_1" xmlns="http://www.w3.org/2000/svg" xmlns:xlink="http://www.w3.org/1999/xlink" x="0px" y="0px"
	 viewBox="0 0 57 57" enable-background="new 0 0 57 57" xml:space="preserve">
<circle fill="none" stroke="#ffffff" stroke-miterlimit="10" cx="28.5" cy="28.5" r="28"/>
<g id="book_3_">
	<g>
		<path fill="none" stroke="#ffffff" stroke-width="0.75" stroke-miterlimit="10" d="M28.6,19.5c1,0.3,1.8-0.2,1.8-0.2
			c0.1-0.1,0.3,0,0.4,0.1c0,0,0.4,0.9,1.4,1.2c1.1,0.3,1.9-0.3,1.9-0.3c0.1-0.1,0.3-0.1,0.3,0.1c0,0,0.4,1,1.4,1.3s1.8-0.2,1.8-0.2
			c0.1-0.1,0.3,0,0.4,0.1c0,0,0.4,0.9,1.4,1.2"/>
	</g>
	<g>
		<path fill="none" stroke="#ffffff" stroke-width="0.75" stroke-miterlimit="10" d="M28.1,20.9c1,0.3,1.8-0.2,1.8-0.2
			c0.1-0.1,0.3,0,0.4,0.1c0,0,0.4,0.9,1.4,1.2c1.1,0.3,1.9-0.3,1.9-0.3c0.1-0.1,0.3-0.1,0.3,0.1c0,0,0.4,1,1.4,1.3s1.8-0.2,1.8-0.2
			c0.1-0.1,0.3,0,0.4,0.1c0,0,0.4,0.9,1.4,1.2"/>
	</g>
	<line fill="none" stroke="#ffffff" stroke-width="0.75" stroke-miterlimit="10" x1="20.1" y1="33.2" x2="21.8" y2="27.4"/>
	<path fill="none" stroke="#ffffff" stroke-width="0.75" stroke-miterlimit="10" d="M23.8,20.5L26.9,10l17.9,5.2
		c0.8,0.2,1.2,1,1,1.8L39,40.3c-0.2,0.8-1,1.2-1.8,1l-10.4-3.1"/>
</g>
<g>
	<g>
		<path fill="none" stroke="#ffffff" stroke-miterlimit="10" d="M13,27l-3.4,3.3L9,29.7c-0.2-0.2-0.2-0.6,0-0.8l2.6-2.5
			c0.2-0.2,0.6-0.2,0.8,0L13,27z"/>
		<path fill="none" stroke="#ffffff" stroke-miterlimit="10" d="M21.4,34.6L17,38.9l-7-7.1c-0.4-0.4-0.4-1.1,0-1.6l3.1-3
			c0.3-0.3,0.9-0.3,1.2,0L21.4,34.6z"/>
		<path fill="none" stroke="#ffffff" stroke-miterlimit="10" d="M27.7,39.1l-6.2,6.1c-1.5-2.1-3-4.3-4.5-6.4c1.5-1.4,3-2.9,4.4-4.3
			C23.4,36,25.5,37.6,27.7,39.1z"/>
		<path fill="none" stroke="#ffffff" stroke-miterlimit="10" d="M29.5,41.7l-5.6,5.5c-0.3,0.3-0.8,0.3-1.1,0l-1.3-1.4
			c-0.1-0.1-0.1-0.3,0-0.4l6.4-6.2c0.1-0.1,0.3-0.1,0.4,0l1.3,1.4C29.9,40.9,29.9,41.4,29.5,41.7z"/>
	</g>
	<g>
		<path fill="none" stroke="#ffffff" stroke-miterlimit="10" d="M21.2,18.9l-3.4,3.3l-0.6-0.6c-0.2-0.2-0.2-0.6,0-0.8l2.6-2.5
			c0.2-0.2,0.6-0.2,0.8,0L21.2,18.9z"/>
		<path fill="none" stroke="#ffffff" stroke-miterlimit="10" d="M29.7,26.5l-4.4,4.3l-6.9-7.1c-0.4-0.4-0.4-1.1,0-1.6l3.1-3
			c0.3-0.3,0.9-0.3,1.2,0L29.7,26.5z"/>
		<path fill="none" stroke="#ffffff" stroke-miterlimit="10" d="M35.9,31.1l-6.2,6.1c-1.5-2.1-3-4.3-4.5-6.4c1.5-1.4,3-2.9,4.4-4.3
			C31.7,28,33.8,29.5,35.9,31.1z"/>
		<path fill="none" stroke="#ffffff" stroke-miterlimit="10" d="M37.8,33.6l-5.6,5.5c-0.3,0.3-0.8,0.3-1.1,0l-1.3-1.4
			c-0.1-0.1-0.1-0.3,0-0.4l6.4-6.2c0.1-0.1,0.3-0.1,0.4,0l1.3,1.4C38.1,32.8,38.1,33.3,37.8,33.6z"/>
	</g>
	<polygon fill="none" stroke="#ffffff" stroke-miterlimit="10" points="21.8,27.4 18,31.1 16.4,29.4 20.2,25.7 	"/>
	<polygon fill="#3D6D84" stroke="#ffffff" stroke-miterlimit="10" points="22.6,28.1 18.8,31.8 18,31.1 21.8,27.4 	"/>
</g>
</svg>
