<svg xmlns="http://www.w3.org/2000/svg" xmlns:xlink="http://www.w3.org/1999/xlink" viewBox="0 0 32 32">
  <defs>
    <symbol id="a" data-name="helpLine" viewBox="0 0 28.69 28.69">
      <path d="M2.14,8.56,6.59,11a8.46,8.46,0,0,0-.67,3.3,8.35,8.35,0,0,0,.63,3.21L2.1,20a13.51,13.51,0,0,1,0-11.48ZM1.76,6.49A4.79,4.79,0,0,1,6.54,1.71H7.82a14.36,14.36,0,0,0-6.06,6ZM20.05,2.11,17.57,6.56a8.31,8.31,0,0,0-3.23-.64,8.22,8.22,0,0,0-3.22.64L8.63,2.11a13.47,13.47,0,0,1,11.42,0Zm2.11-.39a4.78,4.78,0,0,1,4.77,4.77V7.74a14.28,14.28,0,0,0-6.07-6ZM26.59,20l-4.45-2.49a8.35,8.35,0,0,0,.63-3.21A8.46,8.46,0,0,0,22.1,11l4.45-2.48a13.51,13.51,0,0,1,0,11.48Zm.34,2.17A4.78,4.78,0,0,1,22.15,27h-1.3a14.32,14.32,0,0,0,6.08-6v1.26ZM8.57,26.55l2.49-4.44a8.35,8.35,0,0,0,3.28.66,8.46,8.46,0,0,0,3.28-.66l2.49,4.44a13.45,13.45,0,0,1-11.54,0Zm-2,.43a4.78,4.78,0,0,1-4.77-4.77V21a14.32,14.32,0,0,0,6.08,6Zm3.89-5.18L7.94,26.23a13.54,13.54,0,0,1-5.52-5.55L6.85,18.2a8.49,8.49,0,0,0,3.57,3.6Zm10.33,4.43L18.27,21.8a8.55,8.55,0,0,0,3.57-3.6l4.43,2.48a13.54,13.54,0,0,1-5.52,5.55ZM26.23,7.92,21.79,10.4a8.43,8.43,0,0,0-3.58-3.54l2.48-4.44a13.71,13.71,0,0,1,5.54,5.5ZM14.34,6.63a7.72,7.72,0,1,1-7.71,7.71A7.72,7.72,0,0,1,14.34,6.63ZM8,2.43l2.47,4.43A8.47,8.47,0,0,0,6.9,10.4L2.46,7.92A13.62,13.62,0,0,1,8,2.43ZM6.53,27.69H9.41a14.25,14.25,0,0,0,9.86,0h2.88a5.49,5.49,0,0,0,5.49-5.48V19.38a14.21,14.21,0,0,0,0-10.06V6.49A5.49,5.49,0,0,0,22.16,1H19.29A14.18,14.18,0,0,0,9.4,1H6.54A5.49,5.49,0,0,0,1.05,6.49V9.3a14.32,14.32,0,0,0-.93,5,14.05,14.05,0,0,0,.93,5v2.83a5.49,5.49,0,0,0,5.48,5.48Z" style="fill: #7ab5b8;stroke: #7ab5b8;stroke-miterlimit: 10;stroke-width: 0.25px"/>
    </symbol>
  </defs>
  <title>Artboard 11</title>
  <use width="28.69" height="28.69" transform="translate(1.66 1.65)" xlink:href="#a"/>
</svg>
