<svg xmlns="http://www.w3.org/2000/svg" xmlns:xlink="http://www.w3.org/1999/xlink" viewBox="0 0 125 72">
  <defs>
    <style>
      .cls-1 {
        fill: #efbd88;
      }

      .cls-2 {
        fill: #f7c8a1;
      }
    </style>
    <symbol id="bronzeOFF-2" data-name="bronzeOFF" viewBox="0 0 101 72">
      <g>
        <polygon class="cls-1" points="101 72 51.87 72 17.81 72 17.29 72 0 36 101 36 101 72"/>
        <polygon class="cls-2" points="101 0 51.87 0 17.81 0 17.29 0 0 36 101 36 101 0"/>
      </g>
      <path class="cls-1" d="M32.55,12H101a0,0,0,0,1,0,0V61a0,0,0,0,1,0,0H32.55a8,8,0,0,1-8-8V20A8,8,0,0,1,32.55,12Z"/>
    </symbol>
  </defs>
  <title>bronzeOFF</title>
  <g id="bronzeOFF">
    <use id="bronzeOFF-OLD" width="101" height="72" transform="translate(24)" xlink:href="#bronzeOFF-2"/>
  </g>
</svg>
