<svg xmlns="http://www.w3.org/2000/svg" viewBox="0 0 125 72">
  <defs>
    <style>
      .cls-1, .cls-2 {
        fill: none;
        stroke-linecap: round;
        stroke-miterlimit: 10;
      }

      .cls-1 {
        stroke: #ffc95f;
        stroke-width: 3px;
      }

      .cls-2 {
        stroke: #ffd576;
        stroke-width: 2px;
      }

      .cls-3 {
        fill: #f4c064;
      }

      .cls-4 {
        fill: #ffc95f;
      }
    </style>
  </defs>
  <title>goldON</title>
  <g id="goldON">
    <polyline class="cls-1" points="29.88 6.73 15.66 36.5 29.88 66.27"/>
    <polyline class="cls-2" points="17.21 12.3 5.66 36.5 17.21 60.7"/>
    <g>
      <polygon class="cls-3" points="125 72 76.16 72 42.3 72 41.78 72 24.59 36 125 36 125 72"/>
      <polygon class="cls-4" points="125 0 76.16 0 42.3 0 41.78 0 24.59 36 125 36 125 0"/>
      <path class="cls-4" d="M57,12h68a0,0,0,0,1,0,0V61a0,0,0,0,1,0,0H57a8,8,0,0,1-8-8V20A8,8,0,0,1,57,12Z"/>
    </g>
  </g>
</svg>
