<svg xmlns="http://www.w3.org/2000/svg" id="Layer_1" data-name="Layer 1" viewBox="0 0 74.52 86.1"><path fill="#dda243" d="M37.26 68.9a19.23 19.23 0 0 1 8.39 1L59.53 75c2.5.82 4.48.78 5.68 0L37.26 45.17z"/><path fill="#efb652" d="M66 70.48l-2.67-6.88a13.15 13.15 0 0 1 0-8.22L37.26 45.06v.11l27.95 29.91c1.3-.79 1.69-2.39.79-4.6z"/><path fill="#dda243" d="M74.34 38.71L37.26 45v.09l26.05 10.29a15.94 15.94 0 0 1 4-6.94l5.46-5.19c1.57-1.56 2.06-3.16 1.57-4.54z"/><path fill="#ffc95f" d="M68.49 35.12L62 34a20.4 20.4 0 0 1-7.73-3.36l-17 14.19V45l37.08-6.26c-.6-1.68-2.59-3.02-5.86-3.62z"/><path fill="#e8b564" d="M47.69 23.09L40.58 4.16c-.95-2.6-2.14-4-3.32-4.15v44.85l17-14.19a17.81 17.81 0 0 1-6.57-7.58z"/><path fill="#c6944a" d="M6 86c1.08.38 2.9-.31 5.31-2.2l15.42-11.43a22.46 22.46 0 0 1 10.53-3.47v-24z"/><path fill="#ffc95f" d="M10.65 55.69a19.46 19.46 0 0 1-.32 11.68L5.6 80.51C4.51 83.7 4.74 85.57 6 86l30.91-40.66z"/><path fill="#efb652" d="M.21 35.9c-.54 1.74 0 3.89 1.62 6.12l5.68 7a18.07 18.07 0 0 1 3.14 6.62l26.26-10.3.17-.22z"/><path fill="#ffc95f" d="M22.65 27.72a17.52 17.52 0 0 1-8.85 3.51L6.24 32c-3.33.34-5.4 1.83-6 3.89l36.87 9.22.18-.23v-.12z"/><path fill="#ffd576" d="M37.26 0C36.11-.12 35 1 34.11 3.37L28 20.89a14.84 14.84 0 0 1-5.33 6.83l14.59 17.05z"/><g id="dots" fill="#fff"><path d="M6.8 37a.9.9 0 0 1-1.1.63c-.48-.15-.63-.63-.3-1.26a1.08 1.08 0 0 1 1.28-.64c.45.13.45.74.12 1.27zM11.38 79.66c-.48.64-1.27.94-1.73.64s-.48-1.09 0-1.72 1.28-.93 1.73-.63.46 1.05 0 1.71zM12.78 39.93c-.15.49-1.09.64-1.88.3s-1.28-.93-1.1-1.41 1.1-.64 1.89-.3a1.19 1.19 0 0 1 1.09 1.41zM15.63 74.33a1.52 1.52 0 0 1-1.88.48c-.64-.3-.64-1.08-.15-1.72a1.6 1.6 0 0 1 1.88-.63 1.29 1.29 0 0 1 .15 1.87zM16.58 41.47a1.41 1.41 0 0 1 1.88-.47c.79.3 1.27.93.94 1.57a1.41 1.41 0 0 1-1.88.48 1.38 1.38 0 0 1-.94-1.58zM20.68 68.87a1.55 1.55 0 0 1-2 .49 1.25 1.25 0 0 1-.3-1.87 1.54 1.54 0 0 1 2-.49 1.21 1.21 0 0 1 .3 1.87zM26.81 62.93a1.71 1.71 0 0 1-2.37.31A1.61 1.61 0 0 1 23.8 61a1.71 1.71 0 0 1 2.37-.31c.83.68 1.13 1.61.64 2.24zM26.81 45.87a1.63 1.63 0 0 1-2.22.94 1.6 1.6 0 0 1-.94-2 1.86 1.86 0 0 1 2.22-.94 1.38 1.38 0 0 1 .94 2zM38 7.08c.63 0 1.09.63 1.09 1.41A1.29 1.29 0 0 1 38 9.91c-.64 0-1.1-.63-1.1-1.42s.48-1.41 1.1-1.41zM38 13.32a1.42 1.42 0 1 1-1.28 1.41A1.39 1.39 0 0 1 38 13.32zM38 19.89a1.42 1.42 0 1 1-1.43 1.41A1.41 1.41 0 0 1 38 19.89zM38 26.61a1.62 1.62 0 0 1 1.73 1.57A1.72 1.72 0 0 1 38 29.74a1.57 1.57 0 1 1 0-3.13zM30.3 57.45a2 2 0 1 1 2-2 2.18 2.18 0 0 1-2 2zM34.22 49.31a2 2 0 1 1 2-2 2 2 0 0 1-2 2zM38 40.54a2 2 0 1 1 2-2 2.07 2.07 0 0 1-2 2zM40.2 45.39a2 2 0 1 1 2 2 2.18 2.18 0 0 1-2-2zM44.15 55.4a2 2 0 1 1 2-2 2 2 0 0 1-2 2zM50.77 61a1.91 1.91 0 0 1-2.52.15 1.5 1.5 0 0 1 0-2.2 1.9 1.9 0 0 1 2.52-.16 1.41 1.41 0 0 1 0 2.21zM49.53 42.59a1.49 1.49 0 0 1 1.27-1.87 1.92 1.92 0 0 1 2 1.26 1.51 1.51 0 0 1-1.28 1.87 1.58 1.58 0 0 1-1.99-1.26zM54.72 64.8a1.44 1.44 0 0 1-2-.15 1.13 1.13 0 0 1-.31-1.72 1.47 1.47 0 0 1 2 .15 1.31 1.31 0 0 1 .31 1.72zM59.46 69.17a1.45 1.45 0 0 1-1.89-.17 1.34 1.34 0 0 1-.48-1.71 1.44 1.44 0 0 1 1.88.15c.64.5.94 1.43.49 1.73zM58.52 42.25a1.4 1.4 0 0 1-1.73-.78c-.16-.63.48-1.27 1.27-1.42a1.4 1.4 0 0 1 1.73.79c.12.63-.48 1.26-1.27 1.41zM63.38 72a1.22 1.22 0 0 1-1.43.3c-.31-.3-.31-.78.15-1.27a1.22 1.22 0 0 1 1.43-.3c.33.16.33.8-.15 1.27zM65.29 40.87c-.79.15-1.73-.15-1.73-.64S64 39.15 65 39c.79-.15 1.74.15 1.74.63s-.66 1.06-1.45 1.24zM70.79 39.93c-.49.15-1-.3-1.1-.78s.15-1.09.64-1.09c.49-.15.94.31 1.09.79a1 1 0 0 1-.63 1.08z"/></g>
</svg>
