<svg xmlns="http://www.w3.org/2000/svg" xmlns:xlink="http://www.w3.org/1999/xlink" id="Layer_1" data-name="Layer 1" viewBox="0 0 1024.5 612.79"><defs><symbol id="ripples" data-name="ripples" viewBox="0 0 1024.5 612.79"><path fill="#ffeccb" d="M1012.16 520.25c-5.87-1.08-11.77-2.15-17.69-3-3-.43-5.93-.82-8.91-1.1s-5.89-.5-8.79-.67a290.26 290.26 0 0 0-60 3 566.86 566.86 0 0 0-57.12 12.07q-8.18 2.16-16.68 4.57c-5.61 1.64-11.28 3.19-17.1 4.65-11.62 2.91-23.64 5.44-35.71 7.68-24.15 4.48-48.48 7.83-70.3 11s-41.17 6.18-55.54 8.78c-3.6.64-7.5 1.38-11.78 2.26s-8.78 2-13.51 3.17c-9.45 2.36-19.83 5.19-30.77 8.29-21.91 6.19-46 13.4-70.06 18.94-23.63 5.74-47.65 7.6-68.33 7.8-10.35.11-19.88-.13-28.19-.49s-15.43-.86-20.79-1.44c-10.71-1.19-31.22-2.44-59.33-5.87A746.74 746.74 0 0 1 257 579.55c-20.36-5.48-42-12.22-64.54-20.23q-8.47-3-17.11-6.24l-8.67-3.29-2.15-.82-2-.8c-1.37-.56-2.75-1.13-4.13-1.73-11-4.78-22.4-10.72-34.39-16.74s-24.66-12.18-38.55-17.13c-1.74-.61-3.49-1.21-5.26-1.78l-2.81-.88c-1-.27-2-.56-2.95-.79q-5.66-1.41-11.39-2.28a156.4 156.4 0 0 0-22.92-1.73A252.16 252.16 0 0 0 0 508.44v10.33a272.28 272.28 0 0 1 35.07.14 157.72 157.72 0 0 1 19.3 2.62c3.15.63 6.23 1.39 9.24 2.26a80.43 80.43 0 0 1 8.58 2.93 241.73 241.73 0 0 1 31.57 16.49c9.47 5.74 17.89 11.2 24.81 15.58A238 238 0 0 0 150 571l2.7 1.29 2.54 1.16 4.9 2.17q4.81 2.08 9.41 3.94a330 330 0 0 0 35.18 11.88c11.55 3.19 23.28 5.84 36.44 8.34s27.75 4.85 45.08 7.09a812.26 812.26 0 0 0 84.75 5.69c15 .29 30.14.27 45.17.09s30-.26 44.48-.12c16.27-.08 30.74.13 45.3-.62 7.28-.37 14.57-1 22-2q5.6-.79 11.34-1.94c3.81-.8 7.68-1.58 11.67-2.55 35.36-8.45 68.63-22.61 103.8-30.89a434.7 434.7 0 0 1 46.35-7.38c14.31-1.54 27.69-2.47 40.89-3.34s26.2-1.67 39.81-3a432.42 432.42 0 0 0 43.28-6.08c7.28-1.38 14.51-3 21.49-4.74 6.67-1.65 13.35-3.27 19.9-4.8 13.12-3.06 25.92-5.84 38.51-8.21 25.18-4.71 49.58-7.87 73.67-7.94 11.79-.16 23.81 1.2 36.4 2.41l5.35.49c.08-3.37.47-6.77.55-10.08-2.89-.52-5.84-1.07-8.8-1.61zM983.59 348.64a136.5 136.5 0 0 0-21.39 1.73c-3.55.58-7.1 1.34-10.61 2.28-.87.22-1.85.52-2.76.78l-2.61.88c-1.66.57-3.29 1.17-4.91 1.78-13 4.94-24.78 11.1-36 17.11s-21.77 11.95-32.08 16.72c-1.29.6-2.57 1.17-3.85 1.73l-1.87.8-2 .82-8.08 3.28q-8.07 3.22-16 6.23c-21.06 8-41.21 14.73-60.19 20.21a655.73 655.73 0 0 1-97.49 20.33c-26.22 3.43-45.35 4.68-55.34 5.87-5 .58-11.66 1.06-19.39 1.43s-16.64.6-26.29.49c-19.29-.19-41.69-2.06-63.73-7.79-22.48-5.53-44.92-12.73-65.35-18.91-10.2-3.1-19.88-5.92-28.7-8.28-4.41-1.17-8.58-2.27-12.61-3.17s-7.63-1.62-11-2.26c-13.4-2.59-31.44-5.63-51.8-8.76s-43.05-6.53-65.57-11c-11.27-2.23-22.48-4.77-33.31-7.68-5.43-1.45-10.72-3-16-4.63s-10.48-3.14-15.56-4.57A497.66 497.66 0 0 0 166 362a253.48 253.48 0 0 0-56-3q-4.06.25-8.2.67c-2.78.27-5.55.67-8.31 1.09-5.52.86-11 1.93-16.5 3-10.99 2.16-21.84 4.34-32.39 4.95a94.26 94.26 0 0 1-15.44-.26c-2.49-.26-4.92-.63-7.31-1.1s-4.72-.93-7-1.49c-4.95-1.22-9.57-2.64-13.86-4v3.5H1a160 160 0 0 0 18.55 6.93l2.16.65 2.27.61c1.52.39 3.05.74 4.58 1.05 3.07.62 6.16 1.06 9.26 1.37 12.41 1.24 24.66.19 36.36-1s23-2.57 33.95-2.41c22.47.07 45.23 3.22 68.71 7.93 11.75 2.37 23.69 5.14 35.92 8.21 6.11 1.52 12.34 3.14 18.57 4.79 6.5 1.77 13.25 3.35 20 4.73a377.74 377.74 0 0 0 40.37 6.08c12.69 1.28 24.83 2.07 37.13 2.94s24.83 1.76 38.17 3.32a377.73 377.73 0 0 1 43.23 7.37c32.81 8.27 63.84 22.41 96.82 30.85 3.72 1 7.33 1.74 10.88 2.54s7.11 1.42 10.59 1.94c7 1.06 13.76 1.68 20.55 2.05 13.58.75 27.08.54 42.26.62 13.48-.14 27.46-.14 41.48.12s28.16.2 42.14-.09a710.26 710.26 0 0 0 79.05-5.73c16.15-2.24 29.76-4.61 42-7.09s23.22-5.14 34-8.33A292.86 292.86 0 0 0 862.88 423c2.86-1.24 5.79-2.54 8.78-3.94l4.57-2.17 2.37-1.15 2.51-1.29a213.21 213.21 0 0 0 20-12.15c6.46-4.37 14.31-9.83 23.15-15.56a221.37 221.37 0 0 1 29.45-16.47 75.17 75.17 0 0 1 8-2.93c2.8-.86 5.68-1.62 8.61-2.25a137.8 137.8 0 0 1 18-2.62 240.08 240.08 0 0 1 32.71-.14V352a219.85 219.85 0 0 0-37.44-3.36z"/><path fill="#ffeccb" stroke="#ffeccb" stroke-miterlimit="10" d="M991 97.18a225.19 225.19 0 0 0-35.42 0 123.44 123.44 0 0 0-35.95 8.32q-2.21.9-4.39 1.91l-2.24 1.08-2 1-7.74 3.89-15.51 7.75c-10.38 5.15-20.85 10.23-31.57 15.1q-8 3.66-16.28 7.14-4.12 1.74-8.32 3.42l-8.58 3.35c-10.16 4-21.48 6.14-33.87 6.87-13.16.64-25.81.07-38.17-.24-6.18-.16-12.31-.28-18.43-.26h-7.01l-2.38.14-9.08.67c-12.14 1-24.42 2.22-37.56 3.78s-27.15 3.43-42.7 6.15c-8.18 1.44-16.34 3-24.44 5-2 .48-4 1-6.07 1.52s-4 1.17-6 1.71q-6 1.67-12 3.1c-16.05 3.85-32.28 6.61-48.55 9.24-14.63 2.38-27.69 4.66-40.87 6.51a308.33 308.33 0 0 1-41.45 3.37c-26.65.63-54.9-2.35-81.9-7s-52.91-11-75.41-16.77c-61.05-15.71-82.62-26-146-31.41l-12.57-1-7-.58c-2.51-.26-5.16-.5-7.84-.71-10.74-.86-22.58-1.42-34.88-1.56-24.57-.27-51.11 1.2-73.21 6.07-4.43 1-8.67 2.09-12.66 3.34v8.44c4.47-.86 9-1.5 13.54-2a281.75 281.75 0 0 1 39-.87c12.91.52 25.63 1.63 38.08 3.13q9.33 1.11 18.43 2.54 4.55.72 9 1.51l4.42.83 4.54.88 18.04 3.39 17.47 3.39 33.75 6.68c22 4.34 42.84 8.38 62.42 11.82s37.91 6.28 54.6 8.47 31.83 3.87 45.15 5c26.65 2.32 46 2.59 56.1 2.08s26.24-.46 45.61-1a646.61 646.61 0 0 0 64.9-4.88 402.86 402.86 0 0 0 66.2-14.08c2.52-.78 5-1.57 7.43-2.39s4.56-1.5 6.9-2.18c4.58-1.33 9-2.48 13.26-3.48 8.49-2 16.18-3.44 22.63-4.54a375.66 375.66 0 0 1 50.5-4.78q7.5-.24 15.41-.24h8c2.68.06 5.44.06 8 .22 10.78.76 22 2.17 33.22 3.36a255.41 255.41 0 0 0 34.06 1.81 112.43 112.43 0 0 0 32.59-5.43A447.89 447.89 0 0 0 875.52 145c6.39-3.1 13.82-7 21.89-11.51q6.06-3.37 12.55-7.17l6.55-3.84 3.32-2c1.07-.62 2.17-1.22 3.29-1.82a115.13 115.13 0 0 1 29.68-10.36 204.57 204.57 0 0 1 31.7-3.87c10.41-.55 20.43-.55 29.58-.48l9.92.1v-3.66c-11-1.19-22-2.46-33-3.21z"/><path fill="#ffeccb" stroke="#ffeccb" stroke-miterlimit="10" stroke-width=".995" d="M983.54.5a137.86 137.86 0 0 0-21.41 1.72A108.13 108.13 0 0 0 951.5 4.5c-.87.22-1.85.52-2.77.79l-2.61.87c-1.66.57-3.3 1.17-4.92 1.78-13 4.93-24.81 11.08-36 17.07S883.39 37 873.07 41.71c-1.29.59-2.57 1.17-3.85 1.72l-1.88.8-2 .82-8.09 3.28q-8.09 3.22-16 6.22c-21.08 8-41.26 14.7-60.27 20.17A659.64 659.64 0 0 1 683.37 95c-26.26 3.44-45.37 4.68-55.37 5.88-5 .57-11.68 1.05-19.42 1.42s-16.66.61-26.32.49c-19.32-.19-41.75-2.05-63.82-7.77-22.51-5.52-45-12.72-65.44-18.89-10.21-3.08-19.91-5.9-28.74-8.26-4.41-1.16-8.59-2.26-12.62-3.17s-7.64-1.61-11-2.25c-13.42-2.59-31.47-5.62-51.87-8.75s-43.1-6.51-65.66-11c-11.27-2.23-22.5-4.76-33.35-7.67-5.44-1.45-10.73-3-16-4.62s-10.49-3.13-15.58-4.56a498.32 498.32 0 0 0-53.35-12 254.11 254.11 0 0 0-56.08-3c-2.72.17-5.45.39-8.21.67s-5.56.67-8.33 1.09c-5.53.86-11 1.92-16.52 3-11 2.16-21.81 4.33-32.38 4.95a95.49 95.49 0 0 1-15.45-.27c-2.5-.26-4.93-.62-7.32-1.1-1.05-.2-2-.39-2.76-.56-3.16-.67-3.39-.94-4.24-.92-2.31 0-4.87 1.93-4.75 3.21.1 1 1.91 2.23 9.44 3.19l2.17.64 2.27.62c1.52.39 3.05.73 4.59 1 3.07.62 6.17 1.06 9.27 1.37 12.43 1.24 24.69.19 36.41-1s23-2.56 34-2.4c22.51.07 45.3 3.22 68.81 7.92 11.76 2.36 23.72 5.13 36 8.19 6.05 1.55 12.25 3.15 18.52 4.8 6.52 1.75 13.28 3.35 20.07 4.75a379 379 0 0 0 40.43 6c12.71 1.32 24.86 2.11 37.23 3s24.82 1.79 38.19 3.33a383.5 383.5 0 0 1 43.29 7.35c32.85 8.26 63.92 22.38 96.95 30.81 3.72 1 7.34 1.74 10.89 2.53s7.11 1.41 10.6 1.94c7 1 13.78 1.67 20.58 2 13.6.74 27.12.53 42.31.62 13.5-.14 27.51-.15 41.55.11s28.19.2 42.18-.09a709.85 709.85 0 0 0 79.19-5.72c16.18-2.24 29.81-4.6 42.1-7.07s23.25-5.14 34-8.32a295.26 295.26 0 0 0 32.86-11.84c2.87-1.24 5.79-2.54 8.79-3.93l4.52-2.14 2.37-1.15 2.52-1.29a215.65 215.65 0 0 0 20-12.12c6.46-4.36 14.32-9.81 23.17-15.54A221.21 221.21 0 0 1 953.59 22a74 74 0 0 1 8-2.92c2.81-.86 5.69-1.62 8.63-2.25a137.84 137.84 0 0 1 18-2.61 237.48 237.48 0 0 1 32.75-.14V3.82A221.36 221.36 0 0 0 983.54.5z"/></symbol></defs><use width="1024.5" height="612.79" xlink:href="#ripples"/></svg>