<svg xmlns="http://www.w3.org/2000/svg" xmlns:xlink="http://www.w3.org/1999/xlink" style="width: 0; height: 0; visibility: hidden; position: absolute;" aria-hidden="true"><symbol  viewBox='0 0 256 256' id='ico-free'>
    <defs><symbol id="a" data-name="free" viewbox="0 0 253 253"><path d="M126.5 253A126.5 126.5 0 1 1 253 126.5 126.65 126.65 0 0 1 126.5 253zm0-250A123.5 123.5 0 1 0 250 126.5 123.64 123.64 0 0 0 126.5 3zM204 177.54a74.71 74.71 0 0 1-13.36-1.19c-11.44-2.08-35.24-6.39-42.07-25.78-5-14.22 1-32 14.89-44.79-10.45-5.08-25.7-9.75-42.26-5.71-17.24 4.21-29.18 15.87-37.66 25.57a140.87 140.87 0 0 0-10.83 14c-3.29 4.75-5.9 8.51-11.65 13.4-10.84 9.3-25.06 14.64-42.36 15.89a1.5 1.5 0 0 1-.22-3c16.61-1.2 30.29-6.29 40.68-15.14 5.45-4.64 7.83-8.08 11.13-12.83a144.4 144.4 0 0 1 11-14.3c8.77-10 21.16-22.1 39.21-26.5 18.53-4.53 35.41 1.28 46.31 6.94a1.52 1.52 0 0 1 .8 1.16 1.51 1.51 0 0 1-.52 1.31c-14.17 12.11-20.48 29.39-15.68 43 6.25 17.75 28.89 21.85 39.77 23.82a76.26 76.26 0 0 0 42.56-4.87 1.5 1.5 0 1 1 1.14 2.78 81.61 81.61 0 0 1-30.88 6.24zM17.34 160.63a1.5 1.5 0 0 1-.09-3A72.6 72.6 0 0 0 28.73 156a75 75 0 0 0 16.74-5.91 1.5 1.5 0 1 1 1.33 2.69A78 78 0 0 1 29.39 159a77.55 77.55 0 0 1-12 1.68zM93 126.12a1.52 1.52 0 0 1-1-.33 1.51 1.51 0 0 1-.22-2.11A56.6 56.6 0 0 1 121.23 105a66.47 66.47 0 0 1 21.65-2.07 1.5 1.5 0 0 1 1.39 1.6 1.52 1.52 0 0 1-1.59 1.4 63.25 63.25 0 0 0-20.67 2 53.55 53.55 0 0 0-27.85 17.67 1.5 1.5 0 0 1-1.16.52z"></path></symbol></defs><use width="253" height="253" transform="translate(1.5 1.5)" xlink:href="#a"></use>
  </symbol><symbol  viewBox='0 0 256 256' id='ico-help'>
    <defs><symbol id="a" data-name="help" viewbox="0 0 225 217"><path d="M210.42 108.64a1.4 1.4 0 0 1 0-.29l6.52-76.13A22 22 0 0 0 210.81 15a24 24 0 0 0-17.31-7.3c-.64 0-1.28 0-1.91.07l-78.94 6.29h-.3L33.41 7.77c-.63 0-1.28-.07-1.91-.07A24 24 0 0 0 14.19 15a22 22 0 0 0-6.13 17.22l6.52 76.14a1.31 1.31 0 0 1 0 .28l-6.52 76.14A22 22 0 0 0 14.19 202a23.9 23.9 0 0 0 17.24 7.31c.65 0 1.32 0 2-.07l78.94-6.29h.3l78.94 6.29c.63.05 1.27.07 1.91.07a24 24 0 0 0 17.29-7.31 21.92 21.92 0 0 0 6.13-17.2zm-18.48-96.71q.78-.06 1.56-.06a19.6 19.6 0 0 1 14.13 6 17.91 17.91 0 0 1 5 14l-4.95 57.75C199.9 53.07 170 24.21 132.07 16.7zm-30.64 94.85v-.34c0-.57-.06-1.14-.11-1.71a.57.57 0 0 0 0-.13c0-.57-.11-1.13-.18-1.69v-.17c-.08-.58-.16-1.15-.26-1.73v-.1H205v.3c0 .35.05.69.08 1s0 .72.07 1.07 0 .67 0 1 0 .83.05 1.24v5.86c0 .41 0 .83-.05 1.24s0 .67 0 1-.05.71-.07 1.07-.05.69-.08 1v.3h-44.3v-.1c.1-.57.18-1.15.26-1.73V114c.07-.57.13-1.13.18-1.7a.62.62 0 0 0 0-.13c.05-.57.09-1.14.11-1.71v-.34-1.72c0-.58.07-1.05.05-1.62zm-36.6-87c41.45 5.27 74.37 37 79.84 77h-44.75c-4.42-16.54-17.95-29.58-35.09-33.85zm-20.07-.45h.31l1.09-.08 1.09-.06 1.08-.06H110.38L112 19h4.84l1.08.06 1.09.06 1.09.08h.31V62h-.11q-.9-.14-1.8-.24h-.14c-.62-.07-1.24-.13-1.87-.18-.63-.05-1.26-.09-1.9-.11h-4.1c-.64 0-1.27.06-1.9.11-.63 0-1.25.11-1.87.18h-.14q-.9.1-1.8.24h-.11zM63.7 110.22v.33c0 .58.06 1.15.11 1.73a.45.45 0 0 0 0 .11c0 .57.11 1.14.18 1.72v.14c.08.59.16 1.16.26 1.74v.1H20v-.3c0-.35 0-.7-.08-1.05s-.05-.7-.07-1.06 0-.68-.05-1 0-.83-.05-1.24v-.83-2.1-2.93c0-.41 0-.83.05-1.24s0-.67.05-1 .05-.71.07-1.06.05-.7.08-1.05v-.3h44.3v.1c-.1.58-.18 1.15-.26 1.73v.16c-.07.57-.14 1.14-.18 1.71a.45.45 0 0 0 0 .11c0 .58-.09 1.15-.11 1.73v2.05c0 .58-.07 1.13-.05 1.7zM20.46 96.74c5.47-40 38.39-71.73 79.84-77v43.15C83.16 67.16 69.63 80.2 65.21 96.74zm-8.09-64.86a17.91 17.91 0 0 1 5-14 19.6 19.6 0 0 1 14.13-6c.51 0 1 0 1.56.06l59.87 4.76C55 24.21 25.1 53.07 17.32 89.62zm20.69 173.19c-.55 0-1.09.06-1.63.06a19.48 19.48 0 0 1-14.06-6 17.91 17.91 0 0 1-5-14l5-57.74c7.73 36.54 37.63 65.4 75.56 72.91zm67.24-7.81c-41.45-5.27-74.37-37-79.84-77h44.75c4.42 16.54 18 29.58 35.09 33.85zm20.07.45h-.31l-1.09.08-1.08.06-1.09.06H114.62L113 198h-4.84l-1.09-.06-1.08-.06-1.09-.08h-.31V155h.1c.6.09 1.2.17 1.81.24h.13c.62.07 1.24.13 1.87.18.62.05 1.25.09 1.88.11h4.12c.63 0 1.26-.06 1.88-.11.62-.05 1.24-.11 1.85-.18h.14c.61-.07 1.21-.15 1.81-.24h.1zm.95-47.14c-.62.12-1.24.23-1.87.33l-.45.1c-.58.08-1.17.16-1.76.22h-.58c-.51.05-1 .09-1.55.11H109.89c-.52 0-1-.06-1.55-.11h-.58c-.59-.06-1.18-.14-1.76-.22l-.45-.06c-.63-.1-1.25-.21-1.87-.33h-.27c-17.26-3.47-30.88-16.6-34.48-33.25l-.06-.27c-.12-.6-.23-1.21-.33-1.82l-.06-.36c-.09-.6-.17-1.21-.24-1.82v-.33a30.1 30.1 0 0 1-.15-1.91 1.15 1.15 0 0 1 0-.19q-.06-1-.06-2.07t.06-2.07a1.15 1.15 0 0 1 0-.19c0-.64.08-1.28.15-1.91v-.33c.07-.61.15-1.22.24-1.82l.06-.36c.1-.61.21-1.22.34-1.83 0-.08 0-.17.05-.26 3.6-16.74 17.22-29.82 34.48-33.34h.27c.62-.12 1.24-.23 1.87-.33L106 66c.59-.08 1.18-.16 1.78-.22h.55c.53 0 1.07-.09 1.6-.12h5.15c.54 0 1.08.07 1.61.12h.55c.6.06 1.19.14 1.78.22l.43.06c.64.1 1.26.21 1.88.33h.27c17.26 3.47 30.89 16.61 34.48 33.26a2 2 0 0 1 .05.24c.13.61.24 1.23.35 1.85 0 .11 0 .23.05.34q.14.92.24 1.83v.32q.11 1 .15 1.92a1.09 1.09 0 0 1 0 .18c0 .69.06 1.38.06 2.08s0 1.39-.06 2.08a1.09 1.09 0 0 1 0 .18q0 1-.15 1.92v.32q-.1.91-.24 1.83c0 .11 0 .23-.05.34-.11.62-.22 1.23-.35 1.84a1.84 1.84 0 0 1-.05.25c-3.6 16.65-17.22 29.79-34.48 33.26zm3.38 3.54c17.14-4.27 30.67-17.31 35.09-33.85h44.75c-5.47 40-38.39 71.73-79.84 77zm82.93 45a19.6 19.6 0 0 1-14.13 6q-.78 0-1.56-.06l-59.87-4.77c37.91-7.51 67.83-36.37 75.61-72.93l4.95 57.75a17.91 17.91 0 0 1-5 14.06zm10.78-90.66l6.48-75.64a29.37 29.37 0 0 0-8.21-23.01A32.05 32.05 0 0 0 193.57 0c-.88 0-1.76 0-2.64.1L112.5 6.35 34.07.1c-.88-.1-1.76-.1-2.64-.1A32.05 32.05 0 0 0 8.32 9.8 29.37 29.37 0 0 0 .11 32.86l6.48 75.64-6.48 75.64a29.37 29.37 0 0 0 8.21 23.06 32.05 32.05 0 0 0 23.11 9.8c.88 0 1.76 0 2.64-.11l78.43-6.24 78.43 6.24c.88.07 1.76.11 2.64.11a32.05 32.05 0 0 0 23.11-9.8 29.37 29.37 0 0 0 8.21-23.06zm-4.91 95.87a27.82 27.82 0 0 1-22.21 8.37l-78.61-6.26h-.36l-78.61 6.26q-1.14.09-2.28.09a27.63 27.63 0 0 1-19.93-8.46 25.32 25.32 0 0 1-7.08-19.88l6.49-75.82a1.93 1.93 0 0 0 0-.34L4.42 32.51a25.32 25.32 0 0 1 7.08-19.88 27.63 27.63 0 0 1 19.93-8.46c.76 0 1.53 0 2.28.09l78.61 6.26h.36l78.61-6.26c.75-.06 1.52-.09 2.28-.09a27.63 27.63 0 0 1 19.93 8.46 25.32 25.32 0 0 1 7.08 19.88l-6.49 75.82a1.93 1.93 0 0 0 0 .34l6.49 75.82a25.32 25.32 0 0 1-7.08 19.88z"></path></symbol></defs><use width="225" height="217" transform="translate(14.5 20.5)" xlink:href="#a"></use>
  </symbol><symbol  viewBox='0 0 256 256' id='ico-profiles'>
    <defs><symbol id="a" data-name="profiles" viewbox="0 0 253 253"><path d="M126.5 253A126.5 126.5 0 1 1 253 126.5 126.65 126.65 0 0 1 126.5 253zm0-250A123.5 123.5 0 1 0 250 126.5 123.64 123.64 0 0 0 126.5 3zM58.55 211.12a1.49 1.49 0 0 1-1.27-2.28 72.3 72.3 0 0 0 7.39-16.05c6-19.09 3.46-41.29 2.63-48.59-.13-1.11-.22-1.94-.26-2.43-.26-3.87-.51-6.48-.7-8.4-.21-2.15-.35-3.58-.35-5.16 0-.77 0-1.47.09-2.06l-1.52 1.13a1.48 1.48 0 0 1-1.6.14c-12.63-6.58-19.85-15.85-18.4-23.62 1.08-5.75 6.72-9.47 13.86-14.19a63 63 0 0 1 12.11-6.3 53 53 0 0 0 5.61-2.57c8.27-4.49 11.41-10.35 14.73-16.56 3.42-6.38 6.95-13 16-18.62 10.52-6.56 18.48-8 23.68-4.36 6.19 4.36 5.62 14.33 5.16 18a11.17 11.17 0 0 1 4.91 12.32 64.91 64.91 0 0 1 11.24.2c6.66.7 13 1.36 14.45 5.37 1.36 3.63-2.05 7.66-4.74 10.38A38.2 38.2 0 0 1 150 95.38l11.78 16.49a1.43 1.43 0 0 1 .57.27c.17.12.41.3.68.53 3.11 1.5 6.31 2.92 9.52 4.23 5.83 2.36 10.52 3.93 14.29 5.2 7.4 2.47 11.87 4 15.22 8.35s4.49 10.12 3.7 17.47a1.45 1.45 0 0 1-.37.84v.05a1.46 1.46 0 0 1-1 .46h-.07a1.77 1.77 0 0 1-.56-.09 33.65 33.65 0 0 0-4.36-1.18 34 34 0 0 0-9.8-.47h-.75c-4.83.29-7.6-1-11.11-2.6a51.08 51.08 0 0 0-14.07-4.51c-5.29-1-7.7-1.38-10.27-.65-7.41 2.1-12.34 10.42-13.22 17.18-1.53 11.72 9.47 21.19 14.76 25.73 8.66 7.46 15.67 9.06 23.08 10.75 7.08 1.62 14.4 3.3 23 10.32a1.5 1.5 0 1 1-1.9 2.32c-8-6.58-14.68-8.1-21.72-9.71-7.45-1.7-15.15-3.47-24.38-11.4-5.68-4.89-17.52-15.07-15.78-28.39 1-7.91 6.65-17.21 15.38-19.69l.47-.12a65 65 0 0 1-6.72-3.87 67.48 67.48 0 0 1-12.11-10.19 1.48 1.48 0 0 1-.41-1v-.1a1.46 1.46 0 0 1 .37-.93 1.43 1.43 0 0 1 .35-.3 1.55 1.55 0 0 1 .68-.21h.11c26.25-.08 27.11-3.36 27.13-3.5s-.16-.67-1.11-1.52l-1-.51a1.43 1.43 0 0 1-.56-.47l-12.66-17.57c-6.87 2.71-14.78 4.45-23.33 6.33-11.5 2.53-24.52 5.39-37.54 11.32a113.79 113.79 0 0 0-17.4 9.9 1.43 1.43 0 0 1 .28 1v.36c-.06.68-.14 1.61-.15 2.71a47.55 47.55 0 0 0 .34 4.86c.18 1.93.44 4.58.71 8.49 0 .46.12 1.24.24 2.29.85 7.45 3.45 30.13-2.75 49.83a74.35 74.35 0 0 1-7.7 16.72 1.49 1.49 0 0 1-1.31.72zM193 144.37a35.66 35.66 0 0 1 5.22.38 53.65 53.65 0 0 0-17.1-8.75 59.84 59.84 0 0 0-12.12-2 77.72 77.72 0 0 1-14.23-2.34 75.22 75.22 0 0 1-9.85-3.36c1 .76 2 1.48 3.09 2.17a63.54 63.54 0 0 0 9.89 5.3 1.46 1.46 0 0 1 .83.89c1.56.18 3.33.5 5.49.88a54.7 54.7 0 0 1 14.78 4.7c3.37 1.56 5.59 2.58 9.66 2.33h.72c.89-.11 2.13-.2 3.62-.2zm-52-21.23a73.89 73.89 0 0 0 14.55 5.58 75.92 75.92 0 0 0 13.7 2.28 61.23 61.23 0 0 1 12.75 2.14 58.19 58.19 0 0 1 21 11.52c.14-5.18-1-9.34-3.3-12.39-2.79-3.65-6.7-5-13.79-7.33-3.81-1.27-8.56-2.86-14.47-5.26q-3-1.23-6-2.58v.11c-.44 2.7-3.89 5.45-24.44 5.93zm-17.09-80.88c-3.41 0-8.35 1.43-15.43 5.84-8.39 5.23-11.73 11.47-15 17.5-3.38 6.32-6.88 12.85-15.93 17.77a55.91 55.91 0 0 1-5.9 2.71 59.56 59.56 0 0 0-11.61 6c-6.8 4.5-11.72 7.74-12.56 12.24-1.16 6.19 5.25 14.14 16 20a117.52 117.52 0 0 1 21.54-12.81c13.3-6.06 26.49-9 38.13-11.52 15-3.3 27.95-6.14 36.28-14.58 4.27-4.33 4.38-6.39 4.06-7.23-.84-2.27-7-2.92-12-3.44a62 62 0 0 0-12.33-.06 68.955 68.955 0 0 1-4.12 4.08c-10.56 9.6-21 12.83-32 16.26a148.31 148.31 0 0 0-16.85 6 96.17 96.17 0 0 0-26 17.35 1.5 1.5 0 0 1-2.16-2.07 110.77 110.77 0 0 1 13.39-13.4C80.54 95.33 88.41 91.25 96 87.3s15.16-7.85 23.91-15.2a106.93 106.93 0 0 0 12.75-12.7c.34-2.4 1.34-12.09-3.82-15.75a8.31 8.31 0 0 0-4.93-1.39zM134.42 62a110.7 110.7 0 0 1-12.56 12.4C112.86 82 105 86 97.4 90c-6.47 3.35-13.14 6.8-20.52 12.47a90.93 90.93 0 0 1 8.18-4.14 150.66 150.66 0 0 1 17.18-6.14c10.69-3.33 20.79-6.47 30.86-15.62 1.44-1.31 2.83-2.69 4.14-4.12a9 9 0 0 0-.08-7.31 8.28 8.28 0 0 0-2.74-3.14zM85.67 99.67zm36 23.2c-4.7 0-8.51-3.33-8.51-7.41S117 108 121.69 108s8.51 3.33 8.51 7.42-3.82 7.45-8.51 7.45zm-.33-11.82c-2.89.14-5.18 2.06-5.18 4.41s2.47 4.41 5.51 4.41c2.63 0 4.83-1.48 5.38-3.46a3.92 3.92 0 1 1-5.71-5.36z"></path></symbol></defs><use width="253" height="253" transform="translate(1.5 1.5)" xlink:href="#a"></use>
  </symbol><symbol  viewBox='0 0 256 256' id='ico-quest'>
    <defs><symbol id="a" data-name="quest" viewbox="0 0 253.01 253.01"><path d="M126.51 253A126.51 126.51 0 1 1 253 126.51 126.65 126.65 0 0 1 126.51 253zm0-250A123.5 123.5 0 1 0 250 126.51 123.64 123.64 0 0 0 126.51 3zm1.37 111a2.47 2.47 0 1 1-3 2.42 2.75 2.75 0 0 1 3-2.42zM138 154a3.19 3.19 0 1 0 3.26 3.19A3.22 3.22 0 0 0 138 154zm-22.86 3.19a3.19 3.19 0 1 0 3.25 3.18 3.22 3.22 0 0 0-3.25-3.18zm6.5-13a3.19 3.19 0 1 0 3.25 3.18 3.22 3.22 0 0 0-3.25-3.18zm13.12-3.19a3.19 3.19 0 1 0 3.25 3.19 3.22 3.22 0 0 0-3.25-3.19zm-6.88-10.87a3.19 3.19 0 1 0 3.25 3.18 3.21 3.21 0 0 0-3.25-3.18zm0-37.19a2.22 2.22 0 1 0 2.06 2.21 2.14 2.14 0 0 0-2.06-2.21zm0 10.45a2.3 2.3 0 0 0-1.56.62 2.34 2.34 0 0 0-.73 1.7 2.29 2.29 0 1 0 4.58 0 2.34 2.34 0 0 0-.73-1.7 2.3 2.3 0 0 0-1.56-.62zm0-20.51a2.38 2.38 0 1 0 1.83 2.32 2.12 2.12 0 0 0-1.83-2.32zm21.55 53.83a2.89 2.89 0 0 0-.5 0 2.54 2.54 0 0 0-2.11 3.05 2.9 2.9 0 0 0 3.28 2.09 2.54 2.54 0 0 0 2.11-3.05 2.85 2.85 0 0 0-2.78-2.13zm12-1.05a4 4 0 0 0-.6.05c-1.37.24-2.29 1.24-2.06 2.22a2.19 2.19 0 0 0 2.23 1.37 4.16 4.16 0 0 0 .6-.05c1.37-.24 2.29-1.24 2.06-2.22a2.19 2.19 0 0 0-2.27-1.39zm19.85-3.36h-.21a1.43 1.43 0 0 0-1 1.82 1.67 1.67 0 0 0 1.51 1.36h.2a1.42 1.42 0 0 0 1-1.82 1.66 1.66 0 0 0-1.5-1.36zm-8.56 1.57a4.71 4.71 0 0 0-.74.06c-1.43.26-2.42 1.17-2.22 2s1.09 1.19 2.21 1.19a4.71 4.71 0 0 0 .74-.06c1.42-.26 2.41-1.17 2.21-2-.16-.72-1.09-1.19-2.2-1.19zm-66 34.7a2.79 2.79 0 0 0-2.29 1.06 2.35 2.35 0 0 0 1 3.45 3.42 3.42 0 0 0 1 .39 3.49 3.49 0 0 0 .65.06 3.39 3.39 0 0 0 .64-.06 2.61 2.61 0 0 0 1.65-1 2.36 2.36 0 0 0-1-3.45 3.52 3.52 0 0 0-1.7-.45zm-14.27 19a2.73 2.73 0 0 0-2.14 1.13 1.89 1.89 0 0 0 .37 2.84 2 2 0 0 0 1 .24 2.73 2.73 0 0 0 2.14-1.13 1.81 1.81 0 0 0-1.33-3.08zm8-8.87a2.8 2.8 0 0 0-2.23 1.14 2 2 0 0 0 .5 3 2.27 2.27 0 0 0 1.12.28 2.82 2.82 0 0 0 2.23-1.14 2 2 0 0 0-.5-3 2.3 2.3 0 0 0-1.12-.28zm-20.8 22.75a1.34 1.34 0 0 0-1.1.47c-.41.56 0 1.4.8 1.88a2.4 2.4 0 0 0 1.18.33 1.34 1.34 0 0 0 1.1-.47c.41-.56.05-1.4-.8-1.89a2.49 2.49 0 0 0-1.18-.32zm6.13-7.64a2.92 2.92 0 0 0-2.21 1.19c-.79 1.08-.74 2.34.11 2.82a1.61 1.61 0 0 0 .76.18 2.92 2.92 0 0 0 2.21-1.26c.79-1.07.73-2.33-.12-2.81a1.47 1.47 0 0 0-.75-.19zM147 165.32a3.27 3.27 0 0 0-2.28.92 2.32 2.32 0 0 0 .06 3.56 2.85 2.85 0 0 0 1.76.59 3.27 3.27 0 0 0 2.27-.92 2.33 2.33 0 0 0-.05-3.57 2.86 2.86 0 0 0-1.76-.58zm5.93 6.59a2 2 0 0 0-1.42.53 1.52 1.52 0 0 0-.45 1 2.24 2.24 0 0 0 .95 1.81 3 3 0 0 0 1.83.65 2 2 0 0 0 1.42-.52 1.62 1.62 0 0 0 .24-1.94 2.64 2.64 0 0 0-.74-.88 3 3 0 0 0-1.83-.66zm16.24 12.64a2.21 2.21 0 0 0-1.47.64c-.67.66-.76 1.56-.2 2a1.25 1.25 0 0 0 .78.25 2.15 2.15 0 0 0 1.47-.64c.67-.66.76-1.56.2-2a1.22 1.22 0 0 0-.78-.25zm-8.75-5.55a1.63 1.63 0 0 0-1.16.41c-.67.66-.34 1.89.74 2.74a3.38 3.38 0 0 0 2 .76 1.63 1.63 0 0 0 1.15-.41c.68-.66.35-1.89-.73-2.74a3.38 3.38 0 0 0-2-.76zm-53.26-37.42a3 3 0 0 0-2.7 1.68 2.43 2.43 0 0 0 1.43 3.34 2.93 2.93 0 0 0 1 .16 3 3 0 0 0 2.71-1.68 2.42 2.42 0 0 0-1.44-3.34 2.85 2.85 0 0 0-1-.16zm-12.44-4.74a2.13 2.13 0 0 0-2 1c-.43.93.27 2.06 1.56 2.52a3.38 3.38 0 0 0 1.12.19 2.52 2.52 0 0 0 1.5-.45 1.51 1.51 0 0 0 0-2.46 3.07 3.07 0 0 0-1.07-.65 3.37 3.37 0 0 0-1.11-.19zm-19.08-8.17a1.83 1.83 0 0 0-1.56 1.11 1.36 1.36 0 0 0 .59 1.95 1.34 1.34 0 0 0 .4.07 1.84 1.84 0 0 0 1.56-1.11 1.37 1.37 0 0 0-.59-1.95 1.09 1.09 0 0 0-.4-.07zm7.68 4.1a1.9 1.9 0 0 0-1.81.86c-.38.83.4 1.89 1.75 2.37a4 4 0 0 0 1.32.23 1.9 1.9 0 0 0 1.81-.86c.38-.82-.41-1.88-1.75-2.36a4 4 0 0 0-1.32-.24zm44.56-56.05c-1 0-1.83.62-1.83 1.38s.82 1.37 1.83 1.37 1.83-.61 1.83-1.37-.82-1.38-1.83-1.38zM71.57 217.84a4.52 4.52 0 0 1-2.79-.86c-1.64-1.21-3-4.17-.42-11.33l8.88-23.83a26.17 26.17 0 0 0 1.3-4.84c1.59-9.39-1.07-20.45-6.47-26.9l-10.5-13c-3.6-4.62-4.64-9.32-3-13.27s6.11-6.67 12.27-7.28l14.25-1.34a29.16 29.16 0 0 0 8.28-2c7.6-3 14.11-8.89 16.58-14.9.13-.3.24-.6.34-.9l11.3-32c2.13-5.88 4.95-7.12 6.94-7.13 3.11 0 6 3 8 8.57L150 101.29c2.07 5.15 7.58 10.77 14.38 14.65a37.22 37.22 0 0 0 11.35 4.31l12 2.13c6.7 1.12 11 3.87 12.11 7.72.91 3.15-.53 6.62-4.06 9.77l-10.16 9.38c-6.78 6.5-10 18.36-7 25.87l5.1 12.4c2.15 5.1.56 7.94-.57 9.18-2.46 2.68-7.29 3.1-13.26 1.17L144 188.48c-9.59-3.86-24.79-1.94-33.94 4.25l-28.87 20.69c-3.87 2.93-7.14 4.42-9.62 4.42zm41.62-119.49c-.12.36-.26.71-.4 1.06C110 106.23 103 112.57 94.54 116a31.94 31.94 0 0 1-9.13 2.25l-14.23 1.34c-4.94.48-8.51 2.48-9.79 5.46s-.34 6.53 2.54 10.22l10.46 12.95c5.91 7.06 8.84 19.12 7.11 29.31a28.46 28.46 0 0 1-1.44 5.4l-8.88 23.81c-1.77 4.83-1.43 7.26-.61 7.87s3.5.47 8.84-3.57l28.94-20.74c9.91-6.7 26.37-8.75 36.73-4.59l25.78 9.29c4.68 1.52 8.46 1.39 10.06-.35 1.12-1.22 1.12-3.35 0-6l-5.11-12.42c-3.5-8.7 0-21.79 7.69-29.2l10.19-9.43c2.64-2.34 3.77-4.72 3.2-6.7-.75-2.6-4.39-4.69-9.73-5.58l-12-2.14a39.8 39.8 0 0 1-12.3-4.66c-7.47-4.26-13.34-10.3-15.69-16.15L133.8 67.86c-1.81-4.88-3.87-6.62-5.19-6.62-1.41 0-2.95 1.93-4.11 5.13zm118.23 80.38h-45.85a1.51 1.51 0 0 1 0-3h45.85a1.51 1.51 0 0 1 0 3zM70.87 178H21.59a1.51 1.51 0 0 1 0-3h49.28a1.51 1.51 0 1 1 0 3zM45 102l-1.18-1.54s-1.74-2.12-6.59-2.59a20.48 20.48 0 0 0-6.38.41 1.51 1.51 0 0 1-.67-2.94 23.57 23.57 0 0 1 7.33-.47A14.44 14.44 0 0 1 45 97.54a14.52 14.52 0 0 1 7.51-2.63 23.64 23.64 0 0 1 7.34.47 1.51 1.51 0 0 1-.67 2.94 20.48 20.48 0 0 0-6.38-.41c-4.86.47-6.54 2.52-6.6 2.6zm139.54-25.7l-1.34-2.69a15.32 15.32 0 0 0-7.5-7 16.43 16.43 0 0 0-8.81-1.19 1.5 1.5 0 1 1-.41-3 19.43 19.43 0 0 1 10.42 1.4 18.16 18.16 0 0 1 7.64 6.18 18.22 18.22 0 0 1 7.64-6.23 19.44 19.44 0 0 1 10.42-1.4 1.5 1.5 0 1 1-.41 3 16.41 16.41 0 0 0-8.8 1.19 15.32 15.32 0 0 0-7.5 7z"></path></symbol></defs><use width="253.01" height="253.01" transform="translate(1.49 1.49)" xlink:href="#a"></use>
  </symbol><symbol  viewBox='0 0 256 256' id='ico-quiz'>
    <defs><symbol id="a" data-name="quiz" viewbox="0 0 253 253"><path d="M126.5 253A126.5 126.5 0 1 1 253 126.5 126.65 126.65 0 0 1 126.5 253zm0-250A123.5 123.5 0 1 0 250 126.5 123.64 123.64 0 0 0 126.5 3zm25.1 177.65l-19.35-29.78-19.35 29.78-2.51-1.65 20.07-30.91L87.7 82.26a6.72 6.72 0 0 1-7.93-2.65A6.71 6.71 0 1 1 92 77.35a6.6 6.6 0 0 1-1.74 3.27l42 64.74 42-64.74a6.72 6.72 0 0 1-.81-8.32 6.71 6.71 0 1 1 7 10.22 6.65 6.65 0 0 1-3.7-.26L134 148.11 154.11 179zm27.51-108.4a3.72 3.72 0 1 0 2 .6 3.66 3.66 0 0 0-2-.6zM82.28 78A3.71 3.71 0 0 0 89 76.73a3.71 3.71 0 0 0-5.65-3.88A3.7 3.7 0 0 0 82.28 78zm122.57 99.18h-.1a1.49 1.49 0 0 1-1.34-1.06c-3.89-12.94-15.66-18-27-22.89-11.69-5-23.79-10.22-24.84-24.25a1.53 1.53 0 0 1 .23-.91l23.05-36.4a1.5 1.5 0 0 1 2.77.83c.22 9.85 7.18 20.74 14.54 32.26 10.78 16.86 21.93 34.3 14.1 51.55a1.49 1.49 0 0 1-1.41.85zm-50.3-47.95c1.15 11.85 11.29 16.2 23 21.23 10.36 4.46 22 9.45 27.28 20.93 4.15-14.68-5.7-30.09-15.24-45-6.59-10.33-12.84-20.12-14.59-29.5zm-89.68 41.09a5.18 5.18 0 0 1-1.62-.26 6 6 0 0 1-2.69-2.06c-2.3-3.12-3.5-16.24-4-22.54-7-4.23-18.11-11.16-19.35-13.33a5 5 0 0 1-.68-4.12 5.37 5.37 0 0 1 2.32-3.28L61 110.37l-.21-.33a5.39 5.39 0 0 1 1.59-7.48L82 89.8a5.41 5.41 0 0 1 7.48 1.59l23.2 35.72a5.42 5.42 0 0 1-1.59 7.48L89 148.92l.21.33a5.42 5.42 0 0 1-1.59 7.48L68 169.49l-.15.09a6.81 6.81 0 0 1-2.98.74zm-25.49-41.26a2.89 2.89 0 0 0 .49 1.56c.5.72 5.13 4.32 19 12.64a1.48 1.48 0 0 1 .72 1.18c.89 12.95 2.4 20.35 3.43 21.75a3.3 3.3 0 0 0 1.24 1 3.12 3.12 0 0 0 2.22-.3L86 154.21a2.4 2.4 0 0 0 .7-3.33l-24.5-37.74-21.67 14.07a2.37 2.37 0 0 0-1 1.52 1.28 1.28 0 0 1-.11.33zm45.55-37.13a2.39 2.39 0 0 0-1.3.38L64 105.08a2.41 2.41 0 0 0-.71 3.33l24.51 37.74 21.68-14.08a2.45 2.45 0 0 0 1-1.51 2.4 2.4 0 0 0-.34-1.81L87 93a2.41 2.41 0 0 0-2.07-1.07z"></path></symbol></defs><use width="253" height="253" transform="translate(1.5 1.5)" xlink:href="#a"></use>
  </symbol><symbol  viewBox='0 0 256 256' id='ico-resources'>
    <defs><symbol id="a" data-name="resources" viewbox="0 0 253 253"><path d="M126.5 253A126.5 126.5 0 1 1 253 126.5 126.65 126.65 0 0 1 126.5 253zm0-250A123.5 123.5 0 1 0 250 126.5 123.64 123.64 0 0 0 126.5 3zm90.21 202.2a1.46 1.46 0 0 1-.71-.2 166.06 166.06 0 0 0-45.26-17.32 147.45 147.45 0 0 0-16.66-2.63 1.5 1.5 0 1 1 .29-3 150.16 150.16 0 0 1 17 2.69 168.91 168.91 0 0 1 46.08 17.62 1.5 1.5 0 0 1-.73 2.82zm-77.81-5.77h-23.39a1.55 1.55 0 0 1-.31 0l-8.91-1.85a1.51 1.51 0 0 1-1.2-1.57l5.54-81.92-4.21-7a1.5 1.5 0 0 1 1.29-2.28h5.18V86.49h-.73a1.5 1.5 0 0 1-.67-2.84l10.31-5.14v-3.7a1.5 1.5 0 0 1 1.5-1.5h7.8a1.5 1.5 0 0 1 1.5 1.5v3.7l10.32 5.14a1.5 1.5 0 0 1-.67 2.84h-.73v18.29h5.18a1.51 1.51 0 0 1 1.31.76 1.53 1.53 0 0 1 0 1.52l-4.22 7 5.52 81.94a1.5 1.5 0 0 1-1.19 1.57l-8.91 1.85a1.55 1.55 0 0 1-.31.01zm-23.24-3h23.09l7.48-1.56-5.39-79.68h-27.28l-5.38 79.68zM113 112.19h28.4l2.65-4.41h-33.69zm2.88-7.41h22.63V86.49h-22.62zm2.64-21.29h17.34l-5.12-2.55h-7.09zm6.27-5.55h4.8v-1.63h-4.8zM91.19 178.8a390.56 390.56 0 0 1-41.73-2.08c-10-1-19.86-2.4-29.44-4.1a1.5 1.5 0 1 1 .53-3c9.5 1.68 19.33 3.05 29.22 4.06a409.13 409.13 0 0 0 50.85 2 1.5 1.5 0 0 1 0 3c-3.16.09-6.3.12-9.43.12zm-5.6-64.48a1.5 1.5 0 0 1-.58-2.89l9.49-3.92a1.5 1.5 0 0 1 1.15 2.77l-9.49 3.92a1.46 1.46 0 0 1-.57.12zm83.31-.17a1.42 1.42 0 0 1-.57-.12l-8.27-3.38a1.5 1.5 0 0 1 1.13-2.77l8.27 3.38a1.5 1.5 0 0 1-.56 2.89zM62.7 97.36a1.5 1.5 0 0 1 0-3l29.75-.12a1.5 1.5 0 1 1 0 3l-29.75.12zm101-.4a1.5 1.5 0 1 1 0-3l28-.11a1.5 1.5 0 0 1 0 3l-28 .11zm-68.9-13.1a1.44 1.44 0 0 1-.57-.11L85 80a1.5 1.5 0 1 1 1.13-2.77L95.37 81a1.5 1.5 0 0 1-.57 2.89zm66.2-.74a1.5 1.5 0 0 1-.58-2.89l7.8-3.22a1.5 1.5 0 0 1 1.15 2.77L161.6 83a1.46 1.46 0 0 1-.6.12zM102.12 72.3a1.53 1.53 0 0 1-1.06-.44L87 57.78a1.5 1.5 0 0 1 2.12-2.13l14.1 14.08a1.51 1.51 0 0 1-1.06 2.57zm51.1-.81a1.48 1.48 0 0 1-1.05-.43 1.49 1.49 0 0 1 0-2.12l13.16-13.28a1.5 1.5 0 0 1 2.13 2.11l-13.17 13.28a1.49 1.49 0 0 1-1.07.44zm-39.76-7.23a1.49 1.49 0 0 1-1.38-.92l-3.6-8.46a1.5 1.5 0 1 1 2.76-1.17l3.6 8.46a1.5 1.5 0 0 1-.79 2 1.52 1.52 0 0 1-.59.09zm27.65-.64a1.42 1.42 0 0 1-.57-.12 1.5 1.5 0 0 1-.82-2l3.28-7.85a1.5 1.5 0 0 1 2.77 1.14l-3.26 7.9a1.5 1.5 0 0 1-1.4.93zm-14.17-2.43a1.5 1.5 0 0 1-1.5-1.5v-18a1.5 1.5 0 0 1 3 0v18a1.5 1.5 0 0 1-1.5 1.5z"></path></symbol></defs><use width="253" height="253" transform="translate(1.5 1.5)" xlink:href="#a"></use>
  </symbol><symbol  viewBox='0 0 256 256' id='ico-stop'>
    <defs><symbol id="a" data-name="stop" viewbox="0 0 173.61 214.53"><path d="M173.57 186.94a3 3 0 0 0 0-.42 3.17 3.17 0 0 0-.12-.41c0-.14-.08-.27-.13-.4a3.37 3.37 0 0 0-.19-.38c-.07-.12-.13-.25-.21-.37a2.91 2.91 0 0 0-.26-.33 3 3 0 0 0-.28-.33 2.89 2.89 0 0 0-.38-.3c-.12-.09-.22-.19-.34-.27l-.4-.22-.29-.17H170.76l-20.38-7.83a4.43 4.43 0 0 0-3.18 8.28l10.62 4.08a4.58 4.58 0 0 0-.66.34c-10 6.47-44.53 25.84-80.76 13.45a4.45 4.45 0 0 0 .72-1.19l42.3-104.6 32 12.29a4.43 4.43 0 1 0 3.18-8.28l-31.85-12.23 13.83-34.17a25.19 25.19 0 0 0 14.54-2.19 27.47 27.47 0 0 0 13.63-35.5A25.77 25.77 0 0 0 150.21 1.7C136.69-3.49 121.36 3.58 116 17.46a27.13 27.13 0 0 0 .32 20.48 25.81 25.81 0 0 0 11.76 12.82l-13.61 33.71-33.23-12.75A4.43 4.43 0 1 0 78.07 80l33.07 12.69-42.23 104.38a4.5 4.5 0 0 0-.3 1.38c-33.26-15.76-45.35-51.88-48.32-62.85a4.19 4.19 0 0 0-.26-.7l10.19 3.92a4.43 4.43 0 1 0 3.18-8.28L13 122.71a.35.35 0 0 1-.11 0h-.11a1.65 1.65 0 0 0-.32-.07 3.63 3.63 0 0 0-.45-.1h-.87a2.73 2.73 0 0 0-.4 0 3.11 3.11 0 0 0-.44.08 2.43 2.43 0 0 0-.38.13c-.14 0-.29.1-.42.16l-.35.2a3 3 0 0 0-.38.24 3.88 3.88 0 0 0-.31.26c-.11.1-.22.2-.32.31s-.18.22-.27.33-.17.23-.25.36a3.73 3.73 0 0 0-.2.4c-.05.11-.11.2-.15.3a.61.61 0 0 0 0 .11.54.54 0 0 0 0 .11l-7 21.4a4.43 4.43 0 1 0 8.43 2.75l3.42-10.48c4.65 16.44 18.94 53.3 56.3 68.9a84.44 84.44 0 0 0 32.75 6.48c26.82 0 49.48-11.9 59.09-17.82l-4.26 9.43a4.45 4.45 0 0 0 2.26 5.86 4.53 4.53 0 0 0 1.79.38 4.45 4.45 0 0 0 4.06-2.64l9.13-20.59v-.08-.12c0-.04.06-.22.09-.33s.09-.29.12-.44a3 3 0 0 0 .05-.42v-.44a3.13 3.13 0 0 0 .07-.43zM124.51 34.46a18.33 18.33 0 0 1-.2-13.83A18.09 18.09 0 0 1 141 8.87a16.85 16.85 0 0 1 6 1.13 17 17 0 0 1 9.56 9.3 18.59 18.59 0 0 1-9.2 24 16.93 16.93 0 0 1-22.88-8.78zM14.19 132.67h.09-.11z"></path></symbol></defs><use width="173.61" height="214.53" transform="translate(23.78 23.25)" xlink:href="#a"></use>
  </symbol><symbol  viewBox='0 0 256 256' id='ico-tutorial'>
    <defs><symbol id="a" data-name="tutorial" viewbox="0 0 253 253"><path d="M126.5 253A126.5 126.5 0 1 1 253 126.5 126.65 126.65 0 0 1 126.5 253zm0-250A123.5 123.5 0 1 0 250 126.5 123.64 123.64 0 0 0 126.5 3zm-22.94 209.35a5.11 5.11 0 0 1-3.66-1.53l-6-6.11a2.83 2.83 0 0 1-.52-3.2 2.91 2.91 0 0 1-.56-.6l-18.61-26.42a2.87 2.87 0 0 1-.43-.92 2.52 2.52 0 0 1-.73-.54L43 142.37a6.39 6.39 0 0 1-1.84-4.59 6.6 6.6 0 0 1 .47-2.38 2.83 2.83 0 0 1-1.65-.82l-1.69-1.73a4 4 0 0 1 .07-5.64l11.56-11.27a4 4 0 0 1 5.64.07l1.69 1.73a2.68 2.68 0 0 1 .73 1.31 5.26 5.26 0 0 1 6.15 1l5.76 5.88a2.41 2.41 0 0 1 .21-.24l14.75-14.16-5-5.07a6.4 6.4 0 0 1-1.85-4.6 6.31 6.31 0 0 1 .48-2.37 2.87 2.87 0 0 1-1.65-.83l-1.7-1.73a4 4 0 0 1 .07-5.64L86.8 80a4 4 0 0 1 5.65.06l1.69 1.73a2.85 2.85 0 0 1 .73 1.31 5.25 5.25 0 0 1 6.14 1l3.88 4 12.66-43a2.85 2.85 0 0 1 3.53-1.93l78.52 23a8.05 8.05 0 0 1 5.48 10L174.51 180a8.1 8.1 0 0 1-10 5.47l-36.57-10.71 4.39 4.48a5.11 5.11 0 0 1-.09 7.24l-25.09 24.42a5.13 5.13 0 0 1-3.59 1.45zm-7.37-9.6l5.85 6a2.13 2.13 0 0 0 3 0l25.07-24.42a2.16 2.16 0 0 0 .64-1.49 2.09 2.09 0 0 0-.61-1.5l-5.85-6zM77 173.19l18.09 25.66 25.37-24.72-25.3-18.64-.12.13-17.96 17.46zm65.66 2.75l22.7 6.65a5.1 5.1 0 0 0 6.31-3.43L202.2 75.28a5 5 0 0 0-3.44-6.28l-78.37-23-13.1 44.47 24.63 25.14a2.86 2.86 0 0 1 .52.73 2.92 2.92 0 0 1 .92.45l26 19.2a2.66 2.66 0 0 1 .58.58 2.83 2.83 0 0 1 3.2.59l6 6.1a5.12 5.12 0 0 1-.08 7.24L144 175a5.25 5.25 0 0 1-1.38.94zm-24.28-7.07a2 2 0 0 1 .34.06l17.19 5-5.08-5.17a2.83 2.83 0 0 1-.8-2 2.75 2.75 0 0 1 .28-1.2 3.13 3.13 0 0 1-.56-.59l-18.63-26.43a2.87 2.87 0 0 1-.43-.92 2.83 2.83 0 0 1-.73-.53l-2.37-2.42-14.79 14.2a1.54 1.54 0 0 1-.19.17l2.48 2.53a2.82 2.82 0 0 1 .51.73 2.77 2.77 0 0 1 .93.45zm14.73-2.05l5.85 6a2.12 2.12 0 0 0 3 0L167 148.4a2.11 2.11 0 0 0 0-3l-5.86-6zM60.4 121.47a2.26 2.26 0 0 0-1.57.63l-13.62 13.27a3.46 3.46 0 0 0-1 2.44 3.42 3.42 0 0 0 1 2.46l29.52 30.14 17.7-17.25L62 122.14a2.23 2.23 0 0 0-1.6-.67zm53.43 15.79l18.1 25.66 25.36-24.71L132 119.56l-.12.13L114 137.15zm-41.52-9.53l18.48 18.9 14.58-14-18.48-18.9zm25-42.19a2.26 2.26 0 0 0-1.57.63L82.09 99.44a3.46 3.46 0 0 0-.06 4.91l29.52 30.13 17.71-17.25-30.39-31a2.23 2.23 0 0 0-1.6-.69zm-44.59 32.27a1.05 1.05 0 0 0-.7.28l-11.56 11.27a1 1 0 0 0-.3.69 1 1 0 0 0 .28.7l1.56 1.62 13-12.65-1.58-1.61a1 1 0 0 0-.7-.3zm34.08-4.18zm2.79-31.75a1 1 0 0 0-.69.29L77.33 93.43a1 1 0 0 0-.29.69.92.92 0 0 0 .28.7l1.59 1.62 13-12.64-1.61-1.62a1 1 0 0 0-.71-.3zm2.4 2zm81.55 24.3a1.47 1.47 0 0 1-.46-.07 13 13 0 0 1-7-5.68 11.75 11.75 0 0 1-9.13 1 12 12 0 0 1-7-6.11 12 12 0 0 1-9.08 1.4 11.62 11.62 0 0 1-7.32-5.72 12.33 12.33 0 0 1-9.06 1 1.51 1.51 0 0 1-1-1.86 1.5 1.5 0 0 1 1.86-1 9.4 9.4 0 0 0 7-.8 2.63 2.63 0 0 1 2.2-.3 2.67 2.67 0 0 1 1.65 1.49 8.53 8.53 0 0 0 5.44 4.36 8.88 8.88 0 0 0 7.06-1.23 2.46 2.46 0 0 1 3.85 1.14 8.86 8.86 0 0 0 5.35 4.85 8.66 8.66 0 0 0 6.87-.77 2.67 2.67 0 0 1 3.89 1 10 10 0 0 0 5.41 4.45 1.5 1.5 0 0 1-.46 2.93zm1.87-6.37a1.41 1.41 0 0 1-.45-.07 13 13 0 0 1-7-5.68 11.76 11.76 0 0 1-9.13 1 11.91 11.91 0 0 1-7-6.11 12 12 0 0 1-9.09 1.4 11.65 11.65 0 0 1-7.28-5.73 12.31 12.31 0 0 1-9 1 1.5 1.5 0 1 1 .84-2.88 9.36 9.36 0 0 0 6.94-.8 2.64 2.64 0 0 1 3.76 1.12 8.57 8.57 0 0 0 5.45 4.36 8.89 8.89 0 0 0 7.05-1.23 2.45 2.45 0 0 1 3.85 1.14 8.89 8.89 0 0 0 5.36 4.85 8.64 8.64 0 0 0 6.86-.77 2.68 2.68 0 0 1 3.9 1 10 10 0 0 0 5.4 4.45 1.51 1.51 0 0 1 1 1.89 1.49 1.49 0 0 1-1.46 1.09z"></path></symbol></defs><use width="253" height="253" transform="translate(1.5 1.5)" xlink:href="#a"></use>
  </symbol></svg>
