<svg id="Layer_1" data-name="Layer 1" xmlns="http://www.w3.org/2000/svg" xmlns:xlink="http://www.w3.org/1999/xlink" viewBox="0 0 88.39 75.62"><defs><symbol id="sandD" data-name="sandD" viewBox="0 0 88.39 75.62"><path d="M87.11,40.63c7.49-7.45-20-33.58-28.44-36.33a44.79,44.79,0,0,0-5-1.26,44.9,44.9,0,0,0-6.86-.62C29,2.26,17.26,10.35,17.26,10.35a44.44,44.44,0,0,0-7.54,6.83C5.42,21.74,2,25.32.63,30.32,0,32.49-1.1,38.13,2.8,45.45A27.77,27.77,0,0,0,6.9,56.64a34.5,34.5,0,0,0,7.75,8.44C20.84,70,27,71.9,33.79,74a31.38,31.38,0,0,0,11.79,1.59c2.15-.16,4.69-.37,6.12-1.9,1.72-1.84.4-4.05,1.76-4.7,1.66-.8,4.06,2.27,7.72,2.42,2.89.12,5-1.63,8.28-4.34C84,54.84,86,53.11,85.29,50.7c-.71-2.57-3.66-3.41-3.21-5.74S85.49,42.23,87.11,40.63ZM11.23,51.22c-1.74,1.06-3.58,1.44-4.12.84s.44-1.94,2.18-3,3.58-1.43,4.12-.84S13,50.16,11.23,51.22ZM54.91,10.68c-.6,2.15-1.64,3.79-2.32,3.66s-.74-2-.14-4.12,1.64-3.79,2.32-3.67S55.51,8.53,54.91,10.68Z" style="fill:#e3d5ba"/><path d="M87.11,38.21c7.49-7.45-20-33.58-28.44-36.33a44.79,44.79,0,0,0-5-1.26A46.44,46.44,0,0,0,46.81,0C29-.16,17.26,7.93,17.26,7.93a44.44,44.44,0,0,0-7.54,6.83C5.42,19.32,2,22.9.63,27.9,0,30.07-1.1,35.71,2.8,43A27.77,27.77,0,0,0,6.9,54.22a34.31,34.31,0,0,0,7.75,8.44C20.84,67.6,27,69.48,33.79,71.54a31.38,31.38,0,0,0,11.79,1.59c2.15-.16,4.69-.37,6.12-1.9,1.72-1.84.4-4,1.76-4.7,1.66-.8,4.06,2.27,7.72,2.42,2.89.12,5-1.63,8.28-4.34C84,52.42,86,50.69,85.29,48.28c-.71-2.57-3.66-3.41-3.21-5.74S85.49,39.82,87.11,38.21ZM11.23,48.8c-1.74,1.06-3.58,1.44-4.12.84s.44-1.93,2.18-3,3.58-1.43,4.12-.84S13,47.74,11.23,48.8ZM54.91,8.26c-.6,2.15-1.64,3.79-2.32,3.66s-.74-2-.14-4.12S54.09,4,54.77,4.13,55.51,6.11,54.91,8.26Z" style="fill:#fff"/><path d="M53,40.65c-3.13-1.09-8-2.8-7.77-3.79s7.16-1.18,13.2.19c8,1.82,15,6.27,14.36,7.52C72.06,46,60.6,43.28,53,40.65Z" style="fill:#e6e6e6"/><path d="M55.34,41.26c-2.77-1-7.11-2.48-6.86-3.35s6.32-1,11.65.17c7,1.6,13.25,5.53,12.67,6.64C72.12,46,62,43.58,55.34,41.26Z" style="fill:#f2f2f2"/><path d="M31.37,36.27c3.5-.07,7.5.91,7.56,2.06.08,1.75-8.82,3.88-9.48,4-1.05.25-1.2.24-4.22.81-8.51,1.58-9.4,2-9.66,1.71C14.74,43.84,22.26,36.46,31.37,36.27Z" style="fill:#e6e6e6"/><path d="M32.15,37.1c3.08-.07,6.79.57,6.88,1.49.13,1.26-6.56,2.95-7.82,3.27-1.72.44-2.46.52-5,1-8.12,1.51-9.79,2.42-10,2C15.73,43.85,23.07,37.32,32.15,37.1Z" style="fill:#f2f2f2"/><path d="M43.53,50.84c-3.07-5.2-2.58-11-1-11.28,1.78-.28,5.69,6.49,7.24,10.2.46,1.09.15.59,2.06,6.12.79,2.3,1,2.8.68,2.91C51.52,59.13,46.25,55.43,43.53,50.84Z" style="fill:#e6e6e6"/><path d="M44.2,51.42c-2.71-4.81-2.31-10.18-.94-10.4,1.55-.25,5,6,6.38,9.44.4,1,.13.54,1.82,5.64.71,2.12.88,2.59.61,2.69C51.22,59.1,46.6,55.67,44.2,51.42Z" style="fill:#f2f2f2"/><path d="M35.07,24.51c3.13,3.18,6.17,8,4.83,9-1.19.9-6-1.08-8.85-4-1.44-1.46-1.26-2-3.49-5.46-3-4.61-4.78-5.93-4.32-6.35C24,17,30.45,19.82,35.07,24.51Z" style="fill:#e6e6e6"/><path d="M36.37,26.49c2.59,2.64,5.12,6.61,4,7.46s-5-.9-7.34-3.29c-1.2-1.21-1.05-1.66-2.9-4.53-2.47-3.83-4-4.93-3.59-5.27C27.19,20.27,32.52,22.59,36.37,26.49Z" style="fill:#f2f2f2"/><path d="M58.16,17.64c-2.68,5.56-4.08,8.4-7,11.41-2,2.08-4.85,4.94-6.08,4.45-2-.79,0-10.67,7.32-17.34,2.65-2.43,6.7-5.07,7.75-4.41C60.41,11.93,60.65,12.48,58.16,17.64Z" style="fill:#e6e6e6"/><path d="M57.34,18.85c-2.58,5.11-3.92,7.72-6.51,10.6-1.79,2-4.25,4.74-5.2,4.41-1.55-.55.86-9.41,7.2-15.86,2.31-2.35,5.74-5,6.53-4.49C59.57,13.65,59.72,14.11,57.34,18.85Z" style="fill:#f2f2f2"/><path d="M87.11,38.21a4.51,4.51,0,0,0,1.26-3.4A79.31,79.31,0,0,0,78,43.35C70.8,50.3,69.51,54.18,65.19,57.81c-8.06,6.78-19,6.24-24,6-25.11-1.22-39.88-26.88-41-29A22.3,22.3,0,0,0,1,38.65,25.7,25.7,0,0,0,2.8,43,27.77,27.77,0,0,0,6.9,54.22a34.31,34.31,0,0,0,7.75,8.44C20.84,67.6,27,69.48,33.79,71.54a31.38,31.38,0,0,0,11.79,1.59c2.15-.16,4.69-.37,6.12-1.9,1.72-1.84.4-4,1.76-4.7,1.66-.8,4.06,2.27,7.72,2.42,2.89.12,5-1.63,8.28-4.34C84,52.42,86,50.69,85.29,48.28c-.71-2.57-3.66-3.41-3.21-5.74S85.49,39.82,87.11,38.21ZM11.23,48.8c-1.74,1.06-3.58,1.44-4.12.84s.44-1.93,2.18-3,3.58-1.43,4.12-.84S13,47.74,11.23,48.8Z" style="fill:#754c24;opacity:0.05"/></symbol></defs><title>sbSandDollar</title><use width="88.39" height="75.62" xlink:href="#sandD"/></svg>