<svg id="Layer_1" data-name="Layer 1" xmlns="http://www.w3.org/2000/svg" viewBox="0 0 118.14 75.62"><title>sbSandDollar</title><path d="M98.91,40.63c7.5-7.45-20-33.58-28.44-36.33a44.33,44.33,0,0,0-5-1.26,45.12,45.12,0,0,0-6.87-.62c-17.82-.16-29.54,7.93-29.54,7.93a44.44,44.44,0,0,0-7.54,6.83c-4.31,4.56-7.7,8.14-9.09,13.14-.61,2.17-1.74,7.81,2.17,15.13A27.72,27.72,0,0,0,18.7,56.64a35,35,0,0,0,7.75,8.44C32.64,70,38.81,71.9,45.59,74a31.44,31.44,0,0,0,11.8,1.59c2.15-.16,4.69-.37,6.11-1.9,1.72-1.84.4-4.05,1.77-4.7,1.65-.8,4.06,2.27,7.72,2.42,2.88.12,5-1.63,8.28-4.34C95.85,54.84,97.77,53.11,97.1,50.7c-.72-2.57-3.66-3.41-3.22-5.74S97.3,42.23,98.91,40.63ZM23,51.22c-1.74,1.06-3.59,1.44-4.12.84s.43-1.94,2.17-3,3.59-1.43,4.12-.84S24.78,50.16,23,51.22ZM66.72,10.68c-.61,2.15-1.65,3.79-2.33,3.66s-.74-2-.14-4.12,1.65-3.79,2.33-3.67S67.32,8.53,66.72,10.68Z" style="fill:#e3d5ba"/><path d="M111.3,61.76a156.12,156.12,0,0,0-19.89-3.92l2.07-13.18c-1.92-3.11-5.18-6.84-11.4-13.75a185.37,185.37,0,0,1,36.06,5.5L107.7,48.13Z" style="fill:#50c0c9;fill-rule:evenodd"/><path d="M98.91,38.21c7.5-7.45-20-33.58-28.44-36.33a44.33,44.33,0,0,0-5-1.26A46.68,46.68,0,0,0,58.61,0C40.79-.16,29.07,7.93,29.07,7.93a44.44,44.44,0,0,0-7.54,6.83c-4.31,4.56-7.7,8.14-9.09,13.14-.61,2.17-1.74,7.81,2.17,15.13A27.72,27.72,0,0,0,18.7,54.22a34.77,34.77,0,0,0,7.75,8.44c6.19,4.94,12.36,6.82,19.14,8.88a31.44,31.44,0,0,0,11.8,1.59c2.15-.16,4.69-.37,6.11-1.9,1.72-1.84.4-4,1.77-4.7,1.65-.8,4.06,2.27,7.72,2.42,2.88.12,5-1.63,8.28-4.34C95.85,52.42,97.77,50.69,97.1,48.28c-.72-2.57-3.66-3.41-3.22-5.74S97.3,39.82,98.91,38.21ZM23,48.8c-1.74,1.06-3.59,1.44-4.12.84s.43-1.93,2.17-3,3.59-1.43,4.12-.84S24.78,47.74,23,48.8ZM66.72,8.26c-.61,2.15-1.65,3.79-2.33,3.66s-.74-2-.14-4.12S65.9,4,66.58,4.13,67.32,6.11,66.72,8.26Z" style="fill:#fff"/><path d="M64.85,40.65c-3.13-1.09-8-2.8-7.77-3.79s7.16-1.18,13.2.19c8,1.82,15,6.27,14.36,7.52C83.87,46,72.41,43.28,64.85,40.65Z" style="fill:#e6e6e6"/><path d="M67.15,41.26c-2.77-1-7.11-2.48-6.86-3.35s6.31-1,11.65.17c7,1.6,13.25,5.53,12.67,6.64C83.93,46,73.82,43.58,67.15,41.26Z" style="fill:#f2f2f2"/><path d="M43.18,36.27c3.49-.07,7.49.91,7.55,2.06.09,1.75-8.82,3.88-9.47,4-1.06.25-1.2.24-4.23.81-8.51,1.58-9.4,2-9.65,1.71C26.55,43.84,34.06,36.46,43.18,36.27Z" style="fill:#e6e6e6"/><path d="M44,37.1c3.07-.07,6.79.57,6.88,1.49.12,1.26-6.57,2.95-7.82,3.27-1.73.44-2.47.52-5,1-8.13,1.51-9.8,2.42-10,2C27.53,43.85,34.88,37.32,44,37.1Z" style="fill:#f2f2f2"/><path d="M55.34,50.84c-3.07-5.2-2.58-11-1-11.28,1.78-.28,5.69,6.49,7.24,10.2.45,1.09.15.59,2.06,6.12.79,2.3,1,2.8.67,2.91C63.33,59.13,58.06,55.43,55.34,50.84Z" style="fill:#e6e6e6"/><path d="M56,51.42C53.3,46.61,53.7,41.24,55.07,41c1.55-.25,5,6,6.37,9.44.41,1,.14.54,1.83,5.64.71,2.12.88,2.59.61,2.69C63,59.1,58.4,55.67,56,51.42Z" style="fill:#f2f2f2"/><path d="M46.88,24.51c3.13,3.18,6.16,8,4.82,9s-6-1.08-8.84-4c-1.45-1.46-1.27-2-3.49-5.46-3-4.61-4.78-5.93-4.32-6.35C35.83,17,42.25,19.82,46.88,24.51Z" style="fill:#e6e6e6"/><path d="M48.17,26.49c2.6,2.64,5.12,6.61,4,7.46s-5-.9-7.35-3.29c-1.2-1.21-1-1.66-2.9-4.53-2.46-3.83-4-4.93-3.58-5.27C39,20.27,44.33,22.59,48.17,26.49Z" style="fill:#f2f2f2"/><path d="M70,17.64c-2.68,5.56-4.09,8.4-7,11.41-2,2.08-4.84,4.94-6.08,4.45-2-.79,0-10.67,7.32-17.34,2.66-2.43,6.7-5.07,7.75-4.41C72.22,11.93,72.46,12.48,70,17.64Z" style="fill:#e6e6e6"/><path d="M69.14,18.85c-2.57,5.11-3.92,7.72-6.51,10.6-1.78,2-4.25,4.74-5.19,4.41-1.56-.55.86-9.41,7.19-15.86,2.31-2.35,5.74-5,6.53-4.49C71.38,13.65,71.53,14.11,69.14,18.85Z" style="fill:#f2f2f2"/><path d="M98.91,38.21a4.52,4.52,0,0,0,1.27-3.4,79.31,79.31,0,0,0-10.41,8.54C82.6,50.3,81.31,54.18,77,57.81c-8.06,6.78-19,6.24-24,6-25.11-1.22-39.88-26.88-41.06-29a22.41,22.41,0,0,0,.82,3.84A25.7,25.7,0,0,0,14.61,43,27.72,27.72,0,0,0,18.7,54.22a34.77,34.77,0,0,0,7.75,8.44c6.19,4.94,12.36,6.82,19.14,8.88a31.44,31.44,0,0,0,11.8,1.59c2.15-.16,4.69-.37,6.11-1.9,1.72-1.84.4-4,1.77-4.7,1.65-.8,4.06,2.27,7.72,2.42,2.88.12,5-1.63,8.28-4.34C95.85,52.42,97.77,50.69,97.1,48.28c-.72-2.57-3.66-3.41-3.22-5.74S97.3,39.82,98.91,38.21ZM23,48.8c-1.74,1.06-3.59,1.44-4.12.84s.43-1.93,2.17-3,3.59-1.43,4.12-.84S24.78,47.74,23,48.8Z" style="fill:#754c24;opacity:0.05"/><path d="M111.55,31.77a1.56,1.56,0,0,0-1.48-2L55.2,23.49l-54-6.26,5.7,13.58,102.21,12Z" style="fill:#57d3dd"/><path d="M6.92,30.15,0,43.43l53.25,6.11,54.11,6.17a1.9,1.9,0,0,0,1.76-2V42.14Z" style="fill:#4ec8d8"/><path d="M17.17,30.61a2.9,2.9,0,0,0-1.09,2,2.79,2.79,0,0,0,.67,2.15,2.91,2.91,0,0,0,2,1.07,3.11,3.11,0,0,0,2.06-.45.68.68,0,0,1,.51-.07.74.74,0,0,1,.43.3.66.66,0,0,1,.08.53.64.64,0,0,1-.3.42,4.41,4.41,0,0,1-2.85.64,4.31,4.31,0,0,1-2.95-1.59,4.17,4.17,0,0,1-1-3.17,4.13,4.13,0,0,1,1.62-2.89,4.45,4.45,0,0,1,5.87.28.7.7,0,0,1,.21.47.69.69,0,0,1-.19.49.72.72,0,0,1-.49.22.65.65,0,0,1-.48-.19,3.14,3.14,0,0,0-4.09-.22Z" style="fill:#fff"/><path d="M26.31,38.05A2.73,2.73,0,0,1,24.36,37a3.11,3.11,0,0,1,.45-4.23A2.73,2.73,0,0,1,26.93,32a2.66,2.66,0,0,1,1.91,1.12,3.11,3.11,0,0,1,.61,2.23,2.78,2.78,0,0,1-1.05,2A2.56,2.56,0,0,1,26.31,38.05Zm-.7-4.37a1.83,1.83,0,0,0-.56,1.2,2,2,0,0,0,.3,1.31,1.67,1.67,0,0,0,2.24.23,1.83,1.83,0,0,0,.6-1.21,1.74,1.74,0,0,0-.34-1.29,1.71,1.71,0,0,0-1.07-.58A1.66,1.66,0,0,0,25.61,33.68Z" style="fill:#fff"/><path d="M32.06,30.83a.63.63,0,0,1,.24-.44.61.61,0,0,1,.49-.14.67.67,0,0,1,.45.24.61.61,0,0,1,.15.48l-.74,7a.61.61,0,0,1-.25.45.66.66,0,0,1-.49.14.67.67,0,0,1-.45-.24.64.64,0,0,1-.14-.48Z" style="fill:#fff"/><path d="M35,31.15a.63.63,0,0,1,.24-.45.66.66,0,0,1,.49-.14.67.67,0,0,1,.45.24.62.62,0,0,1,.15.49l-.74,7a.61.61,0,0,1-.25.44.62.62,0,0,1-.49.14.63.63,0,0,1-.44-.24.61.61,0,0,1-.15-.48Z" style="fill:#fff"/><path d="M42.81,36.57a.56.56,0,0,1-.22.41.65.65,0,0,1-.47.11l-3.8-.4a1.46,1.46,0,0,0,.33.83,1.66,1.66,0,0,0,1.06.65A1.75,1.75,0,0,0,41,38a.65.65,0,0,1,.5-.14.52.52,0,0,1,.4.2.55.55,0,0,1-.08.78,3,3,0,0,1-2.19.56,2.83,2.83,0,0,1-2-1.1A3,3,0,0,1,37,36.12a3,3,0,0,1,1.07-2,2.78,2.78,0,0,1,2.13-.66,2.82,2.82,0,0,1,1.93,1,2.9,2.9,0,0,1,.68,2.08Zm-2.7-2a1.68,1.68,0,0,0-1.15.31,1.54,1.54,0,0,0-.59.78l3.38.36a1.63,1.63,0,0,0-.5-.88A2.06,2.06,0,0,0,40.11,34.58Z" style="fill:#fff"/><path d="M45,39.08a2.85,2.85,0,0,1-.67-2.2,2.81,2.81,0,0,1,1.11-2,3,3,0,0,1,2.23-.66,3.11,3.11,0,0,1,1.83.85.62.62,0,0,1,.19.45.59.59,0,0,1-.17.46.62.62,0,0,1-.44.2.61.61,0,0,1-.45-.18,2,2,0,0,0-1.15-.51,1.64,1.64,0,0,0-1.24.39A1.66,1.66,0,0,0,45.54,37a1.75,1.75,0,0,0,1.53,1.88,2,2,0,0,0,1.23-.25.55.55,0,0,1,.47-.07.63.63,0,0,1,.4.28.56.56,0,0,1,.07.47.65.65,0,0,1-.28.41,3.23,3.23,0,0,1-2,.44A3,3,0,0,1,45,39.08Z" style="fill:#fff"/><path d="M53.84,34.87a.67.67,0,0,1,.45.24.61.61,0,0,1,.15.48.65.65,0,0,1-.25.45.67.67,0,0,1-.49.15l-.3,0-.35,3.33a.63.63,0,0,1,.45.25.66.66,0,0,1,.14.49.67.67,0,0,1-.24.45.65.65,0,0,1-.49.14,1.34,1.34,0,0,1-1.18-1.47L52.08,36l-.35,0a.63.63,0,0,1-.44-.24.66.66,0,0,1-.15-.49.65.65,0,0,1,.73-.58l.35,0L52.4,33a.63.63,0,0,1,.24-.44.64.64,0,0,1,.5-.14.58.58,0,0,1,.44.23.67.67,0,0,1,.14.49l-.18,1.73Z" style="fill:#fff"/><path d="M62.21,35.34a3,3,0,0,0-1.09,2,2.79,2.79,0,0,0,.67,2.15,2.91,2.91,0,0,0,2,1.07,3.11,3.11,0,0,0,2.06-.44.64.64,0,0,1,.51-.07.66.66,0,0,1,.43.3.63.63,0,0,1,.08.52.66.66,0,0,1-.29.42,4.39,4.39,0,0,1-2.86.64,4.26,4.26,0,0,1-2.95-1.58,4.15,4.15,0,0,1-1-3.18,4.11,4.11,0,0,1,1.62-2.88,4.47,4.47,0,0,1,5.87.27.69.69,0,0,1-.47,1.18.68.68,0,0,1-.48-.18,3.13,3.13,0,0,0-4.09-.23Z" style="fill:#fff"/><path d="M71.35,42.78a2.7,2.7,0,0,1-1.95-1.1,3.11,3.11,0,0,1,.45-4.23A2.72,2.72,0,0,1,72,36.78a2.62,2.62,0,0,1,1.91,1.11,3.06,3.06,0,0,1,.61,2.23,2.76,2.76,0,0,1-1,2A2.53,2.53,0,0,1,71.35,42.78Zm-.7-4.37a1.88,1.88,0,0,0-.56,1.2,2,2,0,0,0,.3,1.31,1.65,1.65,0,0,0,2.24.24,1.85,1.85,0,0,0,.6-1.22,1.76,1.76,0,0,0-.34-1.29,1.63,1.63,0,0,0-2.24-.24Z" style="fill:#fff"/><path d="M77,37.51a.64.64,0,0,1,.48-.14.66.66,0,0,1,.44.23.65.65,0,0,1,.14.49l-.49,4.66a.63.63,0,0,1-.24.44.6.6,0,0,1-.47.14.65.65,0,0,1-.44-.24.64.64,0,0,1-.14-.48L76.78,38A.66.66,0,0,1,77,37.51Zm1.31-1.83,0,.25a.62.62,0,0,1-.23.45.58.58,0,0,1-.47.14.56.56,0,0,1-.44-.24A.6.6,0,0,1,77,35.8l0-.25a.65.65,0,0,1,.24-.44.64.64,0,0,1,1,.57Z" style="fill:#fff"/><path d="M80.92,43.11a.59.59,0,0,1-.25.43.71.71,0,0,1-.48.14.61.61,0,0,1-.42-.24.59.59,0,0,1-.14-.46l.49-4.7a.61.61,0,0,1,.24-.43.59.59,0,0,1,.46-.14.61.61,0,0,1,.55.43,2.35,2.35,0,0,1,1.3-.24,2.44,2.44,0,0,1,1.69.92,2.4,2.4,0,0,1,.55,1.83l-.3,2.85a.63.63,0,0,1-.23.43.58.58,0,0,1-.46.14.63.63,0,0,1-.42-.23.6.6,0,0,1-.15-.47l.3-2.85a1.13,1.13,0,0,0-.27-.9,1.24,1.24,0,0,0-.84-.44,1.18,1.18,0,0,0-1.32,1.08Z" style="fill:#fff"/><path d="M91.12,39.46a.6.6,0,0,1,.23.42.63.63,0,0,1-.13.48.59.59,0,0,1-.43.22.6.6,0,0,1-.47-.15,2.19,2.19,0,0,0-1.06-.56,1.09,1.09,0,0,0-.73.15q-.21.1-.21.21a.23.23,0,0,0,0,.15.54.54,0,0,0,.11.12,2.53,2.53,0,0,0,.85.38h0a6,6,0,0,1,1.12.48,1.7,1.7,0,0,1,.7.74,1.58,1.58,0,0,1,.17.85,1.68,1.68,0,0,1-.9,1.31,2.67,2.67,0,0,1-1.6.31,3.43,3.43,0,0,1-2-1,.6.6,0,0,1-.17-.44.61.61,0,0,1,.18-.45.56.56,0,0,1,.46-.19.62.62,0,0,1,.45.19,2,2,0,0,0,1.25.66,1.49,1.49,0,0,0,.84-.14c.15-.1.24-.2.25-.28a.32.32,0,0,0,0-.18s-.06-.09-.14-.16a2.63,2.63,0,0,0-.92-.43h0a4.85,4.85,0,0,1-1.07-.46,1.89,1.89,0,0,1-.69-.74,1.44,1.44,0,0,1-.12-.77,1.59,1.59,0,0,1,.84-1.24,2.54,2.54,0,0,1,1.52-.29A3.2,3.2,0,0,1,91.12,39.46Z" style="fill:#fff"/><path d="M94.12,44.48a.66.66,0,0,1-.23.44.6.6,0,0,1-.48.14.61.61,0,0,1-.45-.24.64.64,0,0,1-.14-.48l0-.24a.64.64,0,0,1,.25-.44.61.61,0,0,1,.48-.15.63.63,0,0,1,.43.24.61.61,0,0,1,.14.49Zm0-1.78a.6.6,0,0,1-.48.14.66.66,0,0,1-.45-.23.67.67,0,0,1-.14-.49l.51-4.82a.65.65,0,0,1,.24-.45.66.66,0,0,1,.48-.14.65.65,0,0,1,.44.24.64.64,0,0,1,.14.48l-.51,4.83A.62.62,0,0,1,94.12,42.7Z" style="fill:#fff"/></svg>