<?xml version="1.0" encoding="utf-8"?>
<!-- Generator: Adobe Illustrator 22.1.0, SVG Export Plug-In . SVG Version: 6.00 Build 0)  -->
<svg version="1.1" id="Layer_1" xmlns="http://www.w3.org/2000/svg" xmlns:xlink="http://www.w3.org/1999/xlink" x="0px" y="0px"
	 viewBox="0 0 118.1 75.6" style="enable-background:new 0 0 118.1 75.6;" xml:space="preserve">
<style type="text/css">
	.st0{fill:#E3D5BA;}
	.st1{fill:#50C0C9;}
	.st2{fill:#FFFFFF;}
	.st3{fill:#E6E6E6;}
	.st4{fill:#F2F2F2;}
	.st5{opacity:5.000000e-02;fill:#754C24;enable-background:new    ;}
	.st6{fill:#57D3DD;}
	.st7{fill:#4EC8D8;}
</style>
<title>sbSandDollar</title>
<path class="st0" d="M98.9,40.6c7.5-7.5-20-33.6-28.4-36.3c-1.6-0.5-3.3-0.9-5-1.3c-2.3-0.4-4.6-0.6-6.9-0.6
	c-17.8-0.2-29.5,7.9-29.5,7.9c-2.8,2-5.3,4.3-7.5,6.8c-4.3,4.6-7.7,8.1-9.1,13.1c-0.6,2.2-1.7,7.8,2.2,15.1c0.5,4,1.9,7.8,4.1,11.2
	c2.1,3.2,4.7,6.1,7.8,8.4c6.2,4.9,12.4,6.8,19.1,8.9c3.8,1.3,7.8,1.8,11.8,1.6c2.2-0.2,4.7-0.4,6.1-1.9c1.7-1.8,0.4-4.1,1.8-4.7
	c1.7-0.8,4.1,2.3,7.7,2.4c2.9,0.1,5-1.6,8.3-4.3c14.6-12.2,16.5-14,15.8-16.4c-0.7-2.6-3.7-3.4-3.2-5.7S97.3,42.2,98.9,40.6z
	 M23,51.2c-1.7,1.1-3.6,1.4-4.1,0.8s0.4-1.9,2.2-3s3.6-1.4,4.1-0.8S24.8,50.2,23,51.2z M66.7,10.7c-0.6,2.1-1.7,3.8-2.3,3.7
	s-0.7-2-0.1-4.1c0.6-2.1,1.7-3.8,2.3-3.7S67.3,8.5,66.7,10.7z"/>
<path class="st1" d="M111.3,61.8c-6.5-1.7-13.2-3-19.9-3.9l2.1-13.2c-1.9-3.1-5.2-6.8-11.4-13.8c12.2,0.6,24.3,2.5,36.1,5.5
	l-10.4,11.7L111.3,61.8z"/>
<path class="st2" d="M98.9,38.2c7.5-7.5-20-33.6-28.4-36.3c-1.6-0.5-3.3-0.9-5-1.3C63.2,0.2,60.9,0,58.6,0
	C40.8-0.2,29.1,7.9,29.1,7.9c-2.8,2-5.3,4.3-7.5,6.8c-4.3,4.6-7.7,8.1-9.1,13.1c-0.6,2.2-1.7,7.8,2.2,15.1c0.5,4,1.9,7.8,4.1,11.2
	c2.1,3.2,4.7,6.1,7.8,8.4c6.2,4.9,12.4,6.8,19.1,8.9c3.8,1.3,7.8,1.8,11.8,1.6c2.2-0.2,4.7-0.4,6.1-1.9c1.7-1.8,0.4-4,1.8-4.7
	c1.7-0.8,4.1,2.3,7.7,2.4c2.9,0.1,5-1.6,8.3-4.3c14.6-12.2,16.5-13.9,15.8-16.3c-0.7-2.6-3.7-3.4-3.2-5.7S97.3,39.8,98.9,38.2z
	 M23,48.8c-1.7,1.1-3.6,1.4-4.1,0.8s0.4-1.9,2.2-3s3.6-1.4,4.1-0.8S24.8,47.7,23,48.8z M66.7,8.3c-0.6,2.1-1.7,3.8-2.3,3.7
	s-0.7-2-0.1-4.1c0.6-2.1,1.7-3.8,2.3-3.7S67.3,6.1,66.7,8.3z"/>
<path class="st3" d="M64.8,40.7c-3.1-1.1-8-2.8-7.8-3.8s7.2-1.2,13.2,0.2c8,1.8,15,6.3,14.4,7.5C83.9,46,72.4,43.3,64.8,40.7z"/>
<path class="st4" d="M67.2,41.3c-2.8-1-7.1-2.5-6.9-3.3s6.3-1,11.7,0.2c7,1.6,13.2,5.5,12.7,6.6C83.9,46,73.8,43.6,67.2,41.3z"/>
<path class="st3" d="M43.2,36.3c3.5-0.1,7.5,0.9,7.5,2.1c0.1,1.8-8.8,3.9-9.5,4c-1.1,0.2-1.2,0.2-4.2,0.8c-8.5,1.6-9.4,2-9.6,1.7
	C26.5,43.8,34.1,36.5,43.2,36.3z"/>
<path class="st4" d="M44,37.1c3.1-0.1,6.8,0.6,6.9,1.5c0.1,1.3-6.6,3-7.8,3.3c-1.7,0.4-2.5,0.5-5,1c-8.1,1.5-9.8,2.4-10,2
	C27.5,43.8,34.9,37.3,44,37.1z"/>
<path class="st3" d="M55.3,50.8c-3.1-5.2-2.6-11-1-11.3c1.8-0.3,5.7,6.5,7.2,10.2c0.5,1.1,0.2,0.6,2.1,6.1c0.8,2.3,1,2.8,0.7,2.9
	C63.3,59.1,58.1,55.4,55.3,50.8z"/>
<path class="st4" d="M56,51.4c-2.7-4.8-2.3-10.2-0.9-10.4c1.5-0.2,5,6,6.4,9.4c0.4,1,0.1,0.5,1.8,5.6c0.7,2.1,0.9,2.6,0.6,2.7
	C63,59.1,58.4,55.7,56,51.4z"/>
<path class="st3" d="M46.9,24.5c3.1,3.2,6.2,8,4.8,9s-6-1.1-8.8-4c-1.5-1.5-1.3-2-3.5-5.5c-3-4.6-4.8-5.9-4.3-6.4
	C35.8,17,42.2,19.8,46.9,24.5z"/>
<path class="st4" d="M48.2,26.5c2.6,2.6,5.1,6.6,4,7.5s-5-0.9-7.3-3.3c-1.2-1.2-1-1.7-2.9-4.5c-2.5-3.8-4-4.9-3.6-5.3
	C39,20.3,44.3,22.6,48.2,26.5z"/>
<path class="st3" d="M70,17.6c-2.7,5.6-4.1,8.4-7,11.4c-2,2.1-4.8,4.9-6.1,4.5c-2-0.8,0-10.7,7.3-17.3c2.7-2.4,6.7-5.1,7.8-4.4
	C72.2,11.9,72.5,12.5,70,17.6z"/>
<path class="st4" d="M69.1,18.9c-2.6,5.1-3.9,7.7-6.5,10.6c-1.8,2-4.2,4.7-5.2,4.4c-1.6-0.5,0.9-9.4,7.2-15.9c2.3-2.4,5.7-5,6.5-4.5
	C71.4,13.6,71.5,14.1,69.1,18.9z"/>
<path class="st5" d="M98.9,38.2c0.9-0.9,1.3-2.1,1.3-3.4c-3.7,2.5-7.2,5.4-10.4,8.5c-7.2,7-8.5,10.8-12.8,14.5c-8.1,6.8-19,6.2-24,6
	c-25.1-1.2-39.9-26.9-41.1-29c0.2,1.3,0.4,2.6,0.8,3.8c0.5,1.5,1.1,3,1.9,4.3c0.5,4,1.9,7.8,4.1,11.2c2.1,3.2,4.7,6.1,7.8,8.4
	c6.2,4.9,12.4,6.8,19.1,8.9c3.8,1.3,7.8,1.8,11.8,1.6c2.2-0.2,4.7-0.4,6.1-1.9c1.7-1.8,0.4-4,1.8-4.7c1.7-0.8,4.1,2.3,7.7,2.4
	c2.9,0.1,5-1.6,8.3-4.3c14.6-12.2,16.5-13.9,15.8-16.3c-0.7-2.6-3.7-3.4-3.2-5.7S97.3,39.8,98.9,38.2z M23,48.8
	c-1.7,1.1-3.6,1.4-4.1,0.8s0.4-1.9,2.2-3s3.6-1.4,4.1-0.8S24.8,47.7,23,48.8z"/>
<path class="st6" d="M111.6,31.8c0.2-0.8-0.2-1.7-1.1-1.9c-0.1,0-0.3-0.1-0.4-0.1l-54.9-6.3l-54-6.3l5.7,13.6l102.2,12L111.6,31.8z"
	/>
<path class="st7" d="M6.9,30.1L0,43.4l53.2,6.1l54.1,6.2c1-0.1,1.8-1,1.8-2V42.1L6.9,30.1z"/>
</svg>
