<svg xmlns="http://www.w3.org/2000/svg" xmlns:xlink="http://www.w3.org/1999/xlink" viewBox="0 0 1024 748"><defs><symbol id="post_2" data-name="post 2" viewBox="0 0 95.31 282.43"><ellipse cx="54.81" cy="270.5" rx="40.5" ry="4.5" fill="#ecddc3"/><ellipse cx="41.31" cy="269.5" rx="35" ry="2.5" fill="#998675"/><path fill="#998675" d="M20.31 0h52v270h-52z"/><path fill="#ad9984" d="M20.31 0h27v270h-27z"/><path d="M20.31 0h15v120a6 6 0 0 1-6 6h-3a6 6 0 0 1-6-6V0z" fill="#c7b299"/><path d="M62.31 92h3a6 6 0 0 1 6 6v171h-15V98a6 6 0 0 1 6-6z" fill="#847263"/><path d="M4.78 255c1-1.14 4.11-4.9 8.53-5s5.56 3.62 12 8c2.6 1.77 9.27 4.06 22.59 8.64 1.71.59 5.28 1.93 10.35 3.63 1.91.64 4.3 1.5 7.56 2.79 14 5.54 13.73 6.85 13.4 7.28-.45.61-2.4 1.41-11 1.21-8.29-.11-15.69 0-22.06.08s-11.87.25-16.21.4c-15.32.51-20.83 1.08-25.39-2.1C-2 275.34-1 261.89 4.78 255z" fill="#ffeccb"/><path d="M72.32 110.7l-53-10.3a5 5 0 0 1-4-5.86 5 5 0 0 1 5.87-4l53 10.31a5 5 0 0 1 4 5.86 5 5 0 0 1-5.87 3.99z" fill="#e3d5ba"/><path d="M46.79 105.74l-27.48-5.34a5 5 0 0 1-4-5.86 5 5 0 0 1 5.87-4l27.52 5.39a5 5 0 0 1 4 5.86 5 5 0 0 1-5.91 3.95z" fill="#f3e7cd"/><path d="M71.4 99.15L18.89 86.57a5 5 0 0 1-3.7-6 5 5 0 0 1 6-3.7l52.54 12.56a5 5 0 0 1 3.7 6 5 5 0 0 1-6.03 3.72z" fill="#e3d5ba"/><path d="M46.12 93.1l-27.23-6.53a5 5 0 0 1-3.7-6 5 5 0 0 1 6-3.7l27.23 6.52a5 5 0 0 1 3.7 6 5 5 0 0 1-6 3.71z" fill="#f3e7cd"/></symbol></defs><g id="qtBF"><g id="qtBF-z3"><path d="M919.1 579c-118.65-.36-144.54-8.33-242.1-9-137.76-1-125.32 14.64-201 5-58-7.38-91.59-19.22-177.86-26.47C264 545.66 255.8 546.77 206 545c-48.38-1.71-118.7-5.51-206-15v52.44l.07 63.4H0V748h1024V577.3c-23.13.84-59.82 1.87-104.9 1.7z" fill="#ffeccb" id="sand-2" data-name="sand"/><g id="post"><use id="post_2-3" data-name="post 2" width="95.31" height="282.43" transform="translate(186.69 306)" xlink:href="#post_2"/><rect x="210.11" y="338.77" width="46.59" height="22.23" rx="6" ry="6" fill="#736357"/><rect x="209" y="337.71" width="46.59" height="22.23" rx="4" ry="4" fill="#fcf3dc"/><path d="M235 337.71h16.59a4 4 0 0 1 4 4v14.23a4 4 0 0 1-4 4H235v-22.23z" fill="#f9e3c7"/><path d="M209 337.71h2a4 4 0 0 1 4 4v14.23a4 4 0 0 1-4 4h-2v-22.23z" transform="rotate(-180 212 348.825)" fill="#f9e3c7"/><rect x="213.61" y="341.88" width="16.39" height="9.53" rx="4.5" ry="4.5" fill="#fffaf4"/><rect x="210.96" y="340.35" width="42.35" height="16.94" rx="3" ry="3" fill="none" stroke="#93c9c7" stroke-miterlimit="10" stroke-width="1.027"/><circle cx="214" cy="350" r="1" fill="#ad9984"/><circle cx="250" cy="350" r="1" fill="#ad9984"/></g></g></g></svg>