<svg xmlns="http://www.w3.org/2000/svg" viewBox="0 0 1024 748">
  <defs>
    <style>
      .cls-1 {
        fill: #fff;
      }
    </style>
  </defs>
  <title>waveTails-qtBF-bg</title>
  <g id="qtBF">
    <g id="staticWave">
      <g>
        <path id="right_tail" data-name="right tail" class="cls-1" d="M856.62,494.86l167.32.14c-.21-4.65.21-9.3,0-13.95-11.2.47-20.92.22-27.05-.08-21.3-1-25.08-3.65-41.34-3.14-15.54.49-16.24,2.95-24.44,1.05-10.94-2.53-11.12-7.25-26.4-11.93-6.92-2.13-8.09-1.53-20-5-5.29-1.55-8.26-2.6-13.49-3.76a110.54,110.54,0,0,0-14.57-2.25Z"/>
        <path id="left_tail" data-name="left tail" class="cls-1" d="M260.49,492H0V457.93c40.38,1.48,63.9-4.18,78.15-10,8.4-3.44,15.94-8.5,29.05-10,18-2.09,25.13,4.44,40.08-1,9.17-3.34,9.17-6.77,20-10,10.19-3.05,13.82-1.11,24-3,12.74-2.36,16.68-7.13,28.06-12,8.75-3.77,22.12-7.7,41.07-7Z"/>
      </g>
    </g>
  </g>
</svg>
