<svg xmlns="http://www.w3.org/2000/svg" viewBox="0 0 1024 748">
  <defs>
    <style>
      .cls-1 {
        fill: #fff;
      }
    </style>
  </defs>
  <title>wave-qtBF-bg</title>
  <g id="qtBF">
    <g id="staticWave">
      <g>
        <path id="main_wave" data-name="main wave" class="cls-1" d="M259.49,492.56V404.8a87.25,87.25,0,0,0,20.21,1.89,80.16,80.16,0,0,0,18.08-2.59c7.52-2,7.1-3.09,10.92-3.74,9.23-1.56,13.86,4.57,22.94,8.43a24.08,24.08,0,0,0,9,5.2c2.8.84,9.39,2.81,15.95-1.2a47.51,47.51,0,0,0,9.61-4c1.08-.29,2.15-.6,3.2-1,15.78-5.15,16.17-12.73,26.35-13,12.31-.35,15.77,10.62,32.77,11.64,13.47.81,19.23-5.6,32.73-4.57,8.09.61,11.58,3.34,17.55,6.9,1.69,2.1,3.59,4.33,5.84,6.65,21.51,22.05,52,26.86,67.29,29.26,22.16,3.49,21.37-2.35,55.74-.32,27.62,1.63,29.94,5.5,56.65,7.75,27.77,2.34,28.6-1.57,71-1.69,10.39,0,18,.18,24.24.5,8.88.94,11.5,2.82,23.89,2,18.88-1.2,19.39-6,31.53-3.4,8.87,1.88,13.53,5.52,25.31,6.59a63.49,63.49,0,0,0,16.34-.57v37H259.49Z"/>
        <path id="right_tail" data-name="right tail" class="cls-1" d="M856.62,494.86l167.32.14c-.21-4.65.21-9.3,0-13.95-11.2.47-20.92.22-27.05-.08-21.3-1-25.08-3.65-41.34-3.14-15.54.49-16.24,2.95-24.44,1.05-10.94-2.53-11.12-7.25-26.4-11.93-6.92-2.13-8.09-1.53-20-5-5.29-1.55-8.26-2.6-13.49-3.76a110.54,110.54,0,0,0-14.57-2.25Z"/>
        <path id="left_tail" data-name="left tail" class="cls-1" d="M260.49,492H0V457.93c40.38,1.48,63.9-4.18,78.15-10,8.4-3.44,15.94-8.5,29.05-10,18-2.09,25.13,4.44,40.08-1,9.17-3.34,9.17-6.77,20-10,10.19-3.05,13.82-1.11,24-3,12.74-2.36,16.68-7.13,28.06-12,8.75-3.77,22.12-7.7,41.07-7Z"/>
      </g>
    </g>
  </g>
</svg>
